<svg id="fd4aa606-6615-433e-90bb-4e47b213c611" data-name="Layer 1" xmlns="http://www.w3.org/2000/svg" viewBox="0 0 109.03 112.54"><defs><style>.b53527b7-11db-41c5-a5d0-fe0225f9c8c7,.e618f83b-709e-4a1d-924f-827be89ba613{fill:none;stroke-linecap:round;stroke-linejoin:round;}.b53527b7-11db-41c5-a5d0-fe0225f9c8c7{stroke:#000;stroke-width:2px;}.e618f83b-709e-4a1d-924f-827be89ba613{stroke:#fff;stroke-width:6px;}</style></defs><path class="b53527b7-11db-41c5-a5d0-fe0225f9c8c7" d="M170.8,212.23a13,13,0,0,1,18.94,0,14.36,14.36,0,0,1,3.92,9.93" transform="translate(-139.12 -140.56)"/><path class="b53527b7-11db-41c5-a5d0-fe0225f9c8c7" d="M188.43,249.49a13.49,13.49,0,0,1-11.52,2.13c-12.57-3.4-22.71-10.62-29.14-20.28s-9.13-21.73-6.84-34.84a82.6,82.6,0,0,1,13.88-33.45c6.7-9.41,15.1-16.68,24.1-20.6a10.65,10.65,0,0,1,10,.77,10,10,0,0,1,4.78,8.41v87.83" transform="translate(-139.12 -140.56)"/><path class="b53527b7-11db-41c5-a5d0-fe0225f9c8c7" d="M149.48,196.36a13.08,13.08,0,0,1,8.1,6.4,14.52,14.52,0,0,1-5.07,19.18" transform="translate(-139.12 -140.56)"/><path class="b53527b7-11db-41c5-a5d0-fe0225f9c8c7" d="M176.08,223.77a13,13,0,0,1-.52,10.31,14.5,14.5,0,0,1-18.57,7" transform="translate(-139.12 -140.56)"/><path class="b53527b7-11db-41c5-a5d0-fe0225f9c8c7" d="M169.7,159.15a14.54,14.54,0,0,1,1.76,10.58,14,14,0,0,1-5.89,8.78,12.83,12.83,0,0,1-10.09,1.85" transform="translate(-139.12 -140.56)"/><path class="b53527b7-11db-41c5-a5d0-fe0225f9c8c7" d="M169,176.28a13.24,13.24,0,0,1,9,5.09A14.48,14.48,0,0,1,181,191.66" transform="translate(-139.12 -140.56)"/><polyline class="e618f83b-709e-4a1d-924f-827be89ba613" points="54.52 11.07 54.52 54.98 54.52 98.89"/><path class="b53527b7-11db-41c5-a5d0-fe0225f9c8c7" d="M193.64,151.63v87.83a12.4,12.4,0,0,0,5.22,10,13.46,13.46,0,0,0,11.51,2.13c12.57-3.4,22.71-10.62,29.14-20.28s9.14-21.73,6.84-34.84a82.6,82.6,0,0,0-13.88-33.45c-6.7-9.41-15.1-16.68-24.1-20.6a10.61,10.61,0,0,0-9.08.28" transform="translate(-139.12 -140.56)"/><line class="b53527b7-11db-41c5-a5d0-fe0225f9c8c7" x1="54.52" y1="73.74" x2="72.12" y2="73.74"/><line class="b53527b7-11db-41c5-a5d0-fe0225f9c8c7" x1="72.12" y1="73.74" x2="72.12" y2="53.31"/><path d="M215,194.06a3.76,3.76,0,1,0-3.76,3.76A3.77,3.77,0,0,0,215,194.06Z" transform="translate(-139.12 -140.56)"/><line class="b53527b7-11db-41c5-a5d0-fe0225f9c8c7" x1="72.66" y1="64.13" x2="99.74" y2="64.13"/><path d="M238.68,208.45a3.76,3.76,0,1,0-3.76-3.76A3.77,3.77,0,0,0,238.68,208.45Z" transform="translate(-139.12 -140.56)"/><line class="b53527b7-11db-41c5-a5d0-fe0225f9c8c7" x1="95.36" y1="96.87" x2="70.48" y2="96.87"/><path d="M209.79,233.67a3.76,3.76,0,1,0,3.76,3.76A3.76,3.76,0,0,0,209.79,233.67Z" transform="translate(-139.12 -140.56)"/><line class="b53527b7-11db-41c5-a5d0-fe0225f9c8c7" x1="86.55" y1="96.87" x2="86.55" y2="80.73"/><path d="M229.43,221.48a3.76,3.76,0,1,0-3.75,3.76A3.75,3.75,0,0,0,229.43,221.48Z" transform="translate(-139.12 -140.56)"/><line class="b53527b7-11db-41c5-a5d0-fe0225f9c8c7" x1="90.37" y1="18.59" x2="63.11" y2="18.59"/><path d="M202.42,155.39a3.76,3.76,0,1,0,3.76,3.76A3.76,3.76,0,0,0,202.42,155.39Z" transform="translate(-139.12 -140.56)"/><line class="b53527b7-11db-41c5-a5d0-fe0225f9c8c7" x1="84.26" y1="18.59" x2="84.26" y2="38.71"/><path d="M219.62,179.08a3.76,3.76,0,1,0,3.76-3.76A3.76,3.76,0,0,0,219.62,179.08Z" transform="translate(-139.12 -140.56)"/></svg>