<svg id="ba751a70-706a-46c6-9196-e8d6860ee046" data-name="Layer 1" xmlns="http://www.w3.org/2000/svg" viewBox="0 0 301.52 203.5"><defs><style>.a1c5a382-2230-4f51-8211-49db89a1de4d,.a7a5ff05-775f-4eae-bbb5-c240ca59e478,.b2c71a57-0b31-4714-8cd3-6fb76aeec980,.b5207bb3-2670-42ab-ac28-07f0e7243e0c,.be508343-b2a1-45f5-a804-fc9e7ec0fbfd,.bf46ef56-70c9-4d84-a9e5-a1281be80b52,.f0daeb35-7e7e-41e1-a8b5-990af4e9a778,.f1e22f80-161c-4901-ad78-cba363195f3f,.fb3957a5-04e4-4b33-af59-06b70a089e09,.ff26ef16-df3d-4486-8971-ab268ef432aa{fill:none;}.a0dffcf6-be29-4680-b14e-02ba14922604,.a1c5a382-2230-4f51-8211-49db89a1de4d,.b2c71a57-0b31-4714-8cd3-6fb76aeec980,.b5207bb3-2670-42ab-ac28-07f0e7243e0c,.b5ffb2ff-c1bc-4014-a0ec-70486c37a64c,.b94159d9-a0ea-42bf-91fa-6940ff66396f,.be508343-b2a1-45f5-a804-fc9e7ec0fbfd,.bf46ef56-70c9-4d84-a9e5-a1281be80b52,.ef80ad93-4e42-4fe1-85d3-29ac14043b9b,.f0daeb35-7e7e-41e1-a8b5-990af4e9a778,.f1e22f80-161c-4901-ad78-cba363195f3f,.fb3957a5-04e4-4b33-af59-06b70a089e09,.ff26ef16-df3d-4486-8971-ab268ef432aa{stroke:#000;stroke-linejoin:round;}.b5ffb2ff-c1bc-4014-a0ec-70486c37a64c,.b94159d9-a0ea-42bf-91fa-6940ff66396f,.be508343-b2a1-45f5-a804-fc9e7ec0fbfd,.bf46ef56-70c9-4d84-a9e5-a1281be80b52,.f0daeb35-7e7e-41e1-a8b5-990af4e9a778,.f1e22f80-161c-4901-ad78-cba363195f3f,.fb3957a5-04e4-4b33-af59-06b70a089e09,.ff26ef16-df3d-4486-8971-ab268ef432aa{stroke-width:2px;}.a0dffcf6-be29-4680-b14e-02ba14922604,.b5ffb2ff-c1bc-4014-a0ec-70486c37a64c,.b94159d9-a0ea-42bf-91fa-6940ff66396f,.bfc5eee0-7802-407b-84f4-da28ff75eee9,.ef80ad93-4e42-4fe1-85d3-29ac14043b9b{fill:#fff;}.a0dffcf6-be29-4680-b14e-02ba14922604,.b2c71a57-0b31-4714-8cd3-6fb76aeec980,.b5ffb2ff-c1bc-4014-a0ec-70486c37a64c,.be508343-b2a1-45f5-a804-fc9e7ec0fbfd,.bf46ef56-70c9-4d84-a9e5-a1281be80b52,.f0daeb35-7e7e-41e1-a8b5-990af4e9a778,.f1e22f80-161c-4901-ad78-cba363195f3f,.ff26ef16-df3d-4486-8971-ab268ef432aa{stroke-linecap:round;}.f0daeb35-7e7e-41e1-a8b5-990af4e9a778{stroke-dasharray:1.93 2.9;}.bf46ef56-70c9-4d84-a9e5-a1281be80b52{stroke-dasharray:1.93 2.9;}.ff26ef16-df3d-4486-8971-ab268ef432aa{stroke-dasharray:2.36 3.54;}.a0dffcf6-be29-4680-b14e-02ba14922604,.a1c5a382-2230-4f51-8211-49db89a1de4d,.b2c71a57-0b31-4714-8cd3-6fb76aeec980,.ef80ad93-4e42-4fe1-85d3-29ac14043b9b{stroke-width:1.8px;}.be508343-b2a1-45f5-a804-fc9e7ec0fbfd{stroke-dasharray:2 3;}.b5207bb3-2670-42ab-ac28-07f0e7243e0c{stroke-width:3px;}</style></defs><line class="fb3957a5-04e4-4b33-af59-06b70a089e09" x1="7.43" y1="104.21" x2="19" y2="104.21"/><line class="b5ffb2ff-c1bc-4014-a0ec-70486c37a64c" x1="55.85" y1="97.68" x2="59" y2="97.68"/><line class="b94159d9-a0ea-42bf-91fa-6940ff66396f" x1="53.96" y1="97.68" x2="55.85" y2="97.68"/><polyline class="bfc5eee0-7802-407b-84f4-da28ff75eee9" points="36.48 133.26 65.53 133.26 65.53 104.21 54.1 104.21"/><line class="f1e22f80-161c-4901-ad78-cba363195f3f" x1="36.48" y1="133.26" x2="37.48" y2="133.26"/><line class="f0daeb35-7e7e-41e1-a8b5-990af4e9a778" x1="40.38" y1="133.26" x2="63.08" y2="133.26"/><polyline class="f1e22f80-161c-4901-ad78-cba363195f3f" points="64.53 133.26 65.53 133.26 65.53 132.26"/><line class="bf46ef56-70c9-4d84-a9e5-a1281be80b52" x1="65.53" y1="129.36" x2="65.53" y2="106.66"/><polyline class="f1e22f80-161c-4901-ad78-cba363195f3f" points="65.53 105.21 65.53 104.21 64.53 104.21"/><line class="ff26ef16-df3d-4486-8971-ab268ef432aa" x1="60.99" y1="104.21" x2="56.87" y2="104.21"/><line class="f1e22f80-161c-4901-ad78-cba363195f3f" x1="55.1" y1="104.21" x2="54.1" y2="104.21"/><line class="fb3957a5-04e4-4b33-af59-06b70a089e09" x1="36.48" y1="107.17" x2="36.48" y2="130.16"/><polyline class="b5ffb2ff-c1bc-4014-a0ec-70486c37a64c" points="59.24 115.31 59.24 110.5 54.43 110.5"/><polyline class="b5ffb2ff-c1bc-4014-a0ec-70486c37a64c" points="47.34 115.07 47.34 110.74 43.01 110.74"/><polyline class="b5ffb2ff-c1bc-4014-a0ec-70486c37a64c" points="59.24 126.98 59.24 122.16 54.43 122.16"/><polyline class="b5ffb2ff-c1bc-4014-a0ec-70486c37a64c" points="47.58 126.98 47.58 122.16 42.76 122.16"/><line class="b2c71a57-0b31-4714-8cd3-6fb76aeec980" x1="0.9" y1="97.68" x2="0.9" y2="126.73"/><polyline class="b2c71a57-0b31-4714-8cd3-6fb76aeec980" points="7.43 104.21 7.43 133.26 36.48 133.26"/><polyline class="b2c71a57-0b31-4714-8cd3-6fb76aeec980" points="30.2 115.31 30.2 110.5 25.38 110.5"/><polyline class="b2c71a57-0b31-4714-8cd3-6fb76aeec980" points="18.53 115.31 18.53 110.5 13.71 110.5"/><polyline class="b2c71a57-0b31-4714-8cd3-6fb76aeec980" points="30.2 126.98 30.2 122.16 25.38 122.16"/><polyline class="b2c71a57-0b31-4714-8cd3-6fb76aeec980" points="18.53 126.98 18.53 122.16 13.71 122.16"/><polyline class="a0dffcf6-be29-4680-b14e-02ba14922604" points="44.48 68.63 15.43 68.63 15.43 97.68"/><rect class="be508343-b2a1-45f5-a804-fc9e7ec0fbfd" x="75" y="170.71" width="29.05" height="29.05" transform="translate(126 274.92) rotate(180)"/><polyline class="b5ffb2ff-c1bc-4014-a0ec-70486c37a64c" points="44.72 86.26 44.72 81.45 39.9 81.45"/><polyline class="b5ffb2ff-c1bc-4014-a0ec-70486c37a64c" points="33.05 86.26 33.05 81.45 28.24 81.45"/><polyline class="b5ffb2ff-c1bc-4014-a0ec-70486c37a64c" points="44.72 97.93 44.72 93.11 39.9 93.11"/><polyline class="b5ffb2ff-c1bc-4014-a0ec-70486c37a64c" points="33.05 97.93 33.05 93.11 28.24 93.11"/><line class="a1c5a382-2230-4f51-8211-49db89a1de4d" x1="15.43" y1="97.68" x2="0.9" y2="97.68"/><rect class="b2c71a57-0b31-4714-8cd3-6fb76aeec980" x="75.83" y="96.44" width="29.05" height="29.05" transform="translate(127.67 126.39) rotate(180)"/><polyline class="a0dffcf6-be29-4680-b14e-02ba14922604" points="45.55 12 45.55 7.18 40.74 7.18"/><polyline class="a0dffcf6-be29-4680-b14e-02ba14922604" points="33.89 12 33.89 7.18 29.07 7.18"/><polyline class="a0dffcf6-be29-4680-b14e-02ba14922604" points="45.55 23.66 45.55 18.85 40.74 18.85"/><polyline class="a0dffcf6-be29-4680-b14e-02ba14922604" points="33.89 23.66 33.89 18.85 29.07 18.85"/><rect class="b2c71a57-0b31-4714-8cd3-6fb76aeec980" x="88.6" y="269.09" width="29.05" height="29.05" transform="translate(153.2 471.69) rotate(180)"/><polyline class="a0dffcf6-be29-4680-b14e-02ba14922604" points="58.32 184.65 58.32 179.83 53.5 179.83"/><polyline class="a0dffcf6-be29-4680-b14e-02ba14922604" points="46.65 184.65 46.65 179.83 41.84 179.83"/><polyline class="a0dffcf6-be29-4680-b14e-02ba14922604" points="58.32 196.31 58.32 191.5 53.5 191.5"/><polyline class="a0dffcf6-be29-4680-b14e-02ba14922604" points="46.65 196.31 46.65 191.5 41.84 191.5"/><path class="a7a5ff05-775f-4eae-bbb5-c240ca59e478" d="M79.94,229.49" transform="translate(-53.05 -95.54)"/><path class="a7a5ff05-775f-4eae-bbb5-c240ca59e478" d="M79.94,253.6" transform="translate(-53.05 -95.54)"/><path class="a1c5a382-2230-4f51-8211-49db89a1de4d" d="M71.57,238.75" transform="translate(-53.05 -95.54)"/><path class="a1c5a382-2230-4f51-8211-49db89a1de4d" d="M75,232.78" transform="translate(-53.05 -95.54)"/><path class="a1c5a382-2230-4f51-8211-49db89a1de4d" d="M78.42,238.73" transform="translate(-53.05 -95.54)"/><path class="a1c5a382-2230-4f51-8211-49db89a1de4d" d="M75,232.78" transform="translate(-53.05 -95.54)"/><line class="a1c5a382-2230-4f51-8211-49db89a1de4d" x1="50.08" y1="171.25" x2="50.08" y2="148.39"/><polygon points="54.1 151.13 50.08 136.11 46.05 151.13 54.1 151.13"/><line class="a1c5a382-2230-4f51-8211-49db89a1de4d" x1="37.31" y1="31.97" x2="37.31" y2="54.84"/><polygon points="33.29 52.09 37.31 67.12 41.34 52.09 33.29 52.09"/><line class="b5207bb3-2670-42ab-ac28-07f0e7243e0c" x1="73.71" y1="105.82" x2="127.8" y2="105.82"/><polygon points="123.23 112.53 148.27 105.81 123.23 99.1 123.23 112.53"/><line class="a1c5a382-2230-4f51-8211-49db89a1de4d" x1="194.37" y1="55.7" x2="205.94" y2="55.7"/><line class="a0dffcf6-be29-4680-b14e-02ba14922604" x1="242.79" y1="49.17" x2="245.94" y2="49.17"/><line class="ef80ad93-4e42-4fe1-85d3-29ac14043b9b" x1="240.9" y1="49.17" x2="242.79" y2="49.17"/><polyline class="ef80ad93-4e42-4fe1-85d3-29ac14043b9b" points="223.42 84.75 252.47 84.75 252.47 55.7 241.04 55.7"/><line class="a1c5a382-2230-4f51-8211-49db89a1de4d" x1="223.42" y1="58.65" x2="223.42" y2="81.65"/><polyline class="a0dffcf6-be29-4680-b14e-02ba14922604" points="246.19 66.8 246.19 61.98 241.37 61.98"/><polyline class="a0dffcf6-be29-4680-b14e-02ba14922604" points="234.28 66.56 234.28 62.22 229.95 62.22"/><polyline class="a0dffcf6-be29-4680-b14e-02ba14922604" points="246.19 78.46 246.19 73.65 241.37 73.65"/><polyline class="a0dffcf6-be29-4680-b14e-02ba14922604" points="234.52 78.46 234.52 73.65 229.71 73.65"/><line class="b2c71a57-0b31-4714-8cd3-6fb76aeec980" x1="187.84" y1="49.17" x2="187.84" y2="78.22"/><polyline class="b2c71a57-0b31-4714-8cd3-6fb76aeec980" points="194.37 55.7 194.37 84.75 223.42 84.75"/><polyline class="b2c71a57-0b31-4714-8cd3-6fb76aeec980" points="217.14 66.8 217.14 61.98 212.32 61.98"/><polyline class="b2c71a57-0b31-4714-8cd3-6fb76aeec980" points="205.47 66.8 205.47 61.98 200.66 61.98"/><polyline class="b2c71a57-0b31-4714-8cd3-6fb76aeec980" points="217.14 78.46 217.14 73.65 212.32 73.65"/><polyline class="b2c71a57-0b31-4714-8cd3-6fb76aeec980" points="205.47 78.46 205.47 73.65 200.66 73.65"/><polyline class="a0dffcf6-be29-4680-b14e-02ba14922604" points="231.42 20.12 202.37 20.12 202.37 49.17"/><rect class="b2c71a57-0b31-4714-8cd3-6fb76aeec980" x="261.94" y="122.19" width="29.05" height="29.05" transform="translate(499.89 177.89) rotate(180)"/><polyline class="a0dffcf6-be29-4680-b14e-02ba14922604" points="231.66 37.75 231.66 32.93 226.84 32.93"/><polyline class="a0dffcf6-be29-4680-b14e-02ba14922604" points="220 37.75 220 32.93 215.18 32.93"/><polyline class="a0dffcf6-be29-4680-b14e-02ba14922604" points="231.66 49.41 231.66 44.6 226.84 44.6"/><polyline class="a0dffcf6-be29-4680-b14e-02ba14922604" points="220 49.41 220 44.6 215.18 44.6"/><line class="a1c5a382-2230-4f51-8211-49db89a1de4d" x1="202.37" y1="49.17" x2="187.84" y2="49.17"/><line class="a1c5a382-2230-4f51-8211-49db89a1de4d" x1="154.8" y1="139.37" x2="166.37" y2="139.37"/><line class="a0dffcf6-be29-4680-b14e-02ba14922604" x1="203.22" y1="132.84" x2="206.37" y2="132.84"/><line class="ef80ad93-4e42-4fe1-85d3-29ac14043b9b" x1="201.33" y1="132.84" x2="203.22" y2="132.84"/><polyline class="ef80ad93-4e42-4fe1-85d3-29ac14043b9b" points="183.85 168.42 212.9 168.42 212.9 139.37 201.47 139.37"/><line class="a1c5a382-2230-4f51-8211-49db89a1de4d" x1="183.85" y1="142.33" x2="183.85" y2="165.32"/><polyline class="a0dffcf6-be29-4680-b14e-02ba14922604" points="206.62 150.47 206.62 145.66 201.8 145.66"/><polyline class="a0dffcf6-be29-4680-b14e-02ba14922604" points="194.71 150.23 194.71 145.9 190.38 145.9"/><polyline class="a0dffcf6-be29-4680-b14e-02ba14922604" points="206.62 162.14 206.62 157.32 201.8 157.32"/><polyline class="a0dffcf6-be29-4680-b14e-02ba14922604" points="194.95 162.14 194.95 157.32 190.13 157.32"/><line class="b2c71a57-0b31-4714-8cd3-6fb76aeec980" x1="148.27" y1="132.84" x2="148.27" y2="161.89"/><polyline class="b2c71a57-0b31-4714-8cd3-6fb76aeec980" points="154.8 139.37 154.8 168.42 183.85 168.42"/><polyline class="b2c71a57-0b31-4714-8cd3-6fb76aeec980" points="177.56 150.47 177.56 145.66 172.75 145.66"/><polyline class="b2c71a57-0b31-4714-8cd3-6fb76aeec980" points="165.9 150.47 165.9 145.66 161.08 145.66"/><polyline class="b2c71a57-0b31-4714-8cd3-6fb76aeec980" points="177.56 162.14 177.56 157.32 172.75 157.32"/><polyline class="b2c71a57-0b31-4714-8cd3-6fb76aeec980" points="165.9 162.14 165.9 157.32 161.08 157.32"/><polyline class="a0dffcf6-be29-4680-b14e-02ba14922604" points="191.84 103.79 162.79 103.79 162.79 132.84"/><rect class="b2c71a57-0b31-4714-8cd3-6fb76aeec980" x="222.37" y="205.87" width="29.05" height="29.05" transform="translate(420.74 345.24) rotate(180)"/><polyline class="a0dffcf6-be29-4680-b14e-02ba14922604" points="192.09 121.42 192.09 116.61 187.27 116.61"/><polyline class="a0dffcf6-be29-4680-b14e-02ba14922604" points="180.42 121.42 180.42 116.61 175.61 116.61"/><polyline class="a0dffcf6-be29-4680-b14e-02ba14922604" points="192.09 133.09 192.09 128.27 187.27 128.27"/><polyline class="a0dffcf6-be29-4680-b14e-02ba14922604" points="180.42 133.09 180.42 128.27 175.61 128.27"/><line class="a1c5a382-2230-4f51-8211-49db89a1de4d" x1="162.79" y1="132.84" x2="148.27" y2="132.84"/><line class="a1c5a382-2230-4f51-8211-49db89a1de4d" x1="242.52" y1="139.37" x2="254.09" y2="139.37"/><line class="a0dffcf6-be29-4680-b14e-02ba14922604" x1="290.94" y1="132.84" x2="294.09" y2="132.84"/><line class="ef80ad93-4e42-4fe1-85d3-29ac14043b9b" x1="289.05" y1="132.84" x2="290.94" y2="132.84"/><polyline class="ef80ad93-4e42-4fe1-85d3-29ac14043b9b" points="271.57 168.42 300.62 168.42 300.62 139.37 289.19 139.37"/><line class="a1c5a382-2230-4f51-8211-49db89a1de4d" x1="271.57" y1="142.33" x2="271.57" y2="165.32"/><polyline class="a0dffcf6-be29-4680-b14e-02ba14922604" points="294.33 150.47 294.33 145.66 289.52 145.66"/><polyline class="a0dffcf6-be29-4680-b14e-02ba14922604" points="282.43 150.23 282.43 145.9 278.09 145.9"/><polyline class="a0dffcf6-be29-4680-b14e-02ba14922604" points="294.33 162.14 294.33 157.32 289.52 157.32"/><polyline class="a0dffcf6-be29-4680-b14e-02ba14922604" points="282.67 162.14 282.67 157.32 277.85 157.32"/><line class="b2c71a57-0b31-4714-8cd3-6fb76aeec980" x1="235.99" y1="132.84" x2="235.99" y2="161.89"/><polyline class="b2c71a57-0b31-4714-8cd3-6fb76aeec980" points="242.52 139.37 242.52 168.42 271.57 168.42"/><polyline class="b2c71a57-0b31-4714-8cd3-6fb76aeec980" points="265.28 150.47 265.28 145.66 260.47 145.66"/><polyline class="b2c71a57-0b31-4714-8cd3-6fb76aeec980" points="253.62 150.47 253.62 145.66 248.8 145.66"/><polyline class="b2c71a57-0b31-4714-8cd3-6fb76aeec980" points="265.28 162.14 265.28 157.32 260.47 157.32"/><polyline class="b2c71a57-0b31-4714-8cd3-6fb76aeec980" points="253.62 162.14 253.62 157.32 248.8 157.32"/><polyline class="a0dffcf6-be29-4680-b14e-02ba14922604" points="279.56 103.79 250.51 103.79 250.51 132.84"/><rect class="b2c71a57-0b31-4714-8cd3-6fb76aeec980" x="310.09" y="205.87" width="29.05" height="29.05" transform="translate(596.18 345.24) rotate(180)"/><polyline class="a0dffcf6-be29-4680-b14e-02ba14922604" points="279.81 121.42 279.81 116.61 274.99 116.61"/><polyline class="a0dffcf6-be29-4680-b14e-02ba14922604" points="268.14 121.42 268.14 116.61 263.33 116.61"/><polyline class="a0dffcf6-be29-4680-b14e-02ba14922604" points="279.81 133.09 279.81 128.27 274.99 128.27"/><polyline class="a0dffcf6-be29-4680-b14e-02ba14922604" points="268.14 133.09 268.14 128.27 263.33 128.27"/><line class="a1c5a382-2230-4f51-8211-49db89a1de4d" x1="250.51" y1="132.84" x2="235.99" y2="132.84"/></svg>