<?xml version="1.0" encoding="UTF-8"?><svg xmlns="http://www.w3.org/2000/svg" viewBox="0 0 117.96 162.83"><defs><style>.b{fill:#bfc1c5;}.c{fill:#37f077;}.d{fill:#fff;}.e{fill:#8779a5;}.f{fill:#353669;}.g{isolation:isolate;}.h{fill:#f6f6f7;}.i{fill:#f0f0f1;}.j{fill:#22126b;}.k{fill:#cbcdd0;}.l{fill:#acdf46;}.m{fill:#d7d9db;}.n{fill:#f3f3f4;}.o{fill:#ededee;}.p{fill:#85bc2d;}.q{fill:#d1d3d6;}.r{fill:#e4e4e6;}.s{fill:#e1e1e3;}.t{fill:#bec7e6;}.u{fill:#d4d6d8;}.v{fill:#ffc64a;}.w{fill:#f9f9f9;}.x{fill:#c8cacd;}.y{fill:#dddfe1;}.a`{fill:#003078;}.aa{mix-blend-mode:color;}.ab{fill:#eaeaec;}.ac{fill:#c2c4c8;}.ad{fill:#6f69e3;}.ae{fill:#413cb0;}.af{fill:#ced0d3;}.ag{fill:#fffdfa;}.ah{mix-blend-mode:multiply;}.ai{fill:#dadcde;}.aj{fill:#e7e7e9;}.ak{fill:#c5c7cb;}.al{fill:#fcfcfc;}</style></defs><g class="g"><g id="a"><g><g><path class="l" d="M60.16,37.83S52.66,7.1,39.87,0c0,0-5.12,30.51,20.29,37.83Z"/><path class="p" d="M46.54,15.92c-1.16,14.66,14.26,22.26,14.26,22.26C68.38,11.68,39.87,0,39.87,0c0,0,7.6,4.12,6.67,15.92Z"/></g><g><path class="l" d="M60.72,37.17S96.8,21.9,102.65,3.1c0,0-38.63-2.19-41.93,34.07Z"/><path class="p" d="M84.58,14.85c-18.28,.74-24.14,23.26-24.14,23.26C94.69,44.34,102.65,3.1,102.65,3.1c0,0-3.36,11.16-18.07,11.75Z"/></g></g><g class="aa"><g><path class="c" d="M60.16,37.83S52.66,7.1,39.87,0c0,0-5.12,30.51,20.29,37.83Z"/><path class="c" d="M46.54,15.92c-1.16,14.66,14.26,22.26,14.26,22.26C68.38,11.68,39.87,0,39.87,0c0,0,7.6,4.12,6.67,15.92Z"/></g><g><path class="c" d="M60.72,37.17S96.8,21.9,102.65,3.1c0,0-38.63-2.19-41.93,34.07Z"/><path class="c" d="M84.58,14.85c-18.28,.74-24.14,23.26-24.14,23.26C94.69,44.34,102.65,3.1,102.65,3.1c0,0-3.36,11.16-18.07,11.75Z"/></g></g><g><g class="ah"><path class="d" d="M100.28,103.4c-23.26-13.03-60.61-12.39-83.41,1.44-22.8,13.82-22.44,35.6,.82,48.63,23.26,13.03,60.6,12.38,83.41-1.44,22.8-13.83,22.43-35.6-.82-48.63Z"/><path class="al" d="M100.04,103.55c-23.13-12.96-60.27-12.32-82.94,1.43-22.67,13.74-22.31,35.4,.82,48.35,23.13,12.96,60.26,12.31,82.94-1.43,22.67-13.75,22.31-35.4-.82-48.35Z"/><path class="w" d="M99.81,103.69c-23-12.88-59.93-12.25-82.47,1.42-22.54,13.66-22.19,35.19,.81,48.08,23,12.88,59.92,12.24,82.47-1.42,22.54-13.67,22.18-35.19-.81-48.08Z"/><path class="h" d="M99.58,103.83c-22.87-12.81-59.59-12.18-82,1.41-22.41,13.58-22.06,34.99,.81,47.8,22.87,12.81,59.58,12.17,82-1.41,22.41-13.59,22.05-34.99-.81-47.8Z"/><path class="n" d="M99.34,103.97c-22.74-12.73-59.24-12.11-81.53,1.4-22.28,13.51-21.93,34.79,.8,47.53,22.74,12.73,59.24,12.1,81.53-1.4,22.28-13.52,21.93-34.79-.8-47.53Z"/><path class="i" d="M99.11,104.11c-22.61-12.66-58.9-12.04-81.06,1.4-22.16,13.43-21.81,34.59,.8,47.26,22.61,12.66,58.89,12.03,81.06-1.4,22.16-13.44,21.8-34.59-.8-47.26Z"/><path class="o" d="M98.88,104.25c-22.47-12.59-58.56-11.97-80.59,1.39-22.03,13.35-21.68,34.39,.79,46.98,22.47,12.59,58.55,11.96,80.59-1.39,22.03-13.36,21.67-34.39-.8-46.98Z"/><path class="ab" d="M98.64,104.39c-22.34-12.51-58.22-11.9-80.12,1.38-21.9,13.27-21.55,34.19,.79,46.71,22.34,12.51,58.21,11.89,80.12-1.38,21.9-13.28,21.54-34.19-.79-46.71Z"/><path class="aj" d="M98.41,104.53c-22.21-12.44-57.88-11.83-79.65,1.37-21.77,13.19-21.43,33.99,.78,46.43,22.21,12.44,57.87,11.82,79.65-1.37,21.77-13.2,21.42-33.99-.79-46.43Z"/><path class="r" d="M98.18,104.67c-22.08-12.37-57.53-11.76-79.18,1.36-21.64,13.12-21.3,33.79,.78,46.16,22.08,12.37,57.53,11.75,79.18-1.36,21.64-13.13,21.29-33.79-.78-46.16Z"/><path class="s" d="M97.94,104.82c-21.95-12.29-57.19-11.69-78.7,1.36-21.51,13.04-21.17,33.59,.78,45.88,21.95,12.29,57.19,11.68,78.71-1.36,21.51-13.05,21.16-33.59-.78-45.88Z"/><path class="y" d="M97.71,104.96c-21.82-12.22-56.85-11.62-78.23,1.35-21.39,12.96-21.05,33.39,.77,45.61,21.82,12.22,56.84,11.61,78.24-1.35,21.39-12.97,21.04-33.39-.78-45.61Z"/><path class="ai" d="M97.48,105.1c-21.69-12.15-56.51-11.55-77.76,1.34-21.26,12.88-20.92,33.19,.77,45.34,21.69,12.15,56.5,11.54,77.77-1.34,21.26-12.89,20.91-33.19-.77-45.34Z"/><path class="m" d="M97.24,105.24c-21.55-12.07-56.16-11.48-77.29,1.33-21.13,12.81-20.79,32.98,.76,45.06,21.55,12.07,56.16,11.47,77.3-1.33,21.13-12.81,20.78-32.98-.77-45.06Z"/><path class="u" d="M97.01,105.38c-21.42-12-55.82-11.41-76.82,1.32-21,12.73-20.67,32.78,.76,44.79,21.42,12,55.82,11.4,76.83-1.32,21-12.74,20.66-32.78-.76-44.79Z"/><path class="q" d="M96.78,105.52c-21.29-11.92-55.48-11.34-76.35,1.32C-.44,119.49-.11,139.42,21.18,151.35c21.29,11.92,55.48,11.33,76.36-1.32,20.87-12.66,20.53-32.58-.76-44.51Z"/><path class="af" d="M96.54,105.66c-21.16-11.85-55.14-11.27-75.88,1.31C-.08,119.54,.25,139.35,21.41,151.21c21.16,11.85,55.14,11.26,75.89-1.31,20.74-12.58,20.4-32.38-.75-44.24Z"/><path class="k" d="M96.31,105.8c-21.03-11.78-54.8-11.2-75.41,1.3-20.61,12.49-20.29,32.18,.74,43.97,21.03,11.78,54.79,11.19,75.42-1.3,20.61-12.5,20.28-32.18-.75-43.97Z"/><path class="x" d="M96.08,105.94c-20.9-11.7-54.45-11.13-74.94,1.29-20.49,12.42-20.16,31.98,.74,43.69,20.9,11.7,54.45,11.12,74.95-1.29,20.49-12.42,20.15-31.98-.75-43.69Z"/><path class="ak" d="M95.84,106.09c-20.76-11.63-54.11-11.06-74.47,1.28-20.36,12.34-20.03,31.78,.73,43.42,20.77,11.63,54.11,11.05,74.48-1.28,20.36-12.35,20.02-31.78-.74-43.42Z"/><path class="ac" d="M95.61,106.23c-20.63-11.56-53.77-10.99-74,1.28-20.23,12.26-19.9,31.58,.73,43.14,20.63,11.56,53.77,10.98,74.01-1.28,20.23-12.27,19.9-31.58-.74-43.14Z"/><path class="b" d="M95.38,106.37c-20.5-11.48-53.43-10.92-73.53,1.27-20.1,12.18-19.78,31.38,.72,42.87,20.5,11.48,53.43,10.91,73.54-1.27,20.1-12.19,19.77-31.38-.73-42.87Z"/></g><g><polygon class="ad" points="10.81 98.16 42.41 115.7 99.69 82.38 68.08 64.84 10.81 98.16"/><polygon class="j" points="42.41 147.04 99.69 113.57 99.69 82.38 42.41 115.7 42.41 147.04"/><polygon class="ae" points="10.81 129.37 42.41 147.04 42.41 115.7 10.81 98.17 10.81 129.37"/><g><polygon class="t" points="92.96 87.67 92.96 107.65 97.23 105.06 97.23 85.08 94.31 86.79 92.96 87.67"/><polygon class="t" points="86.06 111.57 90.36 109.15 90.36 89.16 86.06 91.59 86.06 111.57"/><polygon class="j" points="77.82 106.96 80.75 105.25 80.75 94.68 77.82 96.39 77.82 106.96"/><polygon class="j" points="69.57 107.33 72.5 105.62 72.5 99.48 69.57 101.19 69.57 107.33"/><polygon class="t" points="61.33 112.12 64.26 110.42 64.26 104.28 61.33 105.99 61.33 112.12"/><polygon class="t" points="44.61 123.9 58.24 116.26 58.24 108.37 44.61 116.01 44.61 123.9"/></g><g><g><polygon class="v" points="48.45 127.68 73.34 142.06 103.64 124.57 78.74 110.19 48.45 127.68"/><polygon class="ae" points="48.45 143.5 73.34 157.97 73.34 142.06 48.45 127.68 48.45 143.5"/><polygon class="j" points="73.34 157.97 103.64 140.48 103.64 124.57 73.34 142.06 73.34 157.97"/></g><g><polygon class="ad" points="48.45 125.6 73.35 139.92 103.64 122.43 78.74 108.11 48.45 125.6"/><polygon class="ae" points="48.45 127.76 73.35 142.08 73.35 139.92 48.45 125.6 48.45 127.76"/><polygon class="j" points="73.35 142.08 103.64 124.59 103.64 122.43 73.35 139.92 73.35 142.08"/></g></g><g><path class="t" d="M32.88,74.34c-2.09,1.26-5.56,1.3-7.74,.08-1.16-.65-1.73-1.53-1.68-2.4l-.12,2.11c-.05,.88,.53,1.78,1.72,2.44,2.22,1.24,5.76,1.2,7.89-.08,1.08-.65,1.59-1.49,1.55-2.33-.04-.7-.07-1.41-.1-2.11,.04,.82-.46,1.65-1.52,2.28Z"/><path class="j" d="M32.96,76.5c-2.13,1.28-5.67,1.32-7.89,.08-1.19-.66-1.77-1.56-1.72-2.44-.46,8.25-.92,16.5-1.38,24.75-.06,1.09,.65,2.2,2.12,3.01,2.75,1.53,7.11,1.49,9.75-.1,1.33-.8,1.97-1.84,1.92-2.87-.41-8.25-.82-16.51-1.24-24.76,.04,.84-.47,1.68-1.55,2.33Z"/><path class="f" d="M32.74,70.24c-2.01,1.21-5.34,1.24-7.44,.07-1.12-.62-1.66-1.47-1.62-2.3l-.22,4.01c-.05,.87,.52,1.74,1.68,2.4,2.18,1.22,5.65,1.18,7.74-.08,1.06-.64,1.56-1.46,1.52-2.28-.07-1.34-.13-2.67-.2-4.01,.04,.79-.44,1.58-1.46,2.2Z"/><path class="t" d="M32.66,67.75c-1.96,1.18-5.21,1.21-7.26,.07-1.09-.61-1.62-1.43-1.57-2.25l-.14,2.44c-.05,.83,.49,1.68,1.62,2.3,2.1,1.17,5.43,1.14,7.44-.07,1.02-.61,1.51-1.41,1.46-2.2l-.12-2.44c.04,.77-.44,1.54-1.43,2.14Z"/><path class="f" d="M24.15,58.88c-.11,2.13-.22,4.27-.32,6.4-.05,.89,.48,1.79,1.57,2.46,2.05,1.25,5.29,1.22,7.26-.08,.99-.66,1.46-1.51,1.43-2.35-.1-2.14-.19-4.27-.29-6.4,.04,.79-9.68,.81-9.64-.03Z"/><path class="t" d="M32.3,57.15c-1.92-1.07-4.96-1.04-6.8,.07-1.84,1.11-1.77,2.87,.14,3.94,1.92,1.07,4.96,1.04,6.8-.07,1.84-1.11,1.77-2.87-.14-3.94Z"/><path class="j" d="M31.43,57.68c-1.42-.79-3.66-.77-5.02,.05-1.35,.82-1.31,2.12,.1,2.91,1.41,.79,3.66,.76,5.02-.05,1.36-.82,1.31-2.12-.1-2.91Z"/></g><g><path class="t" d="M85.05,67.57c-1.39,.84-3.69,.86-5.13,.05-.77-.43-1.15-1.01-1.12-1.59l-.08,1.4c-.03,.59,.35,1.18,1.14,1.62,1.47,.82,3.82,.8,5.24-.05,.71-.43,1.06-.99,1.03-1.55-.02-.47-.05-.93-.07-1.4,.03,.54-.31,1.09-1.01,1.51Z"/><path class="ae" d="M85.1,69c-1.42,.85-3.76,.88-5.24,.05-.79-.44-1.17-1.03-1.14-1.62-.3,5.47-.61,10.95-.91,16.42-.04,.72,.43,1.46,1.4,2,1.82,1.02,4.72,.99,6.47-.07,.88-.53,1.3-1.22,1.27-1.91-.28-5.48-.55-10.95-.82-16.43,.02,.55-.32,1.11-1.03,1.55Z"/><path class="ae" d="M84.96,64.85c-1.33,.8-3.54,.83-4.93,.05-.74-.41-1.1-.97-1.07-1.53l-.15,2.66c-.03,.57,.34,1.16,1.12,1.59,1.45,.8,3.74,.78,5.13-.05,.7-.42,1.03-.97,1.01-1.51-.04-.89-.09-1.77-.13-2.66,.02,.52-.3,1.05-.97,1.46Z"/><path class="t" d="M84.9,63.2c-1.3,.78-3.46,.8-4.81,.05-.73-.4-1.08-.95-1.05-1.49l-.09,1.62c-.03,.55,.33,1.11,1.07,1.53,1.39,.78,3.6,.75,4.93-.05,.68-.41,1-.93,.97-1.46l-.08-1.62c.03,.51-.29,1.03-.95,1.42Z"/><path class="ae" d="M85.49,57.4c-.85,.35-5.11,.36-6.04,0h-.2c-.07,1.38-.14,2.76-.21,4.13-.03,.6,.32,1.2,1.05,1.65,1.36,.84,3.51,.81,4.81-.05,.66-.44,.97-1.01,.95-1.57-.06-1.39-.13-2.77-.19-4.15h-.17Z"/><path class="t" d="M84.66,56.16c-1.27-.71-3.29-.69-4.51,.04-1.22,.73-1.18,1.91,.09,2.61,1.27,.71,3.29,.69,4.51-.05,1.22-.73,1.18-1.9-.1-2.61Z"/><path class="j" d="M84.09,56.61c-.94-.47-2.43-.45-3.33,.03-.9,.49-.87,1.26,.07,1.73,.94,.47,2.43,.45,3.33-.03,.9-.49,.87-1.26-.07-1.73Z"/></g><g><path class="e" d="M64.11,57.74c-1.93,1.16-5.13,1.19-7.14,.07-1.06-.59-1.58-1.38-1.55-2.17l-1.93,39.75c-.04,1.06,.67,2.13,2.09,2.92,2.71,1.51,7.02,1.47,9.62-.1,1.29-.78,1.92-1.78,1.89-2.78l-1.58-39.76c.02,.74-.45,1.49-1.41,2.07Z"/><path class="ag" d="M64.01,52.41c-1.87,1.13-4.98,1.16-6.93,.07-1.03-.57-1.53-1.34-1.5-2.1-.05,1.75-.11,3.51-.16,5.26-.03,.79,.49,1.58,1.55,2.17,2.01,1.12,5.21,1.09,7.15-.07,.96-.58,1.42-1.32,1.4-2.07-.04-1.76-.09-3.51-.13-5.27,.02,.72-.43,1.44-1.36,2.01Z"/><path class="e" d="M63.93,47.44c-1.82,1.1-4.84,1.13-6.73,.07-1-.56-1.49-1.3-1.47-2.04-.02,.41-.03,.82-.04,1.23l-.04,1.23c-.03,.82-.05,1.64-.08,2.46-.02,.76,.48,1.53,1.5,2.1,1.95,1.09,5.06,1.06,6.93-.07,.93-.56,1.38-1.28,1.36-2.01-.04-1.64-.08-3.28-.12-4.92,.02,.7-.43,1.4-1.33,1.95Z"/><path class="j" d="M64.11,57.74c-1.93,1.16-5.13,1.19-7.14,.07-1.06-.59-1.58-1.38-1.55-2.17l-1.93,39.75c-.04,1.06,.67,2.13,2.09,2.92,2.71,1.51,7.02,1.47,9.62-.1,1.29-.78,1.92-1.78,1.89-2.78l-1.58-39.76c.02,.74-.45,1.49-1.41,2.07Z"/><path class="t" d="M64.01,52.41c-1.87,1.13-4.98,1.16-6.93,.07-1.03-.57-1.53-1.34-1.5-2.1-.05,1.75-.11,3.51-.16,5.26-.03,.79,.49,1.58,1.55,2.17,2.01,1.12,5.21,1.09,7.15-.07,.96-.58,1.42-1.32,1.4-2.07-.04-1.76-.09-3.51-.13-5.27,.02,.72-.43,1.44-1.36,2.01Z"/><path class="j" d="M63.93,47.44c-1.82,1.1-4.84,1.13-6.73,.07-1-.56-1.49-1.3-1.47-2.04-.02,.41-.03,.82-.04,1.23l-.04,1.23c-.03,.82-.05,1.64-.08,2.46-.02,.76,.48,1.53,1.5,2.1,1.95,1.09,5.06,1.06,6.93-.07,.93-.56,1.38-1.28,1.36-2.01-.04-1.64-.08-3.28-.12-4.92,.02,.7-.43,1.4-1.33,1.95Z"/><path class="t" d="M63.79,43.54c-1.89-1.06-4.91-1.03-6.73,.07-1.82,1.1-1.76,2.84,.14,3.9,1.89,1.06,4.91,1.03,6.73-.07,1.82-1.1,1.76-2.84-.14-3.9Z"/><path class="j" d="M63.37,43.88c-1.66-.88-4.29-.85-5.89,.05-1.59,.91-1.53,2.36,.13,3.23,1.66,.88,4.29,.85,5.89-.06,1.59-.91,1.53-2.36-.13-3.23Z"/></g><g><path class="t" d="M80.55,96.12c-2.34,1.41-6.22,1.45-8.67,.09-1.3-.73-1.94-1.71-1.88-2.68l-.13,2.36c-.06,.99,.59,1.99,1.92,2.74,2.49,1.39,6.45,1.35,8.84-.09,1.21-.73,1.79-1.67,1.74-2.61-.04-.79-.08-1.57-.12-2.36,.05,.92-.52,1.85-1.7,2.56Z"/><path class="ae" d="M80.64,98.54c-2.39,1.44-6.35,1.48-8.84,.09-1.33-.74-1.98-1.74-1.92-2.74-.52,9.24-1.03,18.48-1.55,27.72-.07,1.22,.73,2.46,2.37,3.38,3.08,1.71,7.96,1.67,10.91-.11,1.49-.9,2.2-2.06,2.15-3.22-.46-9.24-.92-18.49-1.39-27.73,.05,.94-.53,1.88-1.74,2.61Z"/><path class="ae" d="M80.4,91.54c-2.25,1.36-5.98,1.39-8.33,.09-1.25-.7-1.86-1.65-1.81-2.58l-.25,4.49c-.05,.97,.58,1.95,1.88,2.68,2.44,1.36,6.32,1.32,8.67-.09,1.18-.71,1.75-1.64,1.7-2.56-.07-1.5-.15-2.99-.22-4.49,.04,.88-.5,1.77-1.64,2.46Z"/><path class="t" d="M80.3,88.74c-2.2,1.32-5.84,1.36-8.13,.08-1.22-.68-1.82-1.6-1.77-2.51l-.15,2.73c-.05,.93,.56,1.88,1.81,2.58,2.35,1.31,6.08,1.27,8.33-.09,1.14-.68,1.68-1.58,1.64-2.46l-.14-2.73c.04,.86-.49,1.73-1.6,2.4Z"/><path class="ae" d="M70.77,78.87c-.12,2.38-.24,4.75-.36,7.13-.05,1,.54,2,1.77,2.74,2.29,1.39,5.93,1.35,8.13-.09,1.11-.73,1.64-1.68,1.6-2.62-.11-2.38-.22-4.75-.33-7.13,.04,.88-10.85,.9-10.8-.04Z"/><path class="t" d="M79.9,76.88c-2.15-1.2-5.55-1.16-7.61,.07-2.06,1.24-1.99,3.22,.16,4.41,2.15,1.2,5.56,1.16,7.62-.08,2.06-1.24,1.99-3.21-.16-4.41Z"/><path class="j" d="M78.92,77.46c-1.58-.88-4.1-.86-5.62,.06s-1.47,2.37,.12,3.26c1.58,.88,4.1,.86,5.62-.06,1.52-.91,1.47-2.37-.12-3.26Z"/></g><g><path class="t" d="M42.92,43.1c-1.67-.93-4.32-.91-5.92,.06-1.6,.96-1.55,2.5,.12,3.43,1.67,.93,4.32,.91,5.93-.06,1.6-.97,1.55-2.5-.12-3.43Z"/><path class="j" d="M42.41,43.49c-1.37-.72-3.56-.7-4.87,.05-1.32,.74-1.27,1.93,.1,2.65,1.37,.72,3.55,.7,4.87-.04,1.32-.75,1.27-1.93-.1-2.65Z"/><path class="ae" d="M43.04,46.53c-1.6,.96-4.25,.99-5.93,.06-.88-.49-1.31-1.15-1.29-1.8l-1.98,60.79c-.03,1.06,.59,2.11,1.84,2.9,2.39,1.5,6.18,1.46,8.47-.1,1.14-.77,1.69-1.77,1.67-2.77,0,0-1.58-59.48-1.62-60.8,.02,.61-.37,1.23-1.17,1.71Z"/></g></g><g class="aa"><path class="a`" d="M100.28,103.4c-23.26-13.03-60.61-12.39-83.41,1.44-22.8,13.82-22.44,35.6,.82,48.63,23.26,13.03,60.6,12.38,83.41-1.44,22.8-13.83,22.43-35.6-.82-48.63Z"/><path class="a`" d="M100.04,103.55c-23.13-12.96-60.27-12.32-82.94,1.43-22.67,13.74-22.31,35.4,.82,48.35,23.13,12.96,60.26,12.31,82.94-1.43,22.67-13.75,22.31-35.4-.82-48.35Z"/><path class="a`" d="M99.81,103.69c-23-12.88-59.93-12.25-82.47,1.42-22.54,13.66-22.19,35.19,.81,48.08,23,12.88,59.92,12.24,82.47-1.42,22.54-13.67,22.18-35.19-.81-48.08Z"/><path class="a`" d="M99.58,103.83c-22.87-12.81-59.59-12.18-82,1.41-22.41,13.58-22.06,34.99,.81,47.8,22.87,12.81,59.58,12.17,82-1.41,22.41-13.59,22.05-34.99-.81-47.8Z"/><path class="a`" d="M99.34,103.97c-22.74-12.73-59.24-12.11-81.53,1.4-22.28,13.51-21.93,34.79,.8,47.53,22.74,12.73,59.24,12.1,81.53-1.4,22.28-13.52,21.93-34.79-.8-47.53Z"/><path class="a`" d="M99.11,104.11c-22.61-12.66-58.9-12.04-81.06,1.4-22.16,13.43-21.81,34.59,.8,47.26,22.61,12.66,58.89,12.03,81.06-1.4,22.16-13.44,21.8-34.59-.8-47.26Z"/><path class="a`" d="M98.88,104.25c-22.47-12.59-58.56-11.97-80.59,1.39-22.03,13.35-21.68,34.39,.79,46.98,22.47,12.59,58.55,11.96,80.59-1.39,22.03-13.36,21.67-34.39-.8-46.98Z"/><path class="a`" d="M98.64,104.39c-22.34-12.51-58.22-11.9-80.12,1.38-21.9,13.27-21.55,34.19,.79,46.71,22.34,12.51,58.21,11.89,80.12-1.38,21.9-13.28,21.54-34.19-.79-46.71Z"/><path class="a`" d="M98.41,104.53c-22.21-12.44-57.88-11.83-79.65,1.37-21.77,13.19-21.43,33.99,.78,46.43,22.21,12.44,57.87,11.82,79.65-1.37,21.77-13.2,21.42-33.99-.79-46.43Z"/><path class="a`" d="M98.18,104.67c-22.08-12.37-57.53-11.76-79.18,1.36-21.64,13.12-21.3,33.79,.78,46.16,22.08,12.37,57.53,11.75,79.18-1.36,21.64-13.13,21.29-33.79-.78-46.16Z"/><path class="a`" d="M97.94,104.82c-21.95-12.29-57.19-11.69-78.7,1.36-21.51,13.04-21.17,33.59,.78,45.88,21.95,12.29,57.19,11.68,78.71-1.36,21.51-13.05,21.16-33.59-.78-45.88Z"/><path class="a`" d="M97.71,104.96c-21.82-12.22-56.85-11.62-78.23,1.35-21.39,12.96-21.05,33.39,.77,45.61,21.82,12.22,56.84,11.61,78.24-1.35,21.39-12.97,21.04-33.39-.78-45.61Z"/><path class="a`" d="M97.48,105.1c-21.69-12.15-56.51-11.55-77.76,1.34-21.26,12.88-20.92,33.19,.77,45.34,21.69,12.15,56.5,11.54,77.77-1.34,21.26-12.89,20.91-33.19-.77-45.34Z"/><path class="a`" d="M97.24,105.24c-21.55-12.07-56.16-11.48-77.29,1.33-21.13,12.81-20.79,32.98,.76,45.06,21.55,12.07,56.16,11.47,77.3-1.33,21.13-12.81,20.78-32.98-.77-45.06Z"/><path class="a`" d="M97.01,105.38c-21.42-12-55.82-11.41-76.82,1.32-21,12.73-20.67,32.78,.76,44.79,21.42,12,55.82,11.4,76.83-1.32,21-12.74,20.66-32.78-.76-44.79Z"/><path class="a`" d="M96.78,105.52c-21.29-11.92-55.48-11.34-76.35,1.32C-.44,119.49-.11,139.42,21.18,151.35c21.29,11.92,55.48,11.33,76.36-1.32,20.87-12.66,20.53-32.58-.76-44.51Z"/><path class="a`" d="M96.54,105.66c-21.16-11.85-55.14-11.27-75.88,1.31C-.08,119.54,.25,139.35,21.41,151.21c21.16,11.85,55.14,11.26,75.89-1.31,20.74-12.58,20.4-32.38-.75-44.24Z"/><path class="a`" d="M96.31,105.8c-21.03-11.78-54.8-11.2-75.41,1.3-20.61,12.49-20.29,32.18,.74,43.97,21.03,11.78,54.79,11.19,75.42-1.3,20.61-12.5,20.28-32.18-.75-43.97Z"/><path class="a`" d="M96.08,105.94c-20.9-11.7-54.45-11.13-74.94,1.29-20.49,12.42-20.16,31.98,.74,43.69,20.9,11.7,54.45,11.12,74.95-1.29,20.49-12.42,20.15-31.98-.75-43.69Z"/><path class="a`" d="M95.84,106.09c-20.76-11.63-54.11-11.06-74.47,1.28-20.36,12.34-20.03,31.78,.73,43.42,20.77,11.63,54.11,11.05,74.48-1.28,20.36-12.35,20.02-31.78-.74-43.42Z"/><path class="a`" d="M95.61,106.23c-20.63-11.56-53.77-10.99-74,1.28-20.23,12.26-19.9,31.58,.73,43.14,20.63,11.56,53.77,10.98,74.01-1.28,20.23-12.27,19.9-31.58-.74-43.14Z"/><path class="a`" d="M95.38,106.37c-20.5-11.48-53.43-10.92-73.53,1.27-20.1,12.18-19.78,31.38,.72,42.87,20.5,11.48,53.43,10.91,73.54-1.27,20.1-12.19,19.77-31.38-.73-42.87Z"/></g><g class="aa"><polygon class="a`" points="10.81 98.16 42.41 115.7 99.69 82.38 68.08 64.84 10.81 98.16"/><polygon class="a`" points="42.41 147.04 99.69 113.57 99.69 82.38 42.41 115.7 42.41 147.04"/><polygon class="a`" points="10.81 129.37 42.41 147.04 42.41 115.7 10.81 98.17 10.81 129.37"/><g><polygon class="a`" points="92.96 87.67 92.96 107.65 97.23 105.06 97.23 85.08 94.31 86.79 92.96 87.67"/><polygon class="a`" points="86.06 111.57 90.36 109.15 90.36 89.16 86.06 91.59 86.06 111.57"/><polygon class="a`" points="77.82 106.96 80.75 105.25 80.75 94.68 77.82 96.39 77.82 106.96"/><polygon class="a`" points="69.57 107.33 72.5 105.62 72.5 99.48 69.57 101.19 69.57 107.33"/><polygon class="a`" points="61.33 112.12 64.26 110.42 64.26 104.28 61.33 105.99 61.33 112.12"/><polygon class="a`" points="44.61 123.9 58.24 116.26 58.24 108.37 44.61 116.01 44.61 123.9"/></g><g><g><polygon class="a`" points="48.45 127.68 73.34 142.06 103.64 124.57 78.74 110.19 48.45 127.68"/><polygon class="a`" points="48.45 143.5 73.34 157.97 73.34 142.06 48.45 127.68 48.45 143.5"/><polygon class="a`" points="73.34 157.97 103.64 140.48 103.64 124.57 73.34 142.06 73.34 157.97"/></g><g><polygon class="a`" points="48.45 125.6 73.35 139.92 103.64 122.43 78.74 108.11 48.45 125.6"/><polygon class="a`" points="48.45 127.76 73.35 142.08 73.35 139.92 48.45 125.6 48.45 127.76"/><polygon class="a`" points="73.35 142.08 103.64 124.59 103.64 122.43 73.35 139.92 73.35 142.08"/></g></g><g><path class="a`" d="M32.88,74.34c-2.09,1.26-5.56,1.3-7.74,.08-1.16-.65-1.73-1.53-1.68-2.4l-.12,2.11c-.05,.88,.53,1.78,1.72,2.44,2.22,1.24,5.76,1.2,7.89-.08,1.08-.65,1.59-1.49,1.55-2.33-.04-.7-.07-1.41-.1-2.11,.04,.82-.46,1.65-1.52,2.28Z"/><path class="a`" d="M32.96,76.5c-2.13,1.28-5.67,1.32-7.89,.08-1.19-.66-1.77-1.56-1.72-2.44-.46,8.25-.92,16.5-1.38,24.75-.06,1.09,.65,2.2,2.12,3.01,2.75,1.53,7.11,1.49,9.75-.1,1.33-.8,1.97-1.84,1.92-2.87-.41-8.25-.82-16.51-1.24-24.76,.04,.84-.47,1.68-1.55,2.33Z"/><path class="a`" d="M32.74,70.24c-2.01,1.21-5.34,1.24-7.44,.07-1.12-.62-1.66-1.47-1.62-2.3l-.22,4.01c-.05,.87,.52,1.74,1.68,2.4,2.18,1.22,5.65,1.18,7.74-.08,1.06-.64,1.56-1.46,1.52-2.28-.07-1.34-.13-2.67-.2-4.01,.04,.79-.44,1.58-1.46,2.2Z"/><path class="a`" d="M32.66,67.75c-1.96,1.18-5.21,1.21-7.26,.07-1.09-.61-1.62-1.43-1.57-2.25l-.14,2.44c-.05,.83,.49,1.68,1.62,2.3,2.1,1.17,5.43,1.14,7.44-.07,1.02-.61,1.51-1.41,1.46-2.2l-.12-2.44c.04,.77-.44,1.54-1.43,2.14Z"/><path class="a`" d="M24.15,58.88c-.11,2.13-.22,4.27-.32,6.4-.05,.89,.48,1.79,1.57,2.46,2.05,1.25,5.29,1.22,7.26-.08,.99-.66,1.46-1.51,1.43-2.35-.1-2.14-.19-4.27-.29-6.4,.04,.79-9.68,.81-9.64-.03Z"/><path class="a`" d="M32.3,57.15c-1.92-1.07-4.96-1.04-6.8,.07-1.84,1.11-1.77,2.87,.14,3.94,1.92,1.07,4.96,1.04,6.8-.07,1.84-1.11,1.77-2.87-.14-3.94Z"/><path class="a`" d="M31.43,57.68c-1.42-.79-3.66-.77-5.02,.05-1.35,.82-1.31,2.12,.1,2.91,1.41,.79,3.66,.76,5.02-.05,1.36-.82,1.31-2.12-.1-2.91Z"/></g><g><path class="a`" d="M85.05,67.57c-1.39,.84-3.69,.86-5.13,.05-.77-.43-1.15-1.01-1.12-1.59l-.08,1.4c-.03,.59,.35,1.18,1.14,1.62,1.47,.82,3.82,.8,5.24-.05,.71-.43,1.06-.99,1.03-1.55-.02-.47-.05-.93-.07-1.4,.03,.54-.31,1.09-1.01,1.51Z"/><path class="a`" d="M85.1,69c-1.42,.85-3.76,.88-5.24,.05-.79-.44-1.17-1.03-1.14-1.62-.3,5.47-.61,10.95-.91,16.42-.04,.72,.43,1.46,1.4,2,1.82,1.02,4.72,.99,6.47-.07,.88-.53,1.3-1.22,1.27-1.91-.28-5.48-.55-10.95-.82-16.43,.02,.55-.32,1.11-1.03,1.55Z"/><path class="a`" d="M84.96,64.85c-1.33,.8-3.54,.83-4.93,.05-.74-.41-1.1-.97-1.07-1.53l-.15,2.66c-.03,.57,.34,1.16,1.12,1.59,1.45,.8,3.74,.78,5.13-.05,.7-.42,1.03-.97,1.01-1.51-.04-.89-.09-1.77-.13-2.66,.02,.52-.3,1.05-.97,1.46Z"/><path class="a`" d="M84.9,63.2c-1.3,.78-3.46,.8-4.81,.05-.73-.4-1.08-.95-1.05-1.49l-.09,1.62c-.03,.55,.33,1.11,1.07,1.53,1.39,.78,3.6,.75,4.93-.05,.68-.41,1-.93,.97-1.46l-.08-1.62c.03,.51-.29,1.03-.95,1.42Z"/><path class="a`" d="M85.49,57.4c-.85,.35-5.11,.36-6.04,0h-.2c-.07,1.38-.14,2.76-.21,4.13-.03,.6,.32,1.2,1.05,1.65,1.36,.84,3.51,.81,4.81-.05,.66-.44,.97-1.01,.95-1.57-.06-1.39-.13-2.77-.19-4.15h-.17Z"/><path class="a`" d="M84.66,56.16c-1.27-.71-3.29-.69-4.51,.04-1.22,.73-1.18,1.91,.09,2.61,1.27,.71,3.29,.69,4.51-.05,1.22-.73,1.18-1.9-.1-2.61Z"/><path class="a`" d="M84.09,56.61c-.94-.47-2.43-.45-3.33,.03-.9,.49-.87,1.26,.07,1.73,.94,.47,2.43,.45,3.33-.03,.9-.49,.87-1.26-.07-1.73Z"/></g><g><path class="a`" d="M64.11,57.74c-1.93,1.16-5.13,1.19-7.14,.07-1.06-.59-1.58-1.38-1.55-2.17l-1.93,39.75c-.04,1.06,.67,2.13,2.09,2.92,2.71,1.51,7.02,1.47,9.62-.1,1.29-.78,1.92-1.78,1.89-2.78l-1.58-39.76c.02,.74-.45,1.49-1.41,2.07Z"/><path class="a`" d="M64.01,52.41c-1.87,1.13-4.98,1.16-6.93,.07-1.03-.57-1.53-1.34-1.5-2.1-.05,1.75-.11,3.51-.16,5.26-.03,.79,.49,1.58,1.55,2.17,2.01,1.12,5.21,1.09,7.15-.07,.96-.58,1.42-1.32,1.4-2.07-.04-1.76-.09-3.51-.13-5.27,.02,.72-.43,1.44-1.36,2.01Z"/><path class="a`" d="M63.93,47.44c-1.82,1.1-4.84,1.13-6.73,.07-1-.56-1.49-1.3-1.47-2.04-.02,.41-.03,.82-.04,1.23l-.04,1.23c-.03,.82-.05,1.64-.08,2.46-.02,.76,.48,1.53,1.5,2.1,1.95,1.09,5.06,1.06,6.93-.07,.93-.56,1.38-1.28,1.36-2.01-.04-1.64-.08-3.28-.12-4.92,.02,.7-.43,1.4-1.33,1.95Z"/><path class="a`" d="M64.11,57.74c-1.93,1.16-5.13,1.19-7.14,.07-1.06-.59-1.58-1.38-1.55-2.17l-1.93,39.75c-.04,1.06,.67,2.13,2.09,2.92,2.71,1.51,7.02,1.47,9.62-.1,1.29-.78,1.92-1.78,1.89-2.78l-1.58-39.76c.02,.74-.45,1.49-1.41,2.07Z"/><path class="a`" d="M64.01,52.41c-1.87,1.13-4.98,1.16-6.93,.07-1.03-.57-1.53-1.34-1.5-2.1-.05,1.75-.11,3.51-.16,5.26-.03,.79,.49,1.58,1.55,2.17,2.01,1.12,5.21,1.09,7.15-.07,.96-.58,1.42-1.32,1.4-2.07-.04-1.76-.09-3.51-.13-5.27,.02,.72-.43,1.44-1.36,2.01Z"/><path class="a`" d="M63.93,47.44c-1.82,1.1-4.84,1.13-6.73,.07-1-.56-1.49-1.3-1.47-2.04-.02,.41-.03,.82-.04,1.23l-.04,1.23c-.03,.82-.05,1.64-.08,2.46-.02,.76,.48,1.53,1.5,2.1,1.95,1.09,5.06,1.06,6.93-.07,.93-.56,1.38-1.28,1.36-2.01-.04-1.64-.08-3.28-.12-4.92,.02,.7-.43,1.4-1.33,1.95Z"/><path class="a`" d="M63.79,43.54c-1.89-1.06-4.91-1.03-6.73,.07-1.82,1.1-1.76,2.84,.14,3.9,1.89,1.06,4.91,1.03,6.73-.07,1.82-1.1,1.76-2.84-.14-3.9Z"/><path class="a`" d="M63.37,43.88c-1.66-.88-4.29-.85-5.89,.05-1.59,.91-1.53,2.36,.13,3.23,1.66,.88,4.29,.85,5.89-.06,1.59-.91,1.53-2.36-.13-3.23Z"/></g><g><path class="a`" d="M80.55,96.12c-2.34,1.41-6.22,1.45-8.67,.09-1.3-.73-1.94-1.71-1.88-2.68l-.13,2.36c-.06,.99,.59,1.99,1.92,2.74,2.49,1.39,6.45,1.35,8.84-.09,1.21-.73,1.79-1.67,1.74-2.61-.04-.79-.08-1.57-.12-2.36,.05,.92-.52,1.85-1.7,2.56Z"/><path class="a`" d="M80.64,98.54c-2.39,1.44-6.35,1.48-8.84,.09-1.33-.74-1.98-1.74-1.92-2.74-.52,9.24-1.03,18.48-1.55,27.72-.07,1.22,.73,2.46,2.37,3.38,3.08,1.71,7.96,1.67,10.91-.11,1.49-.9,2.2-2.06,2.15-3.22-.46-9.24-.92-18.49-1.39-27.73,.05,.94-.53,1.88-1.74,2.61Z"/><path class="a`" d="M80.4,91.54c-2.25,1.36-5.98,1.39-8.33,.09-1.25-.7-1.86-1.65-1.81-2.58l-.25,4.49c-.05,.97,.58,1.95,1.88,2.68,2.44,1.36,6.32,1.32,8.67-.09,1.18-.71,1.75-1.64,1.7-2.56-.07-1.5-.15-2.99-.22-4.49,.04,.88-.5,1.77-1.64,2.46Z"/><path class="a`" d="M80.3,88.74c-2.2,1.32-5.84,1.36-8.13,.08-1.22-.68-1.82-1.6-1.77-2.51l-.15,2.73c-.05,.93,.56,1.88,1.81,2.58,2.35,1.31,6.08,1.27,8.33-.09,1.14-.68,1.68-1.58,1.64-2.46l-.14-2.73c.04,.86-.49,1.73-1.6,2.4Z"/><path class="a`" d="M70.77,78.87c-.12,2.38-.24,4.75-.36,7.13-.05,1,.54,2,1.77,2.74,2.29,1.39,5.93,1.35,8.13-.09,1.11-.73,1.64-1.68,1.6-2.62-.11-2.38-.22-4.75-.33-7.13,.04,.88-10.85,.9-10.8-.04Z"/><path class="a`" d="M79.9,76.88c-2.15-1.2-5.55-1.16-7.61,.07-2.06,1.24-1.99,3.22,.16,4.41,2.15,1.2,5.56,1.16,7.62-.08,2.06-1.24,1.99-3.21-.16-4.41Z"/><path class="a`" d="M78.92,77.46c-1.58-.88-4.1-.86-5.62,.06s-1.47,2.37,.12,3.26c1.58,.88,4.1,.86,5.62-.06,1.52-.91,1.47-2.37-.12-3.26Z"/></g><g><path class="a`" d="M42.92,43.1c-1.67-.93-4.32-.91-5.92,.06-1.6,.96-1.55,2.5,.12,3.43,1.67,.93,4.32,.91,5.93-.06,1.6-.97,1.55-2.5-.12-3.43Z"/><path class="a`" d="M42.41,43.49c-1.37-.72-3.56-.7-4.87,.05-1.32,.74-1.27,1.93,.1,2.65,1.37,.72,3.55,.7,4.87-.04,1.32-.75,1.27-1.93-.1-2.65Z"/><path class="a`" d="M43.04,46.53c-1.6,.96-4.25,.99-5.93,.06-.88-.49-1.31-1.15-1.29-1.8l-1.98,60.79c-.03,1.06,.59,2.11,1.84,2.9,2.39,1.5,6.18,1.46,8.47-.1,1.14-.77,1.69-1.77,1.67-2.77,0,0-1.58-59.48-1.62-60.8,.02,.61-.37,1.23-1.17,1.71Z"/></g></g></g></g></g></svg>