<?xml version="1.0" encoding="UTF-8"?><svg xmlns="http://www.w3.org/2000/svg" xmlns:xlink="http://www.w3.org/1999/xlink" viewBox="0 0 130.15 162.33"><defs><style>.s{fill:#f9d253;}.t{fill:#f8ce44;}.u{fill:#bfc1c5;}.v{fill:#f8ca32;}.w{fill:#f8cf47;}.x{fill:#37f077;}.y{fill:#fff;}.a`{fill:#f8d252;}.aa{fill:#f8cc3a;}.ab{fill:#f7c41e;}.ac{fill:#feb732;}.ad{fill:url(#r);}.ae{fill:#429754;}.af{fill:#f7c82d;}.ag{fill:#f8cb36;}.ah{fill:#f8cb37;}.ai,.aj{opacity:.2;}.ai,.ak,.al{fill:#0049b9;}.am{fill:url(#l);}.an{fill:#f9d55d;}.ao{fill:#f7c727;}.ap{fill:#f6bd05;}.aq{fill:#f6bd04;}.ar{fill:#f7c41f;}.as{fill:#f9d55c;}.at{fill:url(#c);}.au{fill:#f7c31b;}.av{fill:#f6be06;}.aw{isolation:isolate;}.ax{fill:#f8c92f;}.ay{fill:#b3b3b3;}.ay,.al{mix-blend-mode:overlay;}.b`{fill:#f8cd3f;}.ba{fill:#f8cd40;}.bb{fill:#f7c522;}.bc{fill:#f6f6f7;}.bd{fill:#f8ca34;}.be{fill:#f7c114;}.bf{fill:#f8d04c;}.bg{fill:url(#m);}.bh{fill:#f0f0f1;}.bi{fill:#f6be08;}.bj{fill:#f8cf46;}.bk{fill:#f6bf0a;}.bl,.aj{fill:#22126b;}.bm{fill:#f7c31a;}.bn{fill:#cbcdd0;}.bo{fill:#f9d355;}.bp{fill:#f8d14f;}.bq{fill:#f9d764;}.br{fill:#f7c729;}.bs{fill:#f7c72a;}.bt{fill:#f6bf0d;}.bu{fill:#f7c218;}.bv{fill:url(#f);}.bw{fill:#9691e3;}.bx{fill:#f8d251;}.by{fill:#f7c82c;}.c`{fill:#f9d252;}.ca{fill:#f6bc00;}.cb{fill:#ccdbe7;}.cc{fill:#f8d150;}.cd{fill:#d7d9db;}.ce{fill:#f8ce42;}.cf{fill:#f3f3f4;}.cg{fill:#f6bc01;}.ch{fill:#f9d661;}.ci{fill:#f7c624;}.cj{fill:url(#p);}.ck{fill:#f7c520;}.cl{fill:#f7c82b;}.cm{fill:#f8cb38;}.cn{fill:#f9d45b;}.co{fill:#ededee;}.cp{fill:#f8d04b;}.cq{fill:url(#g);}.cr{fill:#9dc0cc;}.cs{fill:#f8cb39;}.ct{fill:#f8ce43;}.cu{fill:#f8d04a;}.cv{fill:#f7c728;}.cw{fill:#d1d3d6;}.cx{fill:#f8cc3c;}.cy{fill:#e4e4e6;}.d`{fill:#e1e1e3;}.da{fill:#f8c931;}.db{fill:#f9d662;}.dc{fill:url(#b);}.dd{fill:#f8d049;}.de{fill:#f7c216;}.df{fill:#d4d6d8;}.dg{fill:#f7c217;}.dh{fill:url(#i);}.di{fill:#f7c82e;}.dj{fill:#f9d55e;}.dk{fill:#f7c41d;}.dl{fill:#f9f9f9;}.dm{fill:#f9d660;}.dn{fill:#c8cacd;}.do{fill:#dddfe1;}.dp{fill:#f9d45a;}.dq{fill:url(#h);}.dr{fill:#f6c00e;}.ds{fill:#f9d458;}.dt{fill:#f8c930;}.du{fill:#f8ca35;}.dv{fill:url(#d);}.dw{fill:#f9d356;}.dx{fill:url(#e);}.dy{mix-blend-mode:color;}.e`{fill:#f7c625;}.ea{fill:#f8cc3d;}.eb{fill:#f7c31c;}.ec{fill:#f6bd03;}.ed{fill:#f8cc3b;}.ee{fill:#f6be07;}.ef{fill:#f7c623;}.eg{fill:#f8ca33;}.eh{fill:#f6c00f;}.ei{fill:#f8cd3e;}.ej{fill:#eaeaec;}.ek{fill:url(#n);}.el{fill:#f8cf48;}.em{fill:#f9d55f;}.en{fill:#fa7901;}.eo{fill:#f6bf0c;}.ep{fill:url(#j);}.eq{fill:#f7c112;}.er{fill:#c2c4c8;}.es{fill:#6f69e3;}.et{fill:#413cb0;}.eu{fill:url(#o);}.ev{fill:#f7c113;}.ew{fill:#f9d765;}.ex{fill:#ededf2;}.ey{fill:url(#q);}.f`{fill:#f9d357;}.fa{fill:#f8d14e;}.fb{fill:#f7c626;}.fc{fill:#f7c319;}.fd{fill:#ced0d3;}.fe{fill:#f9d459;}.ff{fill:url(#k);}.fg{fill:#f7c215;}.fh{fill:#f7c111;}.fi{mix-blend-mode:multiply;}.fj{fill:#dadcde;}.fk{fill:#e7e7e9;}.fl{fill:#f9d354;}.fm{fill:#c5c7cb;}.fn{fill:#f8d14d;}.fo{fill:#f8cf45;}.fp{fill:#f9d663;}.fq{fill:#f6bf0b;}.fr{fill:#f7c010;}.fs{fill:#f7c521;}.ft{fill:#f6be09;}.fu{fill:#f8ce41;}.fv{fill:#fcfcfc;}.fw{fill:#f6bd02;}</style><linearGradient id="b" x1="70.82" y1="140.53" x2="75.3" y2="25.39" gradientTransform="translate(-3.1 -10.7) rotate(-1.12)" gradientUnits="userSpaceOnUse"><stop offset="0" stop-color="#0981ed"/><stop offset="1" stop-color="#31c0fa"/></linearGradient><linearGradient id="c" x1="12352.01" y1="88.1" x2="12344.57" y2="80.71" gradientTransform="translate(12361.51) rotate(-180) scale(1 -1)" gradientUnits="userSpaceOnUse"><stop offset="0" stop-color="#fff2ae"/><stop offset=".12" stop-color="#fff1a8"/><stop offset=".28" stop-color="#ffee97"/><stop offset=".46" stop-color="#ffea7d"/><stop offset=".65" stop-color="#ffe457"/><stop offset=".85" stop-color="#ffdc28"/><stop offset="1" stop-color="#ffd600"/></linearGradient><linearGradient id="d" x1="12361.58" y1="65.8" x2="12350.43" y2="67.78" xlink:href="#c"/><linearGradient id="e" x1="12335.69" y1="40.39" x2="12335.69" y2="50.36" xlink:href="#c"/><linearGradient id="f" x1="12317.6" y1="51.26" x2="12325.95" y2="59.79" xlink:href="#c"/><linearGradient id="g" x1="12309.45" y1="74.46" x2="12321.22" y2="72" xlink:href="#c"/><linearGradient id="h" x1="12311" y1="92.67" x2="12319.83" y2="84.62" xlink:href="#c"/><linearGradient id="i" x1="12319.69" y1="102.82" x2="12325.34" y2="91.11" xlink:href="#c"/><linearGradient id="j" x1="12334.88" y1="100.52" x2="12334.7" y2="89.11" xlink:href="#c"/><linearGradient id="k" x1="12360.21" y1="48.19" x2="12350.89" y2="55.95" xlink:href="#c"/><linearGradient id="l" x1="12350.57" y1="37.8" x2="12345.28" y2="49.63" xlink:href="#c"/><linearGradient id="m" x1="-8941.33" y1="153.39" x2="-8913.99" y2="153.39" gradientTransform="translate(-8881.14) rotate(-180) scale(1 -1)" gradientUnits="userSpaceOnUse"><stop offset=".06" stop-color="#f3f7f5"/><stop offset=".19" stop-color="#e6eef0"/><stop offset=".41" stop-color="#c6d6e5"/><stop offset=".58" stop-color="#abc2db"/></linearGradient><linearGradient id="n" x1="-1119.49" y1="137.05" x2="-1094.09" y2="137.05" gradientTransform="translate(1153.31)" gradientUnits="userSpaceOnUse"><stop offset=".42" stop-color="#abc2db"/><stop offset=".59" stop-color="#c6d6e5"/><stop offset=".81" stop-color="#e6eef0"/><stop offset=".94" stop-color="#f3f7f5"/></linearGradient><linearGradient id="o" x1="-1119.49" y1="116.82" x2="-1094.09" y2="116.82" gradientTransform="translate(1153.31)" gradientUnits="userSpaceOnUse"><stop offset=".24" stop-color="#064ad3"/><stop offset=".39" stop-color="#0a58da"/><stop offset=".74" stop-color="#1578e9"/><stop offset=".94" stop-color="#1985ef"/></linearGradient><linearGradient id="p" x1="-1094.09" y1="114.27" x2="-1119.49" y2="114.27" gradientTransform="translate(1153.31)" gradientUnits="userSpaceOnUse"><stop offset="0" stop-color="#1d90f4"/><stop offset=".46" stop-color="#177eeb"/><stop offset="1" stop-color="#0f65df"/></linearGradient><linearGradient id="q" x1="-1098.5" y1="112.2" x2="-1115.08" y2="112.2" gradientTransform="translate(1153.31)" gradientUnits="userSpaceOnUse"><stop offset="0" stop-color="#209af9"/><stop offset=".53" stop-color="#1781ed"/><stop offset=".99" stop-color="#1270e5"/></linearGradient><linearGradient id="r" x1="33.82" y1="137.24" x2="59.22" y2="137.24" gradientTransform="matrix(1, 0, 0, 1, 0, 0)" xlink:href="#o"/></defs><g class="aw"><g id="a"><g><g><g class="fi"><path class="y" d="M101.7,146.56c-6.89-3.46-17.96-3.29-24.72,.38-6.76,3.67-6.65,9.45,.24,12.91,6.89,3.46,17.96,3.29,24.72-.38,6.76-3.67,6.65-9.45-.24-12.91Z"/><path class="fv" d="M101.64,146.6c-6.86-3.44-17.86-3.27-24.58,.38-6.72,3.65-6.61,9.4,.24,12.84,6.86,3.44,17.86,3.27,24.58-.38,6.72-3.65,6.61-9.4-.24-12.84Z"/><path class="dl" d="M101.57,146.63c-6.82-3.42-17.76-3.25-24.44,.38-6.68,3.63-6.58,9.34,.24,12.76,6.82,3.42,17.76,3.25,24.44-.38,6.68-3.63,6.57-9.34-.24-12.76Z"/><path class="bc" d="M101.5,146.67c-6.78-3.4-17.66-3.23-24.3,.37-6.64,3.61-6.54,9.29,.24,12.69,6.78,3.4,17.66,3.23,24.3-.37,6.64-3.61,6.54-9.29-.24-12.69Z"/><path class="cf" d="M101.43,146.71c-6.74-3.38-17.56-3.22-24.16,.37-6.6,3.59-6.5,9.24,.24,12.62,6.74,3.38,17.55,3.21,24.16-.37,6.6-3.59,6.5-9.24-.24-12.62Z"/><path class="bh" d="M101.36,146.75c-6.7-3.36-17.46-3.2-24.02,.37-6.57,3.56-6.46,9.18,.24,12.55,6.7,3.36,17.45,3.19,24.02-.37,6.57-3.57,6.46-9.18-.24-12.55Z"/><path class="co" d="M101.29,146.78c-6.66-3.34-17.35-3.18-23.88,.37-6.53,3.54-6.42,9.13,.24,12.47,6.66,3.34,17.35,3.18,23.88-.37,6.53-3.55,6.42-9.13-.24-12.47Z"/><path class="ej" d="M101.22,146.82c-6.62-3.32-17.25-3.16-23.74,.37-6.49,3.52-6.39,9.08,.23,12.4,6.62,3.32,17.25,3.16,23.74-.37,6.49-3.53,6.38-9.08-.23-12.4Z"/><path class="fk" d="M101.15,146.86c-6.58-3.3-17.15-3.14-23.6,.36-6.45,3.5-6.35,9.02,.23,12.33,6.58,3.3,17.15,3.14,23.6-.36,6.45-3.51,6.35-9.02-.23-12.33Z"/><path class="cy" d="M101.08,146.89c-6.54-3.28-17.05-3.12-23.46,.36-6.41,3.48-6.31,8.97,.23,12.25,6.54,3.28,17.05,3.12,23.46-.36,6.41-3.48,6.31-8.97-.23-12.25Z"/><path class="d`" d="M101.01,146.93c-6.5-3.26-16.95-3.1-23.32,.36-6.38,3.46-6.27,8.92,.23,12.18,6.5,3.26,16.95,3.1,23.32-.36,6.38-3.46,6.27-8.92-.23-12.18Z"/><path class="do" d="M100.94,146.97c-6.47-3.24-16.85-3.09-23.18,.36-6.34,3.44-6.24,8.86,.23,12.11,6.47,3.24,16.85,3.08,23.19-.36,6.34-3.44,6.23-8.86-.23-12.11Z"/><path class="fj" d="M100.87,147.01c-6.43-3.22-16.75-3.07-23.04,.36-6.3,3.42-6.2,8.81,.23,12.04,6.43,3.22,16.74,3.06,23.05-.36,6.3-3.42,6.2-8.81-.23-12.04Z"/><path class="cd" d="M100.81,147.04c-6.39-3.2-16.64-3.05-22.91,.35-6.26,3.4-6.16,8.76,.23,11.96,6.39,3.2,16.64,3.05,22.91-.35,6.26-3.4,6.16-8.76-.23-11.96Z"/><path class="df" d="M100.74,147.08c-6.35-3.19-16.54-3.03-22.77,.35-6.22,3.38-6.12,8.7,.22,11.89,6.35,3.19,16.54,3.03,22.77-.35,6.22-3.38,6.12-8.7-.23-11.89Z"/><path class="cw" d="M100.67,147.12c-6.31-3.17-16.44-3.01-22.63,.35-6.19,3.36-6.09,8.65,.22,11.82,6.31,3.17,16.44,3.01,22.63-.35,6.19-3.36,6.08-8.65-.22-11.82Z"/><path class="fd" d="M100.6,147.16c-6.27-3.15-16.34-2.99-22.49,.35-6.15,3.34-6.05,8.6,.22,11.74,6.27,3.15,16.34,2.99,22.49-.35,6.15-3.34,6.05-8.6-.22-11.74Z"/><path class="bn" d="M100.53,147.19c-6.23-3.13-16.24-2.97-22.35,.35-6.11,3.32-6.01,8.54,.22,11.67,6.23,3.13,16.24,2.97,22.35-.35,6.11-3.32,6.01-8.54-.22-11.67Z"/><path class="dn" d="M100.46,147.23c-6.19-3.11-16.14-2.96-22.21,.34-6.07,3.3-5.97,8.49,.22,11.6,6.19,3.11,16.14,2.95,22.21-.34,6.07-3.3,5.97-8.49-.22-11.6Z"/><path class="fm" d="M100.39,147.27c-6.15-3.09-16.04-2.94-22.07,.34-6.03,3.28-5.94,8.44,.22,11.53,6.15,3.09,16.04,2.93,22.07-.34,6.03-3.28,5.93-8.44-.22-11.53Z"/><path class="er" d="M100.32,147.31c-6.11-3.07-15.93-2.92-21.93,.34-5.99,3.25-5.9,8.38,.22,11.45,6.11,3.07,15.93,2.92,21.93-.34,5.99-3.26,5.9-8.38-.22-11.45Z"/><path class="u" d="M100.25,147.34c-6.08-3.05-15.83-2.9-21.79,.34-5.96,3.23-5.86,8.33,.21,11.38,6.08,3.05,15.83,2.9,21.79-.34,5.96-3.24,5.86-8.33-.22-11.38Z"/></g><g><g><path class="bw" d="M78.19,159.62c5.55,2.92,14.16,3.24,20.45,.99,.82-.29,1.6-.63,2.34-1.02,6.31-3.32,6.34-8.69,.07-11.98-1.19-.63-2.53-1.14-3.96-1.52-6.05-1.64-13.71-1.13-18.82,1.56-6.31,3.32-6.34,8.68-.07,11.98Z"/><path class="ac" d="M74.03,153.32h0v-25.69l31.17-.29v25.98h0c-.03,2.09-1.56,4.18-4.6,5.78-6.1,3.21-15.97,3.23-22.04,.04-3.05-1.6-4.55-3.71-4.53-5.81Z"/><path class="en" d="M78.19,147.93c5.55,2.92,14.16,3.24,20.45,.99,.82-.29,1.6-.64,2.34-1.02,6.31-3.32,6.34-8.69,.07-11.98-1.19-.63-2.53-1.14-3.96-1.52-6.05-1.64-13.71-1.13-18.82,1.56-6.31,3.32-6.34,8.68-.07,11.98Z"/><path class="ac" d="M74.03,141.63h0v-10.23l18.02,1.13,13.15-1.43v10.53h0c-.03,2.09-1.56,4.18-4.6,5.78-6.1,3.21-15.97,3.23-22.04,.04-3.05-1.6-4.55-3.71-4.53-5.81Z"/><path class="ex" d="M98.06,147.07l-3.5-1.48c-.39-.16-.39-.8,0-1.41l3.5-5.51c.39-.62,1.02-.98,1.41-.82l3.5,1.48c.39,.16,.39,.8,0,1.41l-3.5,5.51c-.39,.61-1.02,.98-1.41,.82Z"/><path class="et" d="M98.37,144.82c-.6-.03-.73-.61-.64-1.14,.15-.97,1.35-3.24,1.35-3.24,0,0,1.1,.79,1.33,1.58,.16,.55-.09,1.22-.38,1.67-.5,.77-1.21,1.15-1.66,1.13h0Z"/><path class="en" d="M78.19,136.23c5.55,2.92,14.16,3.24,20.45,.99,.82-.29,1.6-.64,2.34-1.02,6.31-3.32,6.34-8.69,.07-11.99-1.19-.63-2.53-1.14-3.96-1.52-6.05-1.64-13.71-1.13-18.82,1.56-6.31,3.32-6.34,8.68-.07,11.98Z"/><path class="ac" d="M74.03,129.94h0v-10.24l31.17-.29v10.53h0c-.03,2.09-1.56,4.18-4.6,5.78-6.1,3.21-15.97,3.23-22.04,.03-3.05-1.6-4.55-3.71-4.53-5.81Z"/><path class="aj" d="M105.19,119.45v33.91h0c-.03,2.09-1.56,4.18-4.59,5.78-5.45,2.87-13.91,3.18-19.98,.94,5.54,1.1,12.06,.46,16.55-1.9,3.04-1.6,4.57-3.69,4.59-5.77h0v-32.93l3.44-.03Z"/><path class="en" d="M78.37,124.5c5.51,2.9,14.07,3.22,20.31,.98,.81-.29,1.59-.63,2.32-1.01,6.27-3.3,6.29-8.63,.07-11.91-1.19-.62-2.51-1.13-3.94-1.51-6.01-1.63-13.62-1.12-18.7,1.55-6.27,3.3-6.29,8.62-.07,11.9Z"/><path class="ac" d="M100.57,113.81c-1.15-.59-2.43-1.06-3.8-1.42-5.81-1.54-13.14-1.05-18.05,1.45-2.81,1.44-4.26,3.29-4.48,5.17-.23-2.17,1.22-4.39,4.48-6.06,4.9-2.51,12.24-2.99,18.05-1.45,1.37,.36,2.65,.83,3.8,1.42,3.22,1.65,4.65,3.85,4.4,6.02-.2-1.87-1.63-3.71-4.4-5.13Z"/></g><path class="bl" d="M98.94,115.75c0,.97-1.35,1.76-3.02,1.76s-3.02-.79-3.02-1.76,1.35-1.76,3.02-1.76,3.02,.79,3.02,1.76Z"/><path class="es" d="M98.45,115.26c0,.82-1.13,1.48-2.53,1.48s-2.53-.66-2.53-1.48,1.14-1.48,2.53-1.48,2.53,.66,2.53,1.48Z"/></g></g><g><path class="dc" d="M72.26,74.62c-13.97-9.07-18.24-25.62-14.73-37.7C63.72,15.62,78.69,16.41,76.63,0c5.7,8.81,5.94,15.28,5.7,20.91-.19,4.32-1.16,4.71-1.15,9.17,.02,11.11,7.1,14.02,6.4,22.25-.54,6.33-4.63,11.28-7.98,15.33-2.66,3.21-5.34,5.48-7.33,6.96Z"/><path class="ay" d="M72.37,70.21c-16.88-15-15.49-40.76,5.02-51.88-5.89,10.85-5.54,17.95-3.95,22.53,1.71,4.92,4.74,6.66,5.6,11.58,1.19,6.81-2.88,13.25-6.67,17.77Z"/></g><g><path class="cr" d="M110.83,82.14c-1.53-.88-3.54-.62-5.97,.79l-15.39,8.89s-1.58,.91-.68,2.37c.9,1.46,2.4,.61,2.4,.61l15.39-8.89c1.55-.89,2.34-.9,2.54-.79,.21,.12,.6,.82,.6,2.6,0,3.04-2.22,6.89-4.85,8.4-.82,.47-1.1,1.52-.63,2.35,.32,.55,.9,.86,1.49,.86,.29,0,.59-.07,.86-.23,3.68-2.13,6.57-7.12,6.57-11.38,0-2.81-.78-4.69-2.31-5.57Z"/><path class="cr" d="M127.56,52.55c-1.65-.95-3.8-.8-5.91,.42-.82,.47-1.1,1.52-.63,2.34,.47,.82,1.53,1.1,2.34,.63,1.01-.59,1.92-.74,2.48-.41,.56,.32,.88,1.18,.88,2.35,0,1.76-.49,6.14-5.07,8.78l-28.41,16.4c-.82,.47-1.1,1.52-.63,2.34,.32,.55,.89,.86,1.49,.86,.29,0,.59-.07,.86-.23l28.41-16.4c4.31-2.49,6.79-6.77,6.79-11.75,0-2.43-.95-4.37-2.59-5.32Z"/><path class="cr" d="M114.86,48.24c-2.15-1.24-4.88-1.03-7.69,.59-.82,.47-1.1,1.52-.63,2.34,.47,.82,1.52,1.1,2.34,.63,1.68-.97,3.23-1.19,4.26-.59,1.03,.59,1.62,2.04,1.62,3.98,0,5.16-3.12,10.56-7.59,13.14l-22.77,13.15s-1.4,.73-.63,2.27c.77,1.54,2.35,.7,2.35,.7l22.77-13.15c5.48-3.16,9.3-9.79,9.3-16.12,0-3.24-1.18-5.71-3.33-6.96Z"/><path class="ae" d="M118.99,52.08c8.33-1.37,6.48-8.35,6.48-8.35-7.76,2.45-6.48,8.35-6.48,8.35Z"/><path class="ae" d="M98.5,57.75c2.45,7.76,8.35,6.48,8.35,6.48-1.37-8.33-8.35-6.48-8.35-6.48Z"/><path class="ae" d="M119.07,82.22c6.86,4.92,10.49-1.32,10.49-1.32-7.22-3.76-10.49,1.32-10.49,1.32Z"/></g><g><path class="at" d="M14.16,80.63c.78-.79,2.06-.8,2.85-.02,.79,.78,.8,2.06,.02,2.85l-4.6,4.56c-.4,.4-.91,.6-1.44,.6s-1.02-.19-1.42-.58c-.79-.78-.8-2.06-.02-2.85l4.6-4.56Z"/><path class="dv" d="M2.15,64.5l7.16,.58c1.11,.08,1.95,1.04,1.88,2.15-.07,.97-.81,1.74-1.74,1.86-.13,.02-.27,.02-.4,.01l-7.16-.58c-1.11-.08-1.95-1.04-1.88-2.15,.08-1.11,1.04-1.96,2.15-1.88Z"/><g><circle class="ca" cx="26.48" cy="70.18" r="16.87" transform="translate(-24.57 15.22) rotate(-22.22)"/><circle class="cg" cx="26.45" cy="70.15" r="16.82" transform="translate(-24.42 15.08) rotate(-22.07)"/><circle class="fw" cx="26.42" cy="70.12" r="16.76" transform="translate(-24.27 14.94) rotate(-21.92)"/><circle class="ec" cx="26.39" cy="70.09" r="16.71" transform="translate(-24.11 14.78) rotate(-21.76)"/><circle class="aq" cx="26.36" cy="70.06" r="16.66" transform="translate(-23.94 14.62) rotate(-21.6)"/><circle class="ap" cx="26.34" cy="70.03" r="16.61" transform="translate(-23.76 14.46) rotate(-21.42)"/><circle class="av" cx="26.31" cy="70" r="16.55" transform="translate(-23.57 14.28) rotate(-21.23)"/><circle class="ee" cx="26.28" cy="69.98" r="16.5" transform="translate(-23.37 14.1) rotate(-21.04)"/><circle class="bi" cx="26.25" cy="69.95" r="16.45" transform="translate(-23.16 13.91) rotate(-20.83)"/><circle class="ft" cx="26.22" cy="69.92" r="16.4" transform="translate(-22.94 13.71) rotate(-20.61)"/><circle class="bk" cx="26.19" cy="69.89" r="16.35" transform="translate(-22.7 13.5) rotate(-20.38)"/><circle class="fq" cx="26.16" cy="69.86" r="16.29" transform="translate(-22.45 13.28) rotate(-20.14)"/><circle class="eo" cx="26.13" cy="69.83" r="16.24" transform="translate(-22.18 13.04) rotate(-19.87)"/><circle class="bt" cx="26.11" cy="69.8" r="16.19" transform="translate(-21.9 12.8) rotate(-19.59)"/><circle class="dr" cx="26.08" cy="69.77" r="16.14" transform="translate(-21.59 12.54) rotate(-19.3)"/><circle class="eh" cx="26.05" cy="69.75" r="16.08" transform="translate(-21.27 12.26) rotate(-18.98)"/><circle class="fr" cx="26.02" cy="69.72" r="16.03" transform="translate(-20.91 11.97) rotate(-18.64)"/><circle class="fh" cx="25.99" cy="69.69" r="15.98" transform="translate(-20.54 11.66) rotate(-18.27)"/><circle class="eq" cx="25.96" cy="69.66" r="15.93" transform="translate(-20.13 11.33) rotate(-17.88)"/><circle class="ev" cx="25.93" cy="69.63" r="15.87" transform="translate(-19.69 10.98) rotate(-17.45)"/><circle class="be" cx="25.9" cy="69.6" r="15.82" transform="translate(-19.21 10.61) rotate(-16.99)"/><circle class="fg" cx="25.87" cy="69.57" r="15.77" transform="translate(-18.68 10.21) rotate(-16.49)"/><circle class="de" cx="25.85" cy="69.54" r="15.72" transform="translate(-18.11 9.78) rotate(-15.95)"/><circle class="dg" cx="25.82" cy="69.51" r="15.67" transform="translate(-17.49 9.32) rotate(-15.35)"/><circle class="bu" cx="25.79" cy="69.49" r="15.61" transform="translate(-16.79 8.82) rotate(-14.71)"/><circle class="fc" cx="25.76" cy="69.46" r="15.56" transform="translate(-16.03 8.29) rotate(-13.99)"/><circle class="bm" cx="25.73" cy="69.43" r="15.51" transform="translate(-15.18 7.72) rotate(-13.21)"/><circle class="au" cx="25.7" cy="69.4" r="15.46" transform="translate(-14.24 7.1) rotate(-12.34)"/><circle class="eb" cx="25.67" cy="69.37" r="15.4" transform="translate(-13.19 6.43) rotate(-11.38)"/><circle class="dk" cx="25.64" cy="69.34" r="15.35" transform="translate(-12 5.71) rotate(-10.31)"/><circle class="ab" cx="25.62" cy="69.31" r="15.3" transform="translate(-10.66 4.94) rotate(-9.12)"/><circle class="ar" cx="25.59" cy="69.28" r="15.25" transform="translate(-9.15 4.11) rotate(-7.79)"/><circle class="ck" cx="25.56" cy="69.26" r="15.19" transform="translate(-7.44 3.22) rotate(-6.29)"/><circle class="ck" cx="25.53" cy="69.23" r="15.14" transform="translate(-5.49 2.28) rotate(-4.62)"/><circle class="fs" cx="25.5" cy="69.2" r="15.09" transform="translate(-3.27 1.29) rotate(-2.73)"/><circle class="bb" cx="25.47" cy="69.17" r="15.04" transform="translate(-.75 .28) rotate(-.63)"/><circle class="ef" cx="25.44" cy="69.14" r="14.99"/><circle class="ci" cx="25.41" cy="69.11" r="14.93"/><circle class="e`" cx="25.38" cy="69.08" r="14.88"/><circle class="fb" cx="25.36" cy="69.05" r="14.83"/><circle class="ao" cx="25.33" cy="69.02" r="14.78"/><circle class="cv" cx="25.3" cy="69" r="14.72"/><circle class="br" cx="25.27" cy="68.97" r="14.67"/><circle class="bs" cx="25.24" cy="68.94" r="14.62"/><circle class="cl" cx="25.21" cy="68.91" r="14.57"/><circle class="by" cx="25.18" cy="68.88" r="14.51"/><circle class="af" cx="25.15" cy="68.85" r="14.46"/><circle class="di" cx="25.12" cy="68.82" r="14.41" transform="translate(-45.96 51.06) rotate(-55.92)"/><circle class="ax" cx="25.1" cy="68.79" r="14.36" transform="translate(-45.24 48.4) rotate(-53.79)"/><circle class="dt" cx="25.07" cy="68.76" r="14.3" transform="translate(-44.51 46.05) rotate(-51.89)"/><circle class="da" cx="25.04" cy="68.74" r="14.25" transform="translate(-43.8 43.97) rotate(-50.2)"/><circle class="v" cx="25.01" cy="68.71" r="14.2" transform="translate(-43.11 42.13) rotate(-48.69)"/><circle class="eg" cx="24.98" cy="68.68" r="14.15" transform="translate(-42.45 40.51) rotate(-47.34)"/><circle class="bd" cx="24.95" cy="68.65" r="14.1" transform="translate(-41.23 37.75) rotate(-45)"/><circle class="du" cx="24.92" cy="68.62" r="14.04" transform="translate(-41.22 37.72) rotate(-45)"/><circle class="ag" cx="24.89" cy="68.59" r="13.99" transform="translate(-41.21 37.69) rotate(-45)"/><circle class="ah" cx="24.87" cy="68.56" r="13.94" transform="translate(-40.2 35.62) rotate(-43.21)"/><circle class="cm" cx="24.84" cy="68.53" r="13.89" transform="translate(-39.73 34.7) rotate(-42.42)"/><circle class="cs" cx="24.81" cy="68.51" r="13.83" transform="translate(-39.29 33.87) rotate(-41.71)"/><circle class="aa" cx="24.78" cy="68.48" r="13.78" transform="translate(-38.88 33.11) rotate(-41.05)"/><circle class="ed" cx="24.75" cy="68.45" r="13.73" transform="translate(-38.49 32.42) rotate(-40.45)"/><circle class="cx" cx="24.72" cy="68.42" r="13.68" transform="translate(-38.14 31.8) rotate(-39.91)"/><circle class="ea" cx="24.69" cy="68.39" r="13.62" transform="translate(-37.8 31.22) rotate(-39.4)"/><circle class="ei" cx="24.66" cy="68.36" r="13.57" transform="translate(-37.49 30.69) rotate(-38.94)"/><circle class="b`" cx="24.63" cy="68.33" r="13.52" transform="translate(-37.19 30.2) rotate(-38.51)"/><circle class="ba" cx="24.56" cy="68.25" r="13.37" transform="translate(-37.63 30.92) rotate(-39.23)"/><circle class="fu" cx="24.48" cy="68.17" r="13.22" transform="translate(-38.06 31.63) rotate(-39.95)"/><circle class="ce" cx="24.41" cy="68.08" r="13.07" transform="translate(-38.47 32.34) rotate(-40.66)"/><circle class="ct" cx="24.33" cy="68" r="12.92" transform="translate(-38.87 33.06) rotate(-41.37)"/><circle class="t" cx="24.26" cy="67.92" r="12.77" transform="translate(-39.26 33.76) rotate(-42.08)"/><circle class="fo" cx="24.18" cy="67.84" r="12.62" transform="translate(-39.64 34.47) rotate(-42.78)"/><circle class="bj" cx="24.11" cy="67.75" r="12.48" transform="translate(-40 35.17) rotate(-43.47)"/><circle class="w" cx="24.03" cy="67.67" r="12.33" transform="translate(-40.81 36.81) rotate(-45)"/><circle class="el" cx="23.96" cy="67.59" r="12.18" transform="translate(-40.78 36.74) rotate(-45)"/><circle class="dd" cx="23.88" cy="67.51" r="12.03" transform="translate(-40.74 36.66) rotate(-45)"/><circle class="cu" cx="23.81" cy="67.42" r="11.88" transform="translate(-41.31 37.89) rotate(-46.16)"/><circle class="cp" cx="23.73" cy="67.34" r="11.73" transform="translate(-41.61 38.55) rotate(-46.81)"/><circle class="bf" cx="23.66" cy="67.26" r="11.58" transform="translate(-41.89 39.2) rotate(-47.45)"/><circle class="fn" cx="23.58" cy="67.18" r="11.43" transform="translate(-42.16 39.84) rotate(-48.08)"/><circle class="fa" cx="23.51" cy="67.09" r="11.28" transform="translate(-42.41 40.47) rotate(-48.7)"/><circle class="bp" cx="23.43" cy="67.01" r="11.13" transform="translate(-42.65 41.08) rotate(-49.3)"/><circle class="cc" cx="23.36" cy="66.93" r="10.98" transform="translate(-42.88 41.68) rotate(-49.9)"/><circle class="bx" cx="23.28" cy="66.85" r="10.83" transform="translate(-43.1 42.27) rotate(-50.48)"/><circle class="a`" cx="23.21" cy="66.76" r="10.69" transform="translate(-43.31 42.85) rotate(-51.06)"/><circle class="c`" cx="23.13" cy="66.68" r="10.54" transform="translate(-43.5 43.41) rotate(-51.62)"/><circle class="s" cx="23.06" cy="66.6" r="10.39" transform="translate(-43.68 43.96) rotate(-52.17)"/><circle class="fl" cx="22.98" cy="66.52" r="10.24" transform="translate(-43.86 44.49) rotate(-52.7)"/><circle class="bo" cx="22.91" cy="66.43" r="10.09" transform="translate(-44.02 45.01) rotate(-53.23)"/><circle class="dw" cx="22.83" cy="66.35" r="9.94" transform="translate(-44.17 45.52) rotate(-53.74)"/><circle class="f`" cx="22.76" cy="66.27" r="9.79" transform="translate(-44.32 46.01) rotate(-54.24)"/><circle class="ds" cx="22.68" cy="66.18" r="9.64" transform="translate(-44.45 46.49) rotate(-54.73)"/><circle class="fe" cx="22.61" cy="66.1" r="9.49" transform="translate(-44.58 46.95) rotate(-55.21)"/><circle class="dp" cx="22.53" cy="66.02" r="9.34" transform="translate(-44.7 47.41) rotate(-55.68)"/><circle class="cn" cx="22.46" cy="65.94" r="9.19" transform="translate(-44.81 47.84) rotate(-56.14)"/><circle class="as" cx="22.38" cy="65.85" r="9.04" transform="translate(-44.91 48.27) rotate(-56.58)"/><circle class="an" cx="22.31" cy="65.77" r="8.9" transform="translate(-45.01 48.68) rotate(-57.02)"/><circle class="dj" cx="22.23" cy="65.69" r="8.75" transform="translate(-45.1 49.07) rotate(-57.44)"/><circle class="em" cx="22.15" cy="65.61" r="8.6" transform="translate(-45.18 49.46) rotate(-57.85)"/><circle class="dm" cx="22.08" cy="65.52" r="8.45" transform="translate(-45.26 49.83) rotate(-58.26)"/><circle class="ch" cx="22" cy="65.44" r="8.3" transform="translate(-45.33 50.19) rotate(-58.65)"/><circle class="db" cx="21.93" cy="65.36" r="8.15" transform="translate(-45.4 50.53) rotate(-59.03)"/><circle class="fp" cx="21.85" cy="65.28" r="8" transform="translate(-45.46 50.87) rotate(-59.41)"/><circle class="bq" cx="21.78" cy="65.19" r="7.85" transform="translate(-45.51 51.19) rotate(-59.77)"/><circle class="ew" cx="21.7" cy="65.11" r="7.7" transform="translate(-45.57 51.5) rotate(-60.13)"/></g><path class="dx" d="M25.82,39.76c1.11,0,2.02,.9,2.02,2.02v7.06c0,1.11-.9,2.02-2.02,2.02s-2.02-.9-2.02-2.02v-7.06c0-1.11,.9-2.02,2.02-2.02Z"/><path class="bv" d="M40.04,52.34c.78-.79,2.06-.8,2.85-.02,.79,.78,.8,2.06,.02,2.85l-4.32,4.39c-.4,.4-.91,.6-1.44,.6s-1.02-.19-1.42-.58c-.79-.78-.8-2.06-.02-2.85l4.32-4.39Z"/><path class="cq" d="M43.72,70.66l7.02,1.46c1.09,.22,1.8,1.29,1.58,2.38-.19,.96-1.03,1.62-1.97,1.62-.13,0-.27-.01-.4-.04l-7.02-1.46c-1.09-.22-1.8-1.28-1.58-2.38,.22-1.09,1.29-1.8,2.38-1.58Z"/><path class="dq" d="M44.57,84.41l5.82,5.54c.81,.77,.84,2.04,.07,2.85-.4,.42-.93,.63-1.46,.63-.5,0-1-.19-1.39-.56l-5.82-5.54c-.81-.77-.84-2.04-.07-2.85,.77-.81,2.04-.84,2.85-.07Z"/><path class="dh" d="M36.16,90.84c1.01-.46,2.21-.02,2.68,.99l3.59,7.79c.47,1.01,.03,2.21-.99,2.68-.27,.13-.56,.19-.84,.19-.76,0-1.49-.43-1.83-1.17l-3.59-7.79c-.47-1.01-.03-2.21,.99-2.68Z"/><path class="ep" d="M26.73,88.92c1.11,0,2.02,.9,2.02,2.02v7.06c0,1.11-.9,2.02-2.02,2.02s-2.02-.9-2.02-2.02v-7.06c0-1.11,.9-2.02,2.02-2.02Z"/><path class="ff" d="M4.5,48.1l6.04,5.3c.84,.73,.92,2.01,.18,2.85-.38,.43-.9,.66-1.43,.68-.5,.02-1.01-.14-1.41-.5l-6.04-5.3c-.84-.74-.92-2.01-.18-2.85,.74-.84,2.01-.92,2.85-.18Z"/><path class="am" d="M11.1,38.34c1.01-.46,2.21-.02,2.68,.99l3.59,7.79c.47,1.01,.03,2.21-.99,2.68-.27,.13-.56,.19-.84,.19-.76,0-1.49-.43-1.83-1.17l-3.59-7.79c-.47-1.01-.03-2.21,.99-2.68Z"/></g><g><g class="fi"><path class="y" d="M58.5,146.89c-6.75-3.39-17.59-3.22-24.2,.37-6.62,3.59-6.51,9.25,.24,12.64,6.75,3.39,17.59,3.22,24.2-.37,6.62-3.59,6.51-9.25-.24-12.64Z"/><path class="fv" d="M58.44,146.92c-6.71-3.37-17.49-3.2-24.07,.37-6.58,3.57-6.48,9.2,.24,12.57,6.71,3.37,17.49,3.2,24.07-.37,6.58-3.57,6.47-9.2-.24-12.57Z"/><path class="dl" d="M58.37,146.96c-6.67-3.35-17.39-3.18-23.93,.37-6.54,3.55-6.44,9.15,.24,12.5,6.67,3.35,17.39,3.18,23.93-.37,6.54-3.55,6.44-9.15-.24-12.5Z"/><path class="bc" d="M58.3,147c-6.64-3.33-17.29-3.17-23.79,.37-6.5,3.53-6.4,9.1,.23,12.43,6.64,3.33,17.29,3.16,23.79-.37,6.5-3.53,6.4-9.1-.23-12.43Z"/><path class="cf" d="M58.23,147.03c-6.6-3.31-17.19-3.15-23.66,.37-6.47,3.51-6.36,9.04,.23,12.36,6.6,3.31,17.19,3.15,23.66-.37,6.47-3.51,6.36-9.04-.23-12.36Z"/><path class="bh" d="M58.17,147.07c-6.56-3.29-17.09-3.13-23.52,.36-6.43,3.49-6.33,8.99,.23,12.28,6.56,3.29,17.09,3.13,23.52-.36,6.43-3.49,6.33-8.99-.23-12.28Z"/><path class="co" d="M58.1,147.11c-6.52-3.27-16.99-3.11-23.38,.36-6.39,3.47-6.29,8.94,.23,12.21,6.52,3.27,16.99,3.11,23.39-.36,6.39-3.47,6.29-8.94-.23-12.21Z"/><path class="ej" d="M58.03,147.14c-6.48-3.25-16.89-3.09-23.25,.36-6.35,3.45-6.25,8.89,.23,12.14,6.48,3.25,16.89,3.09,23.25-.36,6.35-3.45,6.25-8.89-.23-12.14Z"/><path class="fk" d="M57.96,147.18c-6.45-3.23-16.79-3.08-23.11,.36-6.32,3.43-6.22,8.84,.23,12.07,6.45,3.23,16.79,3.07,23.11-.36,6.32-3.43,6.21-8.84-.23-12.07Z"/><path class="cy" d="M57.89,147.22c-6.41-3.21-16.69-3.06-22.97,.35-6.28,3.41-6.18,8.78,.23,12,6.41,3.21,16.69,3.05,22.98-.35,6.28-3.41,6.18-8.78-.23-12Z"/><path class="d`" d="M57.83,147.25c-6.37-3.2-16.6-3.04-22.84,.35-6.24,3.39-6.14,8.73,.22,11.93,6.37,3.2,16.59,3.04,22.84-.35,6.24-3.39,6.14-8.73-.23-11.93Z"/><path class="do" d="M57.76,147.29c-6.33-3.18-16.5-3.02-22.7,.35-6.21,3.37-6.11,8.68,.22,11.86,6.33,3.18,16.49,3.02,22.7-.35,6.21-3.37,6.1-8.68-.22-11.86Z"/><path class="fj" d="M57.69,147.33c-6.29-3.16-16.4-3-22.57,.35-6.17,3.35-6.07,8.63,.22,11.79,6.29,3.16,16.4,3,22.57-.35,6.17-3.35,6.07-8.63-.22-11.79Z"/><path class="cd" d="M57.62,147.36c-6.25-3.14-16.3-2.98-22.43,.35-6.13,3.33-6.03,8.57,.22,11.71,6.25,3.14,16.3,2.98,22.43-.35,6.13-3.33,6.03-8.57-.22-11.71Z"/><path class="df" d="M57.56,147.4c-6.22-3.12-16.2-2.97-22.29,.34-6.09,3.31-6,8.52,.22,11.64,6.22,3.12,16.2,2.96,22.29-.34,6.09-3.31,5.99-8.52-.22-11.64Z"/><path class="cw" d="M57.49,147.44c-6.18-3.1-16.1-2.95-22.16,.34-6.06,3.29-5.96,8.47,.22,11.57,6.18,3.1,16.1,2.95,22.16-.34,6.06-3.29,5.96-8.47-.22-11.57Z"/><path class="fd" d="M57.42,147.47c-6.14-3.08-16-2.93-22.02,.34-6.02,3.27-5.92,8.42,.22,11.5,6.14,3.08,16,2.93,22.02-.34,6.02-3.27,5.92-8.42-.22-11.5Z"/><path class="bn" d="M57.35,147.51c-6.1-3.06-15.9-2.91-21.88,.34-5.98,3.25-5.89,8.37,.22,11.43,6.1,3.06,15.9,2.91,21.88-.34,5.98-3.25,5.88-8.37-.22-11.43Z"/><path class="dn" d="M57.29,147.55c-6.06-3.04-15.8-2.89-21.75,.34-5.94,3.23-5.85,8.31,.21,11.36,6.06,3.04,15.8,2.89,21.75-.34,5.94-3.23,5.85-8.31-.22-11.36Z"/><path class="fm" d="M57.22,147.58c-6.03-3.02-15.7-2.88-21.61,.33-5.91,3.21-5.81,8.26,.21,11.29,6.03,3.02,15.7,2.87,21.61-.33,5.91-3.21,5.81-8.26-.22-11.29Z"/><path class="er" d="M57.15,147.62c-5.99-3-15.6-2.86-21.47,.33-5.87,3.19-5.78,8.21,.21,11.22,5.99,3,15.6,2.86,21.47-.33,5.87-3.19,5.77-8.21-.21-11.22Z"/><path class="u" d="M57.08,147.66c-5.95-2.98-15.5-2.84-21.34,.33-5.83,3.17-5.74,8.16,.21,11.14,5.95,2.98,15.5,2.84,21.34-.33,5.83-3.17,5.74-8.16-.21-11.14Z"/></g><g><g><path class="bg" d="M34.92,149.95c.55-.51,1.2-.99,1.96-1.43,5.36-3.09,14.01-3.11,19.34-.03,.77,.44,1.42,.93,1.96,1.44h2.01v2.76h0c-.01,2.02-1.36,4.04-4.03,5.59-5.36,3.09-14.01,3.11-19.34,.03-2.65-1.53-3.98-3.54-3.97-5.56h0v-2.79h2.07Z"/><path class="cb" d="M36.82,155.55c5.32,3.07,13.98,3.06,19.34-.03,5.36-3.09,5.38-8.09,.06-11.16-5.32-3.07-13.98-3.06-19.34,.03-5.36,3.09-5.38,8.09-.06,11.16Z"/><path class="ek" d="M59.22,116.86l-25.4-.04v33.1h0v.03h0c.02,1.87,1.27,3.74,3.75,5.17,4.98,2.87,13.02,2.89,17.96,.03,2.46-1.42,3.69-3.29,3.69-5.16h0v-33.13Z"/><path class="eu" d="M59.22,114.64h-.6c-.6-1.09-1.65-2.12-3.14-2.98-4.98-2.87-13.02-2.89-17.96-.03-1.47,.85-2.5,1.85-3.09,2.93h-.6v2.25h0v.03h0c.02,1.87,1.27,3.74,3.75,5.17,4.98,2.87,13.02,2.89,17.96,.03,2.47-1.42,3.69-3.29,3.69-5.16h0v-2.23Z"/><path class="cj" d="M58.73,112.63s0-.01,0-.02l-.02-.03c-.19-.38-.44-.76-.75-1.12-1.04-1.3-2.48-2.33-3.76-3h0c-4.27-2.47-11.17-2.48-15.42-.03-.06,.03-.12,.07-.17,.11h0s-2.24,1.25-3.34,2.61h0c-2.52,2.77-1.75,6.28,2.3,8.62,4.98,2.87,13.02,2.89,17.96,.03,3.35-1.94,4.42-4.7,3.2-7.17Z"/><path class="ey" d="M52.4,115.6c-3.23,1.86-8.47,1.85-11.72-.02-3.25-1.87-3.26-4.9-.04-6.77,3.23-1.86,8.47-1.85,11.72,.02,3.25,1.87,3.26,4.9,.04,6.77Z"/></g><path class="ad" d="M54.36,135.44l.02,6.42c-.38,.15-.76,.28-1.16,.4v-2.67c-.8,.24-1.62,.43-2.47,.58v2.67c-.41,.07-.84,.13-1.27,.17l-.02-6.42c.43-.04,.86-.1,1.28-.17v2.65c.43-.07,.85-.15,1.26-.25,.41-.1,.81-.2,1.21-.33h0v-2.65c.39-.12,.77-.26,1.15-.4Zm2.93,4.23c-.02-.09-.04-.17-.07-.23-.03-.05-.05-.09-.05-.09-.02-.02-.05-.02-.07-.03-.03-.02-.07-.04-.1-.05-.03,0-.07,0-.1,0-.07,0-.14,0-.23,.02-.36,.09-.81,.38-1.15,.82-.04,.05-.08,.1-.11,.14-.02,.03-.04,.05-.05,.08-.22,.36-.29,.7-.3,.98,.27-.12,.53-.25,.79-.38,0-.21,.09-.38,.19-.52,.01-.02,.03-.04,.05-.06,.2-.21,.45-.28,.53-.19,.03,.04,.05,.11,.04,.21,0,.07-.03,.14-.06,.2l-.02,.03s-.04,.07-.07,.1c-.09,.13-.23,.28-.45,.46-.68,.57-1.02,1.01-1.04,1.84v.4c.38-.17,.75-.35,1.1-.55,.44-.24,.84-.5,1.2-.77v-.73c-.37,.27-.77,.52-1.2,.77-.1,.05-.2,.11-.3,.16,.01-.09,.04-.17,.12-.26s.19-.2,.37-.35c.26-.22,.75-.64,.94-1.27,.01-.04,.02-.08,.03-.12,.01-.06,.02-.11,.03-.17,0-.06,.01-.11,.01-.16,0-.03,0-.05,0-.08,0-.04-.01-.06-.02-.09,0-.05-.01-.09-.02-.13Zm1.93-15.02v17.93c0,1.87-1.23,3.74-3.69,5.16-4.94,2.85-12.99,2.84-17.96-.03-2.48-1.43-3.73-3.3-3.75-5.17v-17.93h0c.02,1.87,1.27,3.74,3.75,5.17,4.98,2.87,13.02,2.89,17.96,.03,2.46-1.42,3.69-3.29,3.69-5.16h0Zm-.39,15.72l-.02-8.35c-.02-.8-.2-1.77-1.45-.87-.38,.29-.8,.56-1.27,.82-2.24,1.25-5.06,1.94-7.93,2.06-.76,.06-2.55,.4-2.65,2.18l.02,8.35c.08,1.35,1.16,2.26,2.67,2.26,2.87-.13,5.69-.82,7.93-2.06,.46-.26,.89-.53,1.27-.82,1.24-1.04,1.42-2.85,1.43-3.58Z"/></g></g></g><g class="dy"><g><g class="fi"><path class="ak" d="M101.7,146.56c-6.89-3.46-17.96-3.29-24.72,.38-6.76,3.67-6.65,9.45,.24,12.91,6.89,3.46,17.96,3.29,24.72-.38,6.76-3.67,6.65-9.45-.24-12.91Z"/><path class="ak" d="M101.64,146.6c-6.86-3.44-17.86-3.27-24.58,.38-6.72,3.65-6.61,9.4,.24,12.84,6.86,3.44,17.86,3.27,24.58-.38,6.72-3.65,6.61-9.4-.24-12.84Z"/><path class="ak" d="M101.57,146.63c-6.82-3.42-17.76-3.25-24.44,.38-6.68,3.63-6.58,9.34,.24,12.76,6.82,3.42,17.76,3.25,24.44-.38,6.68-3.63,6.57-9.34-.24-12.76Z"/><path class="ak" d="M101.5,146.67c-6.78-3.4-17.66-3.23-24.3,.37-6.64,3.61-6.54,9.29,.24,12.69,6.78,3.4,17.66,3.23,24.3-.37,6.64-3.61,6.54-9.29-.24-12.69Z"/><path class="ak" d="M101.43,146.71c-6.74-3.38-17.56-3.22-24.16,.37-6.6,3.59-6.5,9.24,.24,12.62,6.74,3.38,17.55,3.21,24.16-.37,6.6-3.59,6.5-9.24-.24-12.62Z"/><path class="ak" d="M101.36,146.75c-6.7-3.36-17.46-3.2-24.02,.37-6.57,3.56-6.46,9.18,.24,12.55,6.7,3.36,17.45,3.19,24.02-.37,6.57-3.57,6.46-9.18-.24-12.55Z"/><path class="ak" d="M101.29,146.78c-6.66-3.34-17.35-3.18-23.88,.37-6.53,3.54-6.42,9.13,.24,12.47,6.66,3.34,17.35,3.18,23.88-.37,6.53-3.55,6.42-9.13-.24-12.47Z"/><path class="ak" d="M101.22,146.82c-6.62-3.32-17.25-3.16-23.74,.37-6.49,3.52-6.39,9.08,.23,12.4,6.62,3.32,17.25,3.16,23.74-.37,6.49-3.53,6.38-9.08-.23-12.4Z"/><path class="ak" d="M101.15,146.86c-6.58-3.3-17.15-3.14-23.6,.36-6.45,3.5-6.35,9.02,.23,12.33,6.58,3.3,17.15,3.14,23.6-.36,6.45-3.51,6.35-9.02-.23-12.33Z"/><path class="ak" d="M101.08,146.89c-6.54-3.28-17.05-3.12-23.46,.36-6.41,3.48-6.31,8.97,.23,12.25,6.54,3.28,17.05,3.12,23.46-.36,6.41-3.48,6.31-8.97-.23-12.25Z"/><path class="ak" d="M101.01,146.93c-6.5-3.26-16.95-3.1-23.32,.36-6.38,3.46-6.27,8.92,.23,12.18,6.5,3.26,16.95,3.1,23.32-.36,6.38-3.46,6.27-8.92-.23-12.18Z"/><path class="ak" d="M100.94,146.97c-6.47-3.24-16.85-3.09-23.18,.36-6.34,3.44-6.24,8.86,.23,12.11,6.47,3.24,16.85,3.08,23.19-.36,6.34-3.44,6.23-8.86-.23-12.11Z"/><path class="ak" d="M100.87,147.01c-6.43-3.22-16.75-3.07-23.04,.36-6.3,3.42-6.2,8.81,.23,12.04,6.43,3.22,16.74,3.06,23.05-.36,6.3-3.42,6.2-8.81-.23-12.04Z"/><path class="ak" d="M100.81,147.04c-6.39-3.2-16.64-3.05-22.91,.35-6.26,3.4-6.16,8.76,.23,11.96,6.39,3.2,16.64,3.05,22.91-.35,6.26-3.4,6.16-8.76-.23-11.96Z"/><path class="ak" d="M100.74,147.08c-6.35-3.19-16.54-3.03-22.77,.35-6.22,3.38-6.12,8.7,.22,11.89,6.35,3.19,16.54,3.03,22.77-.35,6.22-3.38,6.12-8.7-.23-11.89Z"/><path class="ak" d="M100.67,147.12c-6.31-3.17-16.44-3.01-22.63,.35-6.19,3.36-6.09,8.65,.22,11.82,6.31,3.17,16.44,3.01,22.63-.35,6.19-3.36,6.08-8.65-.22-11.82Z"/><path class="ak" d="M100.6,147.16c-6.27-3.15-16.34-2.99-22.49,.35-6.15,3.34-6.05,8.6,.22,11.74,6.27,3.15,16.34,2.99,22.49-.35,6.15-3.34,6.05-8.6-.22-11.74Z"/><path class="ak" d="M100.53,147.19c-6.23-3.13-16.24-2.97-22.35,.35-6.11,3.32-6.01,8.54,.22,11.67,6.23,3.13,16.24,2.97,22.35-.35,6.11-3.32,6.01-8.54-.22-11.67Z"/><path class="ak" d="M100.46,147.23c-6.19-3.11-16.14-2.96-22.21,.34-6.07,3.3-5.97,8.49,.22,11.6,6.19,3.11,16.14,2.95,22.21-.34,6.07-3.3,5.97-8.49-.22-11.6Z"/><path class="ak" d="M100.39,147.27c-6.15-3.09-16.04-2.94-22.07,.34-6.03,3.28-5.94,8.44,.22,11.53,6.15,3.09,16.04,2.93,22.07-.34,6.03-3.28,5.93-8.44-.22-11.53Z"/><path class="ak" d="M100.32,147.31c-6.11-3.07-15.93-2.92-21.93,.34-5.99,3.25-5.9,8.38,.22,11.45,6.11,3.07,15.93,2.92,21.93-.34,5.99-3.26,5.9-8.38-.22-11.45Z"/><path class="ak" d="M100.25,147.34c-6.08-3.05-15.83-2.9-21.79,.34-5.96,3.23-5.86,8.33,.21,11.38,6.08,3.05,15.83,2.9,21.79-.34,5.96-3.24,5.86-8.33-.22-11.38Z"/></g><g><g><path class="ak" d="M78.19,159.62c5.55,2.92,14.16,3.24,20.45,.99,.82-.29,1.6-.63,2.34-1.02,6.31-3.32,6.34-8.69,.07-11.98-1.19-.63-2.53-1.14-3.96-1.52-6.05-1.64-13.71-1.13-18.82,1.56-6.31,3.32-6.34,8.68-.07,11.98Z"/><path class="ak" d="M74.03,153.32h0v-25.69l31.17-.29v25.98h0c-.03,2.09-1.56,4.18-4.6,5.78-6.1,3.21-15.97,3.23-22.04,.04-3.05-1.6-4.55-3.71-4.53-5.81Z"/><path class="ak" d="M78.19,147.93c5.55,2.92,14.16,3.24,20.45,.99,.82-.29,1.6-.64,2.34-1.02,6.31-3.32,6.34-8.69,.07-11.98-1.19-.63-2.53-1.14-3.96-1.52-6.05-1.64-13.71-1.13-18.82,1.56-6.31,3.32-6.34,8.68-.07,11.98Z"/><path class="ak" d="M74.03,141.63h0v-10.23l18.02,1.13,13.15-1.43v10.53h0c-.03,2.09-1.56,4.18-4.6,5.78-6.1,3.21-15.97,3.23-22.04,.04-3.05-1.6-4.55-3.71-4.53-5.81Z"/><path class="ak" d="M98.06,147.07l-3.5-1.48c-.39-.16-.39-.8,0-1.41l3.5-5.51c.39-.62,1.02-.98,1.41-.82l3.5,1.48c.39,.16,.39,.8,0,1.41l-3.5,5.51c-.39,.61-1.02,.98-1.41,.82Z"/><path class="x" d="M98.37,144.82c-.6-.03-.73-.61-.64-1.14,.15-.97,1.35-3.24,1.35-3.24,0,0,1.1,.79,1.33,1.58,.16,.55-.09,1.22-.38,1.67-.5,.77-1.21,1.15-1.66,1.13h0Z"/><path class="ak" d="M78.19,136.23c5.55,2.92,14.16,3.24,20.45,.99,.82-.29,1.6-.64,2.34-1.02,6.31-3.32,6.34-8.69,.07-11.99-1.19-.63-2.53-1.14-3.96-1.52-6.05-1.64-13.71-1.13-18.82,1.56-6.31,3.32-6.34,8.68-.07,11.98Z"/><path class="ak" d="M74.03,129.94h0v-10.24l31.17-.29v10.53h0c-.03,2.09-1.56,4.18-4.6,5.78-6.1,3.21-15.97,3.23-22.04,.03-3.05-1.6-4.55-3.71-4.53-5.81Z"/><path class="ai" d="M105.19,119.45v33.91h0c-.03,2.09-1.56,4.18-4.59,5.78-5.45,2.87-13.91,3.18-19.98,.94,5.54,1.1,12.06,.46,16.55-1.9,3.04-1.6,4.57-3.69,4.59-5.77h0v-32.93l3.44-.03Z"/><path class="ak" d="M78.37,124.5c5.51,2.9,14.07,3.22,20.31,.98,.81-.29,1.59-.63,2.32-1.01,6.27-3.3,6.29-8.63,.07-11.91-1.19-.62-2.51-1.13-3.94-1.51-6.01-1.63-13.62-1.12-18.7,1.55-6.27,3.3-6.29,8.62-.07,11.9Z"/><path class="ak" d="M100.57,113.81c-1.15-.59-2.43-1.06-3.8-1.42-5.81-1.54-13.14-1.05-18.05,1.45-2.81,1.44-4.26,3.29-4.48,5.17-.23-2.17,1.22-4.39,4.48-6.06,4.9-2.51,12.24-2.99,18.05-1.45,1.37,.36,2.65,.83,3.8,1.42,3.22,1.65,4.65,3.85,4.4,6.02-.2-1.87-1.63-3.71-4.4-5.13Z"/></g><path class="ak" d="M98.94,115.75c0,.97-1.35,1.76-3.02,1.76s-3.02-.79-3.02-1.76,1.35-1.76,3.02-1.76,3.02,.79,3.02,1.76Z"/><path class="ak" d="M98.45,115.26c0,.82-1.13,1.48-2.53,1.48s-2.53-.66-2.53-1.48,1.14-1.48,2.53-1.48,2.53,.66,2.53,1.48Z"/></g></g><g><path class="ak" d="M72.26,74.62c-13.97-9.07-18.24-25.62-14.73-37.7C63.72,15.62,78.69,16.41,76.63,0c5.7,8.81,5.94,15.28,5.7,20.91-.19,4.32-1.16,4.71-1.15,9.17,.02,11.11,7.1,14.02,6.4,22.25-.54,6.33-4.63,11.28-7.98,15.33-2.66,3.21-5.34,5.48-7.33,6.96Z"/><path class="al" d="M72.37,70.21c-16.88-15-15.49-40.76,5.02-51.88-5.89,10.85-5.54,17.95-3.95,22.53,1.71,4.92,4.74,6.66,5.6,11.58,1.19,6.81-2.88,13.25-6.67,17.77Z"/></g><g><path class="ak" d="M110.83,82.14c-1.53-.88-3.54-.62-5.97,.79l-15.39,8.89s-1.58,.91-.68,2.37c.9,1.46,2.4,.61,2.4,.61l15.39-8.89c1.55-.89,2.34-.9,2.54-.79,.21,.12,.6,.82,.6,2.6,0,3.04-2.22,6.89-4.85,8.4-.82,.47-1.1,1.52-.63,2.35,.32,.55,.9,.86,1.49,.86,.29,0,.59-.07,.86-.23,3.68-2.13,6.57-7.12,6.57-11.38,0-2.81-.78-4.69-2.31-5.57Z"/><path class="ak" d="M127.56,52.55c-1.65-.95-3.8-.8-5.91,.42-.82,.47-1.1,1.52-.63,2.34,.47,.82,1.53,1.1,2.34,.63,1.01-.59,1.92-.74,2.48-.41,.56,.32,.88,1.18,.88,2.35,0,1.76-.49,6.14-5.07,8.78l-28.41,16.4c-.82,.47-1.1,1.52-.63,2.34,.32,.55,.89,.86,1.49,.86,.29,0,.59-.07,.86-.23l28.41-16.4c4.31-2.49,6.79-6.77,6.79-11.75,0-2.43-.95-4.37-2.59-5.32Z"/><path class="ak" d="M114.86,48.24c-2.15-1.24-4.88-1.03-7.69,.59-.82,.47-1.1,1.52-.63,2.34,.47,.82,1.52,1.1,2.34,.63,1.68-.97,3.23-1.19,4.26-.59,1.03,.59,1.62,2.04,1.62,3.98,0,5.16-3.12,10.56-7.59,13.14l-22.77,13.15s-1.4,.73-.63,2.27c.77,1.54,2.35,.7,2.35,.7l22.77-13.15c5.48-3.16,9.3-9.79,9.3-16.12,0-3.24-1.18-5.71-3.33-6.96Z"/><path class="x" d="M118.99,52.08c8.33-1.37,6.48-8.35,6.48-8.35-7.76,2.45-6.48,8.35-6.48,8.35Z"/><path class="x" d="M98.5,57.75c2.45,7.76,8.35,6.48,8.35,6.48-1.37-8.33-8.35-6.48-8.35-6.48Z"/><path class="x" d="M119.07,82.25c6.86,4.97,10.49-1.34,10.49-1.34-7.22-3.79-10.49,1.34-10.49,1.34Z"/></g><g><path class="ak" d="M14.16,80.63c.78-.79,2.06-.8,2.85-.02,.79,.78,.8,2.06,.02,2.85l-4.6,4.56c-.4,.4-.91,.6-1.44,.6s-1.02-.19-1.42-.58c-.79-.78-.8-2.06-.02-2.85l4.6-4.56Z"/><path class="ak" d="M2.15,64.5l7.16,.58c1.11,.08,1.95,1.04,1.88,2.15-.07,.97-.81,1.74-1.74,1.86-.13,.02-.27,.02-.4,.01l-7.16-.58c-1.11-.08-1.95-1.04-1.88-2.15,.08-1.11,1.04-1.96,2.15-1.88Z"/><g><circle class="ak" cx="26.48" cy="70.18" r="16.87" transform="translate(-24.57 15.22) rotate(-22.22)"/><circle class="ak" cx="25.56" cy="69.26" r="15.19" transform="translate(-7.44 3.22) rotate(-6.29)"/><circle class="ak" cx="24.63" cy="68.33" r="13.52" transform="translate(-37.19 30.2) rotate(-38.51)"/><circle class="ak" cx="23.17" cy="66.72" r="10.61" transform="translate(-43.4 43.13) rotate(-51.34)"/><circle class="ak" cx="21.7" cy="65.11" r="7.7" transform="translate(-45.57 51.5) rotate(-60.13)"/></g><path class="ak" d="M25.82,39.76c1.11,0,2.02,.9,2.02,2.02v7.06c0,1.11-.9,2.02-2.02,2.02s-2.02-.9-2.02-2.02v-7.06c0-1.11,.9-2.02,2.02-2.02Z"/><path class="ak" d="M40.04,52.34c.78-.79,2.06-.8,2.85-.02,.79,.78,.8,2.06,.02,2.85l-4.32,4.39c-.4,.4-.91,.6-1.44,.6s-1.02-.19-1.42-.58c-.79-.78-.8-2.06-.02-2.85l4.32-4.39Z"/><path class="ak" d="M43.72,70.66l7.02,1.46c1.09,.22,1.8,1.29,1.58,2.38-.19,.96-1.03,1.62-1.97,1.62-.13,0-.27-.01-.4-.04l-7.02-1.46c-1.09-.22-1.8-1.28-1.58-2.38,.22-1.09,1.29-1.8,2.38-1.58Z"/><path class="ak" d="M44.57,84.41l5.82,5.54c.81,.77,.84,2.04,.07,2.85-.4,.42-.93,.63-1.46,.63-.5,0-1-.19-1.39-.56l-5.82-5.54c-.81-.77-.84-2.04-.07-2.85,.77-.81,2.04-.84,2.85-.07Z"/><path class="ak" d="M36.16,90.84c1.01-.46,2.21-.02,2.68,.99l3.59,7.79c.47,1.01,.03,2.21-.99,2.68-.27,.13-.56,.19-.84,.19-.76,0-1.49-.43-1.83-1.17l-3.59-7.79c-.47-1.01-.03-2.21,.99-2.68Z"/><path class="ak" d="M26.73,88.92c1.11,0,2.02,.9,2.02,2.02v7.06c0,1.11-.9,2.02-2.02,2.02s-2.02-.9-2.02-2.02v-7.06c0-1.11,.9-2.02,2.02-2.02Z"/><path class="ak" d="M4.5,48.1l6.04,5.3c.84,.73,.92,2.01,.18,2.85-.38,.43-.9,.66-1.43,.68-.5,.02-1.01-.14-1.41-.5l-6.04-5.3c-.84-.74-.92-2.01-.18-2.85,.74-.84,2.01-.92,2.85-.18Z"/><path class="ak" d="M11.1,38.34c1.01-.46,2.21-.02,2.68,.99l3.59,7.79c.47,1.01,.03,2.21-.99,2.68-.27,.13-.56,.19-.84,.19-.76,0-1.49-.43-1.83-1.17l-3.59-7.79c-.47-1.01-.03-2.21,.99-2.68Z"/></g><g><g class="fi"><path class="ak" d="M58.5,146.89c-6.75-3.39-17.59-3.22-24.2,.37-6.62,3.59-6.51,9.25,.24,12.64,6.75,3.39,17.59,3.22,24.2-.37,6.62-3.59,6.51-9.25-.24-12.64Z"/><path class="ak" d="M58.44,146.92c-6.71-3.37-17.49-3.2-24.07,.37-6.58,3.57-6.48,9.2,.24,12.57,6.71,3.37,17.49,3.2,24.07-.37,6.58-3.57,6.47-9.2-.24-12.57Z"/><path class="ak" d="M58.37,146.96c-6.67-3.35-17.39-3.18-23.93,.37-6.54,3.55-6.44,9.15,.24,12.5,6.67,3.35,17.39,3.18,23.93-.37,6.54-3.55,6.44-9.15-.24-12.5Z"/><path class="ak" d="M58.3,147c-6.64-3.33-17.29-3.17-23.79,.37-6.5,3.53-6.4,9.1,.23,12.43,6.64,3.33,17.29,3.16,23.79-.37,6.5-3.53,6.4-9.1-.23-12.43Z"/><path class="ak" d="M58.23,147.03c-6.6-3.31-17.19-3.15-23.66,.37-6.47,3.51-6.36,9.04,.23,12.36,6.6,3.31,17.19,3.15,23.66-.37,6.47-3.51,6.36-9.04-.23-12.36Z"/><path class="ak" d="M58.17,147.07c-6.56-3.29-17.09-3.13-23.52,.36-6.43,3.49-6.33,8.99,.23,12.28,6.56,3.29,17.09,3.13,23.52-.36,6.43-3.49,6.33-8.99-.23-12.28Z"/><path class="ak" d="M58.1,147.11c-6.52-3.27-16.99-3.11-23.38,.36-6.39,3.47-6.29,8.94,.23,12.21,6.52,3.27,16.99,3.11,23.39-.36,6.39-3.47,6.29-8.94-.23-12.21Z"/><path class="ak" d="M58.03,147.14c-6.48-3.25-16.89-3.09-23.25,.36-6.35,3.45-6.25,8.89,.23,12.14,6.48,3.25,16.89,3.09,23.25-.36,6.35-3.45,6.25-8.89-.23-12.14Z"/><path class="ak" d="M57.96,147.18c-6.45-3.23-16.79-3.08-23.11,.36-6.32,3.43-6.22,8.84,.23,12.07,6.45,3.23,16.79,3.07,23.11-.36,6.32-3.43,6.21-8.84-.23-12.07Z"/><path class="ak" d="M57.89,147.22c-6.41-3.21-16.69-3.06-22.97,.35-6.28,3.41-6.18,8.78,.23,12,6.41,3.21,16.69,3.05,22.98-.35,6.28-3.41,6.18-8.78-.23-12Z"/><path class="ak" d="M57.83,147.25c-6.37-3.2-16.6-3.04-22.84,.35-6.24,3.39-6.14,8.73,.22,11.93,6.37,3.2,16.59,3.04,22.84-.35,6.24-3.39,6.14-8.73-.23-11.93Z"/><path class="ak" d="M57.76,147.29c-6.33-3.18-16.5-3.02-22.7,.35-6.21,3.37-6.11,8.68,.22,11.86,6.33,3.18,16.49,3.02,22.7-.35,6.21-3.37,6.1-8.68-.22-11.86Z"/><path class="ak" d="M57.69,147.33c-6.29-3.16-16.4-3-22.57,.35-6.17,3.35-6.07,8.63,.22,11.79,6.29,3.16,16.4,3,22.57-.35,6.17-3.35,6.07-8.63-.22-11.79Z"/><path class="ak" d="M57.62,147.36c-6.25-3.14-16.3-2.98-22.43,.35-6.13,3.33-6.03,8.57,.22,11.71,6.25,3.14,16.3,2.98,22.43-.35,6.13-3.33,6.03-8.57-.22-11.71Z"/><path class="ak" d="M57.56,147.4c-6.22-3.12-16.2-2.97-22.29,.34-6.09,3.31-6,8.52,.22,11.64,6.22,3.12,16.2,2.96,22.29-.34,6.09-3.31,5.99-8.52-.22-11.64Z"/><path class="ak" d="M57.49,147.44c-6.18-3.1-16.1-2.95-22.16,.34-6.06,3.29-5.96,8.47,.22,11.57,6.18,3.1,16.1,2.95,22.16-.34,6.06-3.29,5.96-8.47-.22-11.57Z"/><path class="ak" d="M57.42,147.47c-6.14-3.08-16-2.93-22.02,.34-6.02,3.27-5.92,8.42,.22,11.5,6.14,3.08,16,2.93,22.02-.34,6.02-3.27,5.92-8.42-.22-11.5Z"/><path class="ak" d="M57.35,147.51c-6.1-3.06-15.9-2.91-21.88,.34-5.98,3.25-5.89,8.37,.22,11.43,6.1,3.06,15.9,2.91,21.88-.34,5.98-3.25,5.88-8.37-.22-11.43Z"/><path class="ak" d="M57.29,147.55c-6.06-3.04-15.8-2.89-21.75,.34-5.94,3.23-5.85,8.31,.21,11.36,6.06,3.04,15.8,2.89,21.75-.34,5.94-3.23,5.85-8.31-.22-11.36Z"/><path class="ak" d="M57.22,147.58c-6.03-3.02-15.7-2.88-21.61,.33-5.91,3.21-5.81,8.26,.21,11.29,6.03,3.02,15.7,2.87,21.61-.33,5.91-3.21,5.81-8.26-.22-11.29Z"/><path class="ak" d="M57.15,147.62c-5.99-3-15.6-2.86-21.47,.33-5.87,3.19-5.78,8.21,.21,11.22,5.99,3,15.6,2.86,21.47-.33,5.87-3.19,5.77-8.21-.21-11.22Z"/><path class="ak" d="M57.08,147.66c-5.95-2.98-15.5-2.84-21.34,.33-5.83,3.17-5.74,8.16,.21,11.14,5.95,2.98,15.5,2.84,21.34-.33,5.83-3.17,5.74-8.16-.21-11.14Z"/></g><g><g><path class="ak" d="M34.92,149.95c.55-.51,1.2-.99,1.96-1.43,5.36-3.09,14.01-3.11,19.34-.03,.77,.44,1.42,.93,1.96,1.44h2.01v2.76h0c-.01,2.02-1.36,4.04-4.03,5.59-5.36,3.09-14.01,3.11-19.34,.03-2.65-1.53-3.98-3.54-3.97-5.56h0v-2.79h2.07Z"/><path class="ak" d="M36.82,155.55c5.32,3.07,13.98,3.06,19.34-.03,5.36-3.09,5.38-8.09,.06-11.16-5.32-3.07-13.98-3.06-19.34,.03-5.36,3.09-5.38,8.09-.06,11.16Z"/><path class="ak" d="M59.22,116.86l-25.4-.04v33.1h0v.03h0c.02,1.87,1.27,3.74,3.75,5.17,4.98,2.87,13.02,2.89,17.96,.03,2.46-1.42,3.69-3.29,3.69-5.16h0v-33.13Z"/><path class="ak" d="M59.22,114.64h-.6c-.6-1.09-1.65-2.12-3.14-2.98-4.98-2.87-13.02-2.89-17.96-.03-1.47,.85-2.5,1.85-3.09,2.93h-.6v2.25h0v.03h0c.02,1.87,1.27,3.74,3.75,5.17,4.98,2.87,13.02,2.89,17.96,.03,2.47-1.42,3.69-3.29,3.69-5.16h0v-2.23Z"/><path class="ak" d="M58.73,112.63s0-.01,0-.02l-.02-.03c-.19-.38-.44-.76-.75-1.12-1.04-1.3-2.48-2.33-3.76-3h0c-4.27-2.47-11.17-2.48-15.42-.03-.06,.03-.12,.07-.17,.11h0s-2.24,1.25-3.34,2.61h0c-2.52,2.77-1.75,6.28,2.3,8.62,4.98,2.87,13.02,2.89,17.96,.03,3.35-1.94,4.42-4.7,3.2-7.17Z"/><path class="ak" d="M52.4,115.6c-3.23,1.86-8.47,1.85-11.72-.02-3.25-1.87-3.26-4.9-.04-6.77,3.23-1.86,8.47-1.85,11.72,.02,3.25,1.87,3.26,4.9,.04,6.77Z"/></g><path class="x" d="M54.36,135.44l.02,6.42c-.38,.15-.76,.28-1.16,.4v-2.67c-.8,.24-1.62,.43-2.47,.58v2.67c-.41,.07-.84,.13-1.27,.17l-.02-6.42c.43-.04,.86-.1,1.28-.17v2.65c.43-.07,.85-.15,1.26-.25,.41-.1,.81-.2,1.21-.33h0v-2.65c.39-.12,.77-.26,1.15-.4Zm2.93,4.23c-.02-.09-.04-.17-.07-.23-.03-.05-.05-.09-.05-.09-.02-.02-.05-.02-.07-.03-.03-.02-.07-.04-.1-.05-.03,0-.07,0-.1,0-.07,0-.14,0-.23,.02-.36,.09-.81,.38-1.15,.82-.04,.05-.08,.1-.11,.14-.02,.03-.04,.05-.05,.08-.22,.36-.29,.7-.3,.98,.27-.12,.53-.25,.79-.38,0-.21,.09-.38,.19-.52,.01-.02,.03-.04,.05-.06,.2-.21,.45-.28,.53-.19,.03,.04,.05,.11,.04,.21,0,.07-.03,.14-.06,.2l-.02,.03s-.04,.07-.07,.1c-.09,.13-.23,.28-.45,.46-.68,.57-1.02,1.01-1.04,1.84v.4c.38-.17,.75-.35,1.1-.55,.44-.24,.84-.5,1.2-.77v-.73c-.37,.27-.77,.52-1.2,.77-.1,.05-.2,.11-.3,.16,.01-.09,.04-.17,.12-.26s.19-.2,.37-.35c.26-.22,.75-.64,.94-1.27,.01-.04,.02-.08,.03-.12,.01-.06,.02-.11,.03-.17,0-.06,.01-.11,.01-.16,0-.03,0-.05,0-.08,0-.04-.01-.06-.02-.09,0-.05-.01-.09-.02-.13Zm1.93-15.02v17.93c0,1.87-1.23,3.74-3.69,5.16-4.94,2.85-12.99,2.84-17.96-.03-2.48-1.43-3.73-3.3-3.75-5.17v-17.93h0c.02,1.87,1.27,3.74,3.75,5.17,4.98,2.87,13.02,2.89,17.96,.03,2.46-1.42,3.69-3.29,3.69-5.16h0Zm-.39,15.72l-.02-8.35c-.02-.8-.2-1.77-1.45-.87-.38,.29-.8,.56-1.27,.82-2.24,1.25-5.06,1.94-7.93,2.06-.76,.06-2.55,.4-2.65,2.18l.02,8.35c.08,1.35,1.16,2.26,2.67,2.26,2.87-.13,5.69-.82,7.93-2.06,.46-.26,.89-.53,1.27-.82,1.24-1.04,1.42-2.85,1.43-3.58Z"/></g></g></g></g></g></svg>