<?xml version="1.0" encoding="UTF-8"?><svg xmlns="http://www.w3.org/2000/svg" viewBox="0 0 172.33 159.51"><defs><style>.b{fill:#bfc1c5;}.c{fill:#fff;}.d{fill:#52657a;}.e{isolation:isolate;}.f{fill:#f6f6f7;}.g{fill:#f0f0f1;}.h{fill:#288c23;}.i{fill:#feab05;}.j{fill:#cbcdd0;}.k{fill:#a9c2d9;}.l{fill:#dde7f0;}.m{fill:#d7d9db;}.n{fill:#f3f3f4;}.o{fill:#ededee;}.p{fill:#d1d3d6;}.q{fill:#e4e4e6;}.r{fill:#e1e1e3;}.s{fill:#edf2f6;}.t{fill:#d4d6d8;}.u{fill:#f9f9f9;}.v{fill:#c8cacd;}.w{fill:#dddfe1;}.x{fill:#f93900;}.y,.a`{fill:#003078;}.aa{mix-blend-mode:color;}.ab{fill:#b4c0cc;}.ab,.a`,.ac{mix-blend-mode:multiply;}.ad{fill:#bdcdde;}.ae{fill:#eaeaec;}.af{fill:#d43103;}.ag{fill:#c2c4c8;}.ah{fill:#ced0d3;}.ai{fill:#dadcde;}.aj{fill:#e7e7e9;}.ak{fill:#1d1d1b;}.al{fill:#c5c7cb;}.am{fill:#fcfcfc;}.an{fill:#7d95ae;}</style></defs><g class="e"><g id="a"><g><g class="ac"><path class="c" d="M162.74,100.22c-9.79-4.91-25.5-4.67-35.1,.54-9.6,5.21-9.44,13.42,.35,18.33,9.79,4.91,25.5,4.67,35.1-.54,9.6-5.21,9.44-13.42-.35-18.33Z"/><path class="am" d="M162.64,100.28c-9.73-4.89-25.36-4.64-34.9,.54-9.54,5.18-9.39,13.34,.34,18.23,9.73,4.88,25.36,4.64,34.9-.54,9.54-5.18,9.39-13.34-.34-18.23Z"/><path class="u" d="M162.54,100.33c-9.68-4.86-25.22-4.62-34.7,.54-9.49,5.15-9.34,13.27,.34,18.12,9.68,4.86,25.22,4.62,34.7-.53,9.49-5.15,9.34-13.27-.34-18.12Z"/><path class="f" d="M162.45,100.38c-9.62-4.83-25.07-4.59-34.51,.53-9.43,5.12-9.28,13.19,.34,18.02,9.62,4.83,25.07,4.59,34.51-.53,9.43-5.12,9.28-13.19-.34-18.02Z"/><path class="n" d="M162.35,100.44c-9.57-4.8-24.93-4.56-34.31,.53-9.38,5.09-9.23,13.11,.34,17.92,9.57,4.8,24.93,4.56,34.31-.53,9.38-5.09,9.23-13.12-.34-17.92Z"/><path class="g" d="M162.25,100.49c-9.51-4.77-24.78-4.54-34.11,.53-9.33,5.06-9.18,13.04,.34,17.81,9.51,4.77,24.78,4.54,34.11-.53,9.33-5.06,9.18-13.04-.34-17.81Z"/><path class="o" d="M162.15,100.54c-9.46-4.75-24.64-4.51-33.91,.52-9.27,5.03-9.12,12.96,.33,17.71,9.46,4.75,24.64,4.51,33.91-.52,9.27-5.03,9.12-12.96-.33-17.71Z"/><path class="ae" d="M162.05,100.6c-9.4-4.72-24.5-4.49-33.71,.52-9.22,5.01-9.07,12.89,.33,17.61,9.4,4.72,24.5,4.49,33.71-.52,9.22-5.01,9.07-12.89-.33-17.61Z"/><path class="aj" d="M161.96,100.65c-9.35-4.69-24.35-4.46-33.52,.52-9.16,4.98-9.02,12.81,.33,17.5,9.35,4.69,24.35,4.46,33.52-.52,9.16-4.98,9.02-12.81-.33-17.5Z"/><path class="q" d="M161.86,100.7c-9.29-4.66-24.21-4.43-33.32,.51-9.11,4.95-8.96,12.74,.33,17.4,9.29,4.66,24.21,4.43,33.32-.51,9.11-4.95,8.96-12.74-.33-17.4Z"/><path class="r" d="M161.76,100.76c-9.24-4.64-24.06-4.41-33.12,.51-9.06,4.92-8.91,12.66,.33,17.3,9.24,4.64,24.06,4.41,33.12-.51,9.06-4.92,8.91-12.66-.33-17.3Z"/><path class="w" d="M161.66,100.81c-9.18-4.61-23.92-4.38-32.92,.51-9,4.89-8.86,12.59,.32,17.19,9.18,4.61,23.92,4.38,32.92-.51,9-4.89,8.86-12.59-.32-17.19Z"/><path class="ai" d="M161.56,100.86c-9.13-4.58-23.78-4.35-32.72,.5-8.95,4.86-8.8,12.51,.32,17.09,9.13,4.58,23.78,4.35,32.72-.5,8.95-4.86,8.8-12.51-.32-17.09Z"/><path class="m" d="M161.47,100.92c-9.07-4.55-23.63-4.33-32.53,.5-8.89,4.83-8.75,12.43,.32,16.99,9.07,4.55,23.63,4.33,32.53-.5,8.89-4.83,8.75-12.43-.32-16.99Z"/><path class="t" d="M161.37,100.97c-9.02-4.52-23.49-4.3-32.33,.5-8.84,4.8-8.7,12.36,.32,16.88,9.02,4.52,23.49,4.3,32.33-.5,8.84-4.8,8.7-12.36-.32-16.88Z"/><path class="p" d="M161.27,101.02c-8.96-4.5-23.35-4.28-32.13,.5-8.78,4.77-8.64,12.28,.32,16.78,8.96,4.5,23.35,4.28,32.13-.49,8.78-4.77,8.64-12.28-.32-16.78Z"/><path class="ah" d="M161.17,101.07c-8.9-4.47-23.2-4.25-31.93,.49-8.73,4.74-8.59,12.21,.31,16.68,8.9,4.47,23.2,4.25,31.93-.49,8.73-4.74,8.59-12.21-.32-16.68Z"/><path class="j" d="M161.07,101.13c-8.85-4.44-23.06-4.22-31.73,.49-8.68,4.71-8.54,12.13,.31,16.57,8.85,4.44,23.06,4.22,31.73-.49,8.68-4.71,8.54-12.13-.31-16.57Z"/><path class="v" d="M160.98,101.18c-8.79-4.41-22.91-4.2-31.54,.49-8.62,4.68-8.48,12.06,.31,16.47,8.79,4.41,22.91,4.2,31.54-.49,8.62-4.68,8.48-12.06-.31-16.47Z"/><path class="al" d="M160.88,101.23c-8.74-4.39-22.77-4.17-31.34,.48-8.57,4.65-8.43,11.98,.31,16.37,8.74,4.39,22.77,4.17,31.34-.48,8.57-4.65,8.43-11.98-.31-16.37Z"/><path class="ag" d="M160.78,101.29c-8.68-4.36-22.63-4.14-31.14,.48-8.51,4.62-8.38,11.9,.31,16.26,8.68,4.36,22.63,4.14,31.14-.48,8.51-4.62,8.38-11.9-.31-16.26Z"/><path class="b" d="M160.68,101.34c-8.63-4.33-22.48-4.12-30.94,.48-8.46,4.59-8.32,11.83,.31,16.16,8.63,4.33,22.48,4.12,30.94-.48,8.46-4.59,8.32-11.83-.31-16.16Z"/></g><g class="ac"><path class="c" d="M155.51,63.86c-9.79-4.91-25.5-4.67-35.1,.54-9.6,5.21-9.44,13.42,.35,18.33,9.79,4.91,25.5,4.67,35.1-.54,9.6-5.21,9.44-13.42-.35-18.33Z"/><path class="am" d="M155.41,63.91c-9.73-4.89-25.36-4.64-34.9,.54-9.54,5.18-9.39,13.34,.34,18.23,9.73,4.88,25.36,4.64,34.9-.54,9.54-5.18,9.39-13.34-.34-18.23Z"/><path class="u" d="M155.31,63.96c-9.68-4.86-25.22-4.62-34.7,.54-9.49,5.15-9.34,13.27,.34,18.12,9.68,4.86,25.22,4.62,34.7-.53,9.49-5.15,9.34-13.27-.34-18.12Z"/><path class="f" d="M155.21,64.01c-9.62-4.83-25.07-4.59-34.51,.53-9.43,5.12-9.28,13.19,.34,18.02,9.62,4.83,25.07,4.59,34.51-.53,9.43-5.12,9.28-13.19-.34-18.02Z"/><path class="n" d="M155.12,64.07c-9.57-4.8-24.93-4.56-34.31,.53-9.38,5.09-9.23,13.11,.34,17.92,9.57,4.8,24.93,4.56,34.31-.53,9.38-5.09,9.23-13.12-.34-17.92Z"/><path class="g" d="M155.02,64.12c-9.51-4.77-24.78-4.54-34.11,.53-9.33,5.06-9.18,13.04,.34,17.81,9.51,4.77,24.78,4.54,34.11-.53,9.33-5.06,9.18-13.04-.34-17.81Z"/><path class="o" d="M154.92,64.17c-9.46-4.75-24.64-4.51-33.91,.52-9.27,5.03-9.12,12.96,.33,17.71,9.46,4.75,24.64,4.51,33.91-.52,9.27-5.03,9.12-12.96-.33-17.71Z"/><path class="ae" d="M154.82,64.23c-9.4-4.72-24.5-4.49-33.71,.52-9.22,5.01-9.07,12.89,.33,17.61,9.4,4.72,24.5,4.49,33.71-.52,9.22-5.01,9.07-12.89-.33-17.61Z"/><path class="aj" d="M154.72,64.28c-9.35-4.69-24.35-4.46-33.52,.52-9.16,4.98-9.02,12.81,.33,17.5,9.35,4.69,24.35,4.46,33.52-.52,9.16-4.98,9.02-12.81-.33-17.5Z"/><path class="q" d="M154.63,64.33c-9.29-4.66-24.21-4.43-33.32,.51-9.11,4.95-8.96,12.74,.33,17.4,9.29,4.66,24.21,4.43,33.32-.51,9.11-4.95,8.96-12.74-.33-17.4Z"/><path class="r" d="M154.53,64.39c-9.24-4.64-24.06-4.41-33.12,.51-9.06,4.92-8.91,12.66,.33,17.3,9.24,4.64,24.06,4.41,33.12-.51,9.06-4.92,8.91-12.66-.33-17.3Z"/><path class="w" d="M154.43,64.44c-9.18-4.61-23.92-4.38-32.92,.51-9,4.89-8.86,12.59,.32,17.19,9.18,4.61,23.92,4.38,32.92-.51,9-4.89,8.86-12.59-.32-17.19Z"/><path class="ai" d="M154.33,64.49c-9.13-4.58-23.78-4.35-32.72,.5-8.95,4.86-8.8,12.51,.32,17.09,9.13,4.58,23.78,4.35,32.72-.5,8.95-4.86,8.8-12.51-.32-17.09Z"/><path class="m" d="M154.23,64.55c-9.07-4.55-23.63-4.33-32.53,.5-8.89,4.83-8.75,12.43,.32,16.99,9.07,4.55,23.63,4.33,32.53-.5,8.89-4.83,8.75-12.43-.32-16.99Z"/><path class="t" d="M154.14,64.6c-9.02-4.52-23.49-4.3-32.33,.5-8.84,4.8-8.7,12.36,.32,16.88,9.02,4.52,23.49,4.3,32.33-.5,8.84-4.8,8.7-12.36-.32-16.88Z"/><path class="p" d="M154.04,64.65c-8.96-4.5-23.35-4.28-32.13,.5-8.78,4.77-8.64,12.28,.32,16.78,8.96,4.5,23.35,4.28,32.13-.49,8.78-4.77,8.64-12.28-.32-16.78Z"/><path class="ah" d="M153.94,64.71c-8.9-4.47-23.2-4.25-31.93,.49-8.73,4.74-8.59,12.21,.31,16.68,8.9,4.47,23.2,4.25,31.93-.49,8.73-4.74,8.59-12.21-.32-16.68Z"/><path class="j" d="M153.84,64.76c-8.85-4.44-23.06-4.22-31.73,.49-8.68,4.71-8.54,12.13,.31,16.57,8.85,4.44,23.06,4.22,31.73-.49,8.68-4.71,8.54-12.13-.31-16.57Z"/><path class="v" d="M153.74,64.81c-8.79-4.41-22.91-4.2-31.54,.49-8.62,4.68-8.48,12.06,.31,16.47,8.79,4.41,22.91,4.2,31.54-.49,8.62-4.68,8.48-12.06-.31-16.47Z"/><path class="al" d="M153.65,64.87c-8.74-4.39-22.77-4.17-31.34,.48-8.57,4.65-8.43,11.98,.31,16.37,8.74,4.39,22.77,4.17,31.34-.48,8.57-4.65,8.43-11.98-.31-16.37Z"/><path class="ag" d="M153.55,64.92c-8.68-4.36-22.63-4.14-31.14,.48-8.51,4.62-8.38,11.9,.31,16.26,8.68,4.36,22.63,4.14,31.14-.48,8.51-4.62,8.38-11.9-.31-16.26Z"/><path class="b" d="M153.45,64.97c-8.63-4.33-22.48-4.12-30.94,.48-8.46,4.59-8.32,11.83,.31,16.16,8.63,4.33,22.48,4.12,30.94-.48,8.46-4.59,8.32-11.83-.31-16.16Z"/></g><g><polygon class="c" points="66.69 47.51 69.17 48.94 90.2 36.8 90.2 33.94 66.69 47.51"/><path class="ak" d="M69.17,49l-2.58-1.49,.07-.04,23.58-13.62v2.97h-.02l-21.06,12.17Zm-2.38-1.49l2.38,1.37,20.98-12.11v-2.74l-23.36,13.49Z"/></g><g class="ac"><path class="c" d="M132.15,117.88c-9.79-4.91-25.5-4.67-35.1,.54-9.6,5.21-9.44,13.42,.35,18.33,9.79,4.91,25.5,4.67,35.1-.54,9.6-5.21,9.44-13.42-.35-18.33Z"/><path class="am" d="M132.05,117.94c-9.73-4.89-25.36-4.64-34.9,.54-9.54,5.18-9.39,13.34,.34,18.23,9.73,4.88,25.36,4.64,34.9-.54,9.54-5.18,9.39-13.34-.34-18.23Z"/><path class="u" d="M131.95,117.99c-9.68-4.86-25.22-4.62-34.7,.54-9.49,5.15-9.34,13.27,.34,18.12,9.68,4.86,25.22,4.62,34.7-.53,9.49-5.15,9.34-13.27-.34-18.12Z"/><path class="f" d="M131.86,118.04c-9.62-4.83-25.07-4.59-34.51,.53-9.43,5.12-9.28,13.19,.34,18.02,9.62,4.83,25.07,4.59,34.51-.53,9.43-5.12,9.28-13.19-.34-18.02Z"/><path class="n" d="M131.76,118.1c-9.57-4.8-24.93-4.56-34.31,.53-9.38,5.09-9.23,13.11,.34,17.92,9.57,4.8,24.93,4.56,34.31-.53,9.38-5.09,9.23-13.12-.34-17.92Z"/><path class="g" d="M131.66,118.15c-9.51-4.77-24.78-4.54-34.11,.53-9.33,5.06-9.18,13.04,.34,17.81,9.51,4.77,24.78,4.54,34.11-.53,9.33-5.06,9.18-13.04-.34-17.81Z"/><path class="o" d="M131.56,118.2c-9.46-4.75-24.64-4.51-33.91,.52-9.27,5.03-9.12,12.96,.33,17.71,9.46,4.75,24.64,4.51,33.91-.52,9.27-5.03,9.12-12.96-.33-17.71Z"/><path class="ae" d="M131.46,118.26c-9.4-4.72-24.5-4.49-33.71,.52-9.22,5.01-9.07,12.89,.33,17.61,9.4,4.72,24.5,4.49,33.71-.52,9.22-5.01,9.07-12.89-.33-17.61Z"/><path class="aj" d="M131.37,118.31c-9.35-4.69-24.35-4.46-33.52,.52-9.16,4.98-9.02,12.81,.33,17.5,9.35,4.69,24.35,4.46,33.52-.52,9.16-4.98,9.02-12.81-.33-17.5Z"/><path class="q" d="M131.27,118.36c-9.29-4.66-24.21-4.43-33.32,.51-9.11,4.95-8.96,12.74,.33,17.4,9.29,4.66,24.21,4.43,33.32-.51,9.11-4.95,8.96-12.74-.33-17.4Z"/><path class="r" d="M131.17,118.42c-9.24-4.64-24.06-4.41-33.12,.51-9.06,4.92-8.91,12.66,.33,17.3,9.24,4.64,24.06,4.41,33.12-.51,9.06-4.92,8.91-12.66-.33-17.3Z"/><path class="w" d="M131.07,118.47c-9.18-4.61-23.92-4.38-32.92,.51-9,4.89-8.86,12.59,.32,17.19,9.18,4.61,23.92,4.38,32.92-.51,9-4.89,8.86-12.59-.32-17.19Z"/><path class="ai" d="M130.97,118.52c-9.13-4.58-23.78-4.35-32.72,.5-8.95,4.86-8.8,12.51,.32,17.09,9.13,4.58,23.78,4.35,32.72-.5,8.95-4.86,8.8-12.51-.32-17.09Z"/><path class="m" d="M130.88,118.58c-9.07-4.55-23.63-4.33-32.53,.5-8.89,4.83-8.75,12.43,.32,16.99,9.07,4.55,23.63,4.33,32.53-.5,8.89-4.83,8.75-12.43-.32-16.99Z"/><path class="t" d="M130.78,118.63c-9.02-4.52-23.49-4.3-32.33,.5-8.84,4.8-8.7,12.36,.32,16.88,9.02,4.52,23.49,4.3,32.33-.5,8.84-4.8,8.7-12.36-.32-16.88Z"/><path class="p" d="M130.68,118.68c-8.96-4.5-23.35-4.28-32.13,.5-8.78,4.77-8.64,12.28,.32,16.78,8.96,4.5,23.35,4.28,32.13-.49,8.78-4.77,8.64-12.28-.32-16.78Z"/><path class="ah" d="M130.58,118.73c-8.9-4.47-23.2-4.25-31.93,.49-8.73,4.74-8.59,12.21,.31,16.68,8.9,4.47,23.2,4.25,31.93-.49,8.73-4.74,8.59-12.21-.32-16.68Z"/><path class="j" d="M130.48,118.79c-8.85-4.44-23.06-4.22-31.73,.49-8.68,4.71-8.54,12.13,.31,16.57,8.85,4.44,23.06,4.22,31.73-.49,8.68-4.71,8.54-12.13-.31-16.57Z"/><path class="v" d="M130.39,118.84c-8.79-4.41-22.91-4.2-31.54,.49-8.62,4.68-8.48,12.06,.31,16.47,8.79,4.41,22.91,4.2,31.54-.49,8.62-4.68,8.48-12.06-.31-16.47Z"/><path class="al" d="M130.29,118.89c-8.74-4.39-22.77-4.17-31.34,.48-8.57,4.65-8.43,11.98,.31,16.37,8.74,4.39,22.77,4.17,31.34-.48,8.57-4.65,8.43-11.98-.31-16.37Z"/><path class="ag" d="M130.19,118.95c-8.68-4.36-22.63-4.14-31.14,.48-8.51,4.62-8.38,11.9,.31,16.26,8.68,4.36,22.63,4.14,31.14-.48,8.51-4.62,8.38-11.9-.31-16.26Z"/><path class="b" d="M130.09,119c-8.63-4.33-22.48-4.12-30.94,.48-8.46,4.59-8.32,11.83,.31,16.16,8.63,4.33,22.48,4.12,30.94-.48,8.46-4.59,8.32-11.83-.31-16.16Z"/></g><g class="ac"><path class="c" d="M110.24,106.45c-9.79-4.91-25.5-4.67-35.1,.54-9.6,5.21-9.44,13.42,.35,18.33,9.79,4.91,25.5,4.67,35.1-.54,9.6-5.21,9.44-13.42-.35-18.33Z"/><path class="am" d="M110.14,106.51c-9.73-4.89-25.36-4.64-34.9,.54-9.54,5.18-9.39,13.34,.34,18.23,9.73,4.88,25.36,4.64,34.9-.54,9.54-5.18,9.39-13.34-.34-18.23Z"/><path class="u" d="M110.04,106.56c-9.68-4.86-25.22-4.62-34.7,.54-9.49,5.15-9.34,13.27,.34,18.12,9.68,4.86,25.22,4.62,34.7-.53,9.49-5.15,9.34-13.27-.34-18.12Z"/><path class="f" d="M109.94,106.61c-9.62-4.83-25.07-4.59-34.51,.53-9.43,5.12-9.28,13.19,.34,18.02,9.62,4.83,25.07,4.59,34.51-.53,9.43-5.12,9.28-13.19-.34-18.02Z"/><path class="n" d="M109.85,106.66c-9.57-4.8-24.93-4.56-34.31,.53-9.38,5.09-9.23,13.11,.34,17.92,9.57,4.8,24.93,4.56,34.31-.53,9.38-5.09,9.23-13.12-.34-17.92Z"/><path class="g" d="M109.75,106.72c-9.51-4.77-24.78-4.54-34.11,.53-9.33,5.06-9.18,13.04,.34,17.81,9.51,4.77,24.78,4.54,34.11-.53,9.33-5.06,9.18-13.04-.34-17.81Z"/><path class="o" d="M109.65,106.77c-9.46-4.75-24.64-4.51-33.91,.52-9.27,5.03-9.12,12.96,.33,17.71,9.46,4.75,24.64,4.51,33.91-.52,9.27-5.03,9.12-12.96-.33-17.71Z"/><path class="ae" d="M109.55,106.82c-9.4-4.72-24.5-4.49-33.71,.52-9.22,5.01-9.07,12.89,.33,17.61,9.4,4.72,24.5,4.49,33.71-.52,9.22-5.01,9.07-12.89-.33-17.61Z"/><path class="aj" d="M109.45,106.88c-9.35-4.69-24.35-4.46-33.52,.52-9.16,4.98-9.02,12.81,.33,17.5,9.35,4.69,24.35,4.46,33.52-.52,9.16-4.98,9.02-12.81-.33-17.5Z"/><path class="q" d="M109.36,106.93c-9.29-4.66-24.21-4.43-33.32,.51-9.11,4.95-8.96,12.74,.33,17.4,9.29,4.66,24.21,4.43,33.32-.51,9.11-4.95,8.96-12.74-.33-17.4Z"/><path class="r" d="M109.26,106.98c-9.24-4.64-24.06-4.41-33.12,.51-9.06,4.92-8.91,12.66,.33,17.3,9.24,4.64,24.06,4.41,33.12-.51,9.06-4.92,8.91-12.66-.33-17.3Z"/><path class="w" d="M109.16,107.04c-9.18-4.61-23.92-4.38-32.92,.51-9,4.89-8.86,12.59,.32,17.19,9.18,4.61,23.92,4.38,32.92-.51,9-4.89,8.86-12.59-.32-17.19Z"/><path class="ai" d="M109.06,107.09c-9.13-4.58-23.78-4.35-32.72,.5-8.95,4.86-8.8,12.51,.32,17.09,9.13,4.58,23.78,4.35,32.72-.5,8.95-4.86,8.8-12.51-.32-17.09Z"/><path class="m" d="M108.96,107.14c-9.07-4.55-23.63-4.33-32.53,.5-8.89,4.83-8.75,12.43,.32,16.99,9.07,4.55,23.63,4.33,32.53-.5,8.89-4.83,8.75-12.43-.32-16.99Z"/><path class="t" d="M108.87,107.2c-9.02-4.52-23.49-4.3-32.33,.5-8.84,4.8-8.7,12.36,.32,16.88,9.02,4.52,23.49,4.3,32.33-.5,8.84-4.8,8.7-12.36-.32-16.88Z"/><path class="p" d="M108.77,107.25c-8.96-4.5-23.35-4.28-32.13,.5-8.78,4.77-8.64,12.28,.32,16.78,8.96,4.5,23.35,4.28,32.13-.49,8.78-4.77,8.64-12.28-.32-16.78Z"/><path class="ah" d="M108.67,107.3c-8.9-4.47-23.2-4.25-31.93,.49-8.73,4.74-8.59,12.21,.31,16.68,8.9,4.47,23.2,4.25,31.93-.49,8.73-4.74,8.59-12.21-.32-16.68Z"/><path class="j" d="M108.57,107.36c-8.85-4.44-23.06-4.22-31.73,.49-8.68,4.71-8.54,12.13,.31,16.57,8.85,4.44,23.06,4.22,31.73-.49,8.68-4.71,8.54-12.13-.31-16.57Z"/><path class="v" d="M108.47,107.41c-8.79-4.41-22.91-4.2-31.54,.49-8.62,4.68-8.48,12.06,.31,16.47,8.79,4.41,22.91,4.2,31.54-.49,8.62-4.68,8.48-12.06-.31-16.47Z"/><path class="al" d="M108.38,107.46c-8.74-4.39-22.77-4.17-31.34,.48-8.57,4.65-8.43,11.98,.31,16.37,8.74,4.39,22.77,4.17,31.34-.48,8.57-4.65,8.43-11.98-.31-16.37Z"/><path class="ag" d="M108.28,107.52c-8.68-4.36-22.63-4.14-31.14,.48-8.51,4.62-8.38,11.9,.31,16.26,8.68,4.36,22.63,4.14,31.14-.48,8.51-4.62,8.38-11.9-.31-16.26Z"/><path class="b" d="M108.18,107.57c-8.63-4.33-22.48-4.12-30.94,.48-8.46,4.59-8.32,11.83,.31,16.16,8.63,4.33,22.48,4.12,30.94-.48,8.46-4.59,8.32-11.83-.31-16.16Z"/></g><g class="ac"><path class="c" d="M124.92,81.52c-9.79-4.91-25.5-4.67-35.1,.54-9.6,5.21-9.44,13.42,.35,18.33,9.79,4.91,25.5,4.67,35.1-.54,9.6-5.21,9.44-13.42-.35-18.33Z"/><path class="am" d="M124.82,81.57c-9.73-4.89-25.36-4.64-34.9,.54-9.54,5.18-9.39,13.34,.34,18.23,9.73,4.88,25.36,4.64,34.9-.54,9.54-5.18,9.39-13.34-.34-18.23Z"/><path class="u" d="M124.72,81.62c-9.68-4.86-25.22-4.62-34.7,.54-9.49,5.15-9.34,13.27,.34,18.12,9.68,4.86,25.22,4.62,34.7-.53,9.49-5.15,9.34-13.27-.34-18.12Z"/><path class="f" d="M124.62,81.67c-9.62-4.83-25.07-4.59-34.51,.53-9.43,5.12-9.28,13.19,.34,18.02,9.62,4.83,25.07,4.59,34.51-.53,9.43-5.12,9.28-13.19-.34-18.02Z"/><path class="n" d="M124.52,81.73c-9.57-4.8-24.93-4.56-34.31,.53-9.38,5.09-9.23,13.11,.34,17.92,9.57,4.8,24.93,4.56,34.31-.53,9.38-5.09,9.23-13.12-.34-17.92Z"/><path class="g" d="M124.43,81.78c-9.51-4.77-24.78-4.54-34.11,.53-9.33,5.06-9.18,13.04,.34,17.81,9.51,4.77,24.78,4.54,34.11-.53,9.33-5.06,9.18-13.04-.34-17.81Z"/><path class="o" d="M124.33,81.83c-9.46-4.75-24.64-4.51-33.91,.52-9.27,5.03-9.12,12.96,.33,17.71,9.46,4.75,24.64,4.51,33.91-.52,9.27-5.03,9.12-12.96-.33-17.71Z"/><path class="ae" d="M124.23,81.89c-9.4-4.72-24.5-4.49-33.71,.52-9.22,5.01-9.07,12.89,.33,17.61,9.4,4.72,24.5,4.49,33.71-.52,9.22-5.01,9.07-12.89-.33-17.61Z"/><path class="aj" d="M124.13,81.94c-9.35-4.69-24.35-4.46-33.52,.52-9.16,4.98-9.02,12.81,.33,17.5,9.35,4.69,24.35,4.46,33.52-.52,9.16-4.98,9.02-12.81-.33-17.5Z"/><path class="q" d="M124.03,81.99c-9.29-4.66-24.21-4.43-33.32,.51-9.11,4.95-8.96,12.74,.33,17.4,9.29,4.66,24.21,4.43,33.32-.51,9.11-4.95,8.96-12.74-.33-17.4Z"/><path class="r" d="M123.94,82.05c-9.24-4.64-24.06-4.41-33.12,.51-9.06,4.92-8.91,12.66,.33,17.3,9.24,4.64,24.06,4.41,33.12-.51,9.06-4.92,8.91-12.66-.33-17.3Z"/><path class="w" d="M123.84,82.1c-9.18-4.61-23.92-4.38-32.92,.51-9,4.89-8.86,12.59,.32,17.19,9.18,4.61,23.92,4.38,32.92-.51,9-4.89,8.86-12.59-.32-17.19Z"/><path class="ai" d="M123.74,82.15c-9.13-4.58-23.78-4.35-32.72,.5-8.95,4.86-8.8,12.51,.32,17.09,9.13,4.58,23.78,4.35,32.72-.5,8.95-4.86,8.8-12.51-.32-17.09Z"/><path class="m" d="M123.64,82.21c-9.07-4.55-23.63-4.33-32.53,.5-8.89,4.83-8.75,12.43,.32,16.99,9.07,4.55,23.63,4.33,32.53-.5,8.89-4.83,8.75-12.43-.32-16.99Z"/><path class="t" d="M123.54,82.26c-9.02-4.52-23.49-4.3-32.33,.5-8.84,4.8-8.7,12.36,.32,16.88,9.02,4.52,23.49,4.3,32.33-.5,8.84-4.8,8.7-12.36-.32-16.88Z"/><path class="p" d="M123.45,82.31c-8.96-4.5-23.35-4.28-32.13,.5-8.78,4.77-8.64,12.28,.32,16.78,8.96,4.5,23.35,4.28,32.13-.49,8.78-4.77,8.64-12.28-.32-16.78Z"/><path class="ah" d="M123.35,82.37c-8.9-4.47-23.2-4.25-31.93,.49-8.73,4.74-8.59,12.21,.31,16.68,8.9,4.47,23.2,4.25,31.93-.49,8.73-4.74,8.59-12.21-.32-16.68Z"/><path class="j" d="M123.25,82.42c-8.85-4.44-23.06-4.22-31.73,.49-8.68,4.71-8.54,12.13,.31,16.57,8.85,4.44,23.06,4.22,31.73-.49,8.68-4.71,8.54-12.13-.31-16.57Z"/><path class="v" d="M123.15,82.47c-8.79-4.41-22.91-4.2-31.54,.49-8.62,4.68-8.48,12.06,.31,16.47,8.79,4.41,22.91,4.2,31.54-.49,8.62-4.68,8.48-12.06-.31-16.47Z"/><path class="al" d="M123.05,82.53c-8.74-4.39-22.77-4.17-31.34,.48-8.57,4.65-8.43,11.98,.31,16.37,8.74,4.39,22.77,4.17,31.34-.48,8.57-4.65,8.43-11.98-.31-16.37Z"/><path class="ag" d="M122.96,82.58c-8.68-4.36-22.63-4.14-31.14,.48-8.51,4.62-8.38,11.9,.31,16.26,8.68,4.36,22.63,4.14,31.14-.48,8.51-4.62,8.38-11.9-.31-16.26Z"/><path class="b" d="M122.86,82.63c-8.63-4.33-22.48-4.12-30.94,.48-8.46,4.59-8.32,11.83,.31,16.16,8.63,4.33,22.48,4.12,30.94-.48,8.46-4.59,8.32-11.83-.31-16.16Z"/></g><g class="ac"><path class="c" d="M103.01,70.08c-9.79-4.91-25.5-4.67-35.1,.54-9.6,5.21-9.44,13.42,.35,18.33,9.79,4.91,25.5,4.67,35.1-.54,9.6-5.21,9.44-13.42-.35-18.33Z"/><path class="am" d="M102.91,70.14c-9.73-4.89-25.36-4.64-34.9,.54-9.54,5.18-9.39,13.34,.34,18.23,9.73,4.88,25.36,4.64,34.9-.54,9.54-5.18,9.39-13.34-.34-18.23Z"/><path class="u" d="M102.81,70.19c-9.68-4.86-25.22-4.62-34.7,.54-9.49,5.15-9.34,13.27,.34,18.12,9.68,4.86,25.22,4.62,34.7-.53,9.49-5.15,9.34-13.27-.34-18.12Z"/><path class="f" d="M102.71,70.24c-9.62-4.83-25.07-4.59-34.51,.53-9.43,5.12-9.28,13.19,.34,18.02,9.62,4.83,25.07,4.59,34.51-.53,9.43-5.12,9.28-13.19-.34-18.02Z"/><path class="n" d="M102.61,70.3c-9.57-4.8-24.93-4.56-34.31,.53-9.38,5.09-9.23,13.11,.34,17.92,9.57,4.8,24.93,4.56,34.31-.53,9.38-5.09,9.23-13.12-.34-17.92Z"/><path class="g" d="M102.52,70.35c-9.51-4.77-24.78-4.54-34.11,.53-9.33,5.06-9.18,13.04,.34,17.81,9.51,4.77,24.78,4.54,34.11-.53,9.33-5.06,9.18-13.04-.34-17.81Z"/><path class="o" d="M102.42,70.4c-9.46-4.75-24.64-4.51-33.91,.52-9.27,5.03-9.12,12.96,.33,17.71,9.46,4.75,24.64,4.51,33.91-.52,9.27-5.03,9.12-12.96-.33-17.71Z"/><path class="ae" d="M102.32,70.46c-9.4-4.72-24.5-4.49-33.71,.52-9.22,5.01-9.07,12.89,.33,17.61,9.4,4.72,24.5,4.49,33.71-.52,9.22-5.01,9.07-12.89-.33-17.61Z"/><path class="aj" d="M102.22,70.51c-9.35-4.69-24.35-4.46-33.52,.52-9.16,4.98-9.02,12.81,.33,17.5,9.35,4.69,24.35,4.46,33.52-.52,9.16-4.98,9.02-12.81-.33-17.5Z"/><path class="q" d="M102.12,70.56c-9.29-4.66-24.21-4.43-33.32,.51-9.11,4.95-8.96,12.74,.33,17.4,9.29,4.66,24.21,4.43,33.32-.51,9.11-4.95,8.96-12.74-.33-17.4Z"/><path class="r" d="M102.03,70.62c-9.24-4.64-24.06-4.41-33.12,.51-9.06,4.92-8.91,12.66,.33,17.3,9.24,4.64,24.06,4.41,33.12-.51,9.06-4.92,8.91-12.66-.33-17.3Z"/><path class="w" d="M101.93,70.67c-9.18-4.61-23.92-4.38-32.92,.51-9,4.89-8.86,12.59,.32,17.19,9.18,4.61,23.92,4.38,32.92-.51,9-4.89,8.86-12.59-.32-17.19Z"/><path class="ai" d="M101.83,70.72c-9.13-4.58-23.78-4.35-32.72,.5-8.95,4.86-8.8,12.51,.32,17.09,9.13,4.58,23.78,4.35,32.72-.5,8.95-4.86,8.8-12.51-.32-17.09Z"/><path class="m" d="M101.73,70.77c-9.07-4.55-23.63-4.33-32.53,.5-8.89,4.83-8.75,12.43,.32,16.99,9.07,4.55,23.63,4.33,32.53-.5,8.89-4.83,8.75-12.43-.32-16.99Z"/><path class="t" d="M101.63,70.83c-9.02-4.52-23.49-4.3-32.33,.5-8.84,4.8-8.7,12.36,.32,16.88,9.02,4.52,23.49,4.3,32.33-.5,8.84-4.8,8.7-12.36-.32-16.88Z"/><path class="p" d="M101.54,70.88c-8.96-4.5-23.35-4.28-32.13,.5-8.78,4.77-8.64,12.28,.32,16.78,8.96,4.5,23.35,4.28,32.13-.49,8.78-4.77,8.64-12.28-.32-16.78Z"/><path class="ah" d="M101.44,70.93c-8.9-4.47-23.2-4.25-31.93,.49-8.73,4.74-8.59,12.21,.31,16.68,8.9,4.47,23.2,4.25,31.93-.49,8.73-4.74,8.59-12.21-.32-16.68Z"/><path class="j" d="M101.34,70.99c-8.85-4.44-23.06-4.22-31.73,.49-8.68,4.71-8.54,12.13,.31,16.57,8.85,4.44,23.06,4.22,31.73-.49,8.68-4.71,8.54-12.13-.31-16.57Z"/><path class="v" d="M101.24,71.04c-8.79-4.41-22.91-4.2-31.54,.49-8.62,4.68-8.48,12.06,.31,16.47,8.79,4.41,22.91,4.2,31.54-.49,8.62-4.68,8.48-12.06-.31-16.47Z"/><path class="al" d="M101.14,71.09c-8.74-4.39-22.77-4.17-31.34,.48-8.57,4.65-8.43,11.98,.31,16.37,8.74,4.39,22.77,4.17,31.34-.48,8.57-4.65,8.43-11.98-.31-16.37Z"/><path class="ag" d="M101.05,71.15c-8.68-4.36-22.63-4.14-31.14,.48-8.51,4.62-8.38,11.9,.31,16.26,8.68,4.36,22.63,4.14,31.14-.48,8.51-4.62,8.38-11.9-.31-16.26Z"/><path class="b" d="M100.95,71.2c-8.63-4.33-22.48-4.12-30.94,.48-8.46,4.59-8.32,11.83,.31,16.16,8.63,4.33,22.48,4.12,30.94-.48,8.46-4.59,8.32-11.83-.31-16.16Z"/></g><g class="ac"><path class="c" d="M78.19,55.97c-9.79-4.91-25.5-4.67-35.1,.54-9.6,5.21-9.44,13.42,.35,18.33,9.79,4.91,25.5,4.67,35.1-.54,9.6-5.21,9.44-13.42-.35-18.33Z"/><path class="am" d="M78.09,56.03c-9.73-4.89-25.36-4.64-34.9,.54-9.54,5.18-9.39,13.34,.34,18.23,9.73,4.88,25.36,4.64,34.9-.54,9.54-5.18,9.39-13.34-.34-18.23Z"/><path class="u" d="M77.99,56.08c-9.68-4.86-25.22-4.62-34.7,.54-9.49,5.15-9.34,13.27,.34,18.12,9.68,4.86,25.22,4.62,34.7-.53,9.49-5.15,9.34-13.27-.34-18.12Z"/><path class="f" d="M77.89,56.13c-9.62-4.83-25.07-4.59-34.51,.53-9.43,5.12-9.28,13.19,.34,18.02,9.62,4.83,25.07,4.59,34.51-.53,9.43-5.12,9.28-13.19-.34-18.02Z"/><path class="n" d="M77.79,56.19c-9.57-4.8-24.93-4.56-34.31,.53-9.38,5.09-9.23,13.11,.34,17.92,9.57,4.8,24.93,4.56,34.31-.53,9.38-5.09,9.23-13.12-.34-17.92Z"/><path class="g" d="M77.7,56.24c-9.51-4.77-24.78-4.54-34.11,.53-9.33,5.06-9.18,13.04,.34,17.81,9.51,4.77,24.78,4.54,34.11-.53,9.33-5.06,9.18-13.04-.34-17.81Z"/><path class="o" d="M77.6,56.29c-9.46-4.75-24.64-4.51-33.91,.52-9.27,5.03-9.12,12.96,.33,17.71,9.46,4.75,24.64,4.51,33.91-.52,9.27-5.03,9.12-12.96-.33-17.71Z"/><path class="ae" d="M77.5,56.35c-9.4-4.72-24.5-4.49-33.71,.52-9.22,5.01-9.07,12.89,.33,17.61,9.4,4.72,24.5,4.49,33.71-.52,9.22-5.01,9.07-12.89-.33-17.61Z"/><path class="aj" d="M77.4,56.4c-9.35-4.69-24.35-4.46-33.52,.52-9.16,4.98-9.02,12.81,.33,17.5,9.35,4.69,24.35,4.46,33.52-.52,9.16-4.98,9.02-12.81-.33-17.5Z"/><path class="q" d="M77.3,56.45c-9.29-4.66-24.21-4.43-33.32,.51-9.11,4.95-8.96,12.74,.33,17.4,9.29,4.66,24.21,4.43,33.32-.51,9.11-4.95,8.96-12.74-.33-17.4Z"/><path class="r" d="M77.21,56.51c-9.24-4.64-24.06-4.41-33.12,.51-9.06,4.92-8.91,12.66,.33,17.3,9.24,4.64,24.06,4.41,33.12-.51,9.06-4.92,8.91-12.66-.33-17.3Z"/><path class="w" d="M77.11,56.56c-9.18-4.61-23.92-4.38-32.92,.51-9,4.89-8.86,12.59,.32,17.19,9.18,4.61,23.92,4.38,32.92-.51,9-4.89,8.86-12.59-.32-17.19Z"/><path class="ai" d="M77.01,56.61c-9.13-4.58-23.78-4.35-32.72,.5-8.95,4.86-8.8,12.51,.32,17.09,9.13,4.58,23.78,4.35,32.72-.5,8.95-4.86,8.8-12.51-.32-17.09Z"/><path class="m" d="M76.91,56.67c-9.07-4.55-23.63-4.33-32.53,.5-8.89,4.83-8.75,12.43,.32,16.99,9.07,4.55,23.63,4.33,32.53-.5,8.89-4.83,8.75-12.43-.32-16.99Z"/><path class="t" d="M76.81,56.72c-9.02-4.52-23.49-4.3-32.33,.5-8.84,4.8-8.7,12.36,.32,16.88,9.02,4.52,23.49,4.3,32.33-.5,8.84-4.8,8.7-12.36-.32-16.88Z"/><path class="p" d="M76.71,56.77c-8.96-4.5-23.35-4.28-32.13,.5-8.78,4.77-8.64,12.28,.32,16.78,8.96,4.5,23.35,4.28,32.13-.49,8.78-4.77,8.64-12.28-.32-16.78Z"/><path class="ah" d="M76.62,56.83c-8.9-4.47-23.2-4.25-31.93,.49-8.73,4.74-8.59,12.21,.31,16.68,8.9,4.47,23.2,4.25,31.93-.49,8.73-4.74,8.59-12.21-.32-16.68Z"/><path class="j" d="M76.52,56.88c-8.85-4.44-23.06-4.22-31.73,.49-8.68,4.71-8.54,12.13,.31,16.57,8.85,4.44,23.06,4.22,31.73-.49,8.68-4.71,8.54-12.13-.31-16.57Z"/><path class="v" d="M76.42,56.93c-8.79-4.41-22.91-4.2-31.54,.49-8.62,4.68-8.48,12.06,.31,16.47,8.79,4.41,22.91,4.2,31.54-.49,8.62-4.68,8.48-12.06-.31-16.47Z"/><path class="al" d="M76.32,56.99c-8.74-4.39-22.77-4.17-31.34,.48-8.57,4.65-8.43,11.98,.31,16.37,8.74,4.39,22.77,4.17,31.34-.48,8.57-4.65,8.43-11.98-.31-16.37Z"/><path class="ag" d="M76.22,57.04c-8.68-4.36-22.63-4.14-31.14,.48-8.51,4.62-8.38,11.9,.31,16.26,8.68,4.36,22.63,4.14,31.14-.48,8.51-4.62,8.38-11.9-.31-16.26Z"/><path class="b" d="M76.13,57.09c-8.63-4.33-22.48-4.12-30.94,.48-8.46,4.59-8.32,11.83,.31,16.16,8.63,4.33,22.48,4.12,30.94-.48,8.46-4.59,8.32-11.83-.31-16.16Z"/></g><g class="ac"><path class="c" d="M85.42,92.34c-9.79-4.91-25.5-4.67-35.1,.54-9.6,5.21-9.44,13.42,.35,18.33,9.79,4.91,25.5,4.67,35.1-.54,9.6-5.21,9.44-13.42-.35-18.33Z"/><path class="am" d="M85.32,92.4c-9.73-4.89-25.36-4.64-34.9,.54-9.54,5.18-9.39,13.34,.34,18.23,9.73,4.88,25.36,4.64,34.9-.54,9.54-5.18,9.39-13.34-.34-18.23Z"/><path class="u" d="M85.22,92.45c-9.68-4.86-25.22-4.62-34.7,.54-9.49,5.15-9.34,13.27,.34,18.12,9.68,4.86,25.22,4.62,34.7-.53,9.49-5.15,9.34-13.27-.34-18.12Z"/><path class="f" d="M85.12,92.5c-9.62-4.83-25.07-4.59-34.51,.53-9.43,5.12-9.28,13.19,.34,18.02,9.62,4.83,25.07,4.59,34.51-.53,9.43-5.12,9.28-13.19-.34-18.02Z"/><path class="n" d="M85.03,92.56c-9.57-4.8-24.93-4.56-34.31,.53-9.38,5.09-9.23,13.11,.34,17.92,9.57,4.8,24.93,4.56,34.31-.53,9.38-5.09,9.23-13.12-.34-17.92Z"/><path class="g" d="M84.93,92.61c-9.51-4.77-24.78-4.54-34.11,.53-9.33,5.06-9.18,13.04,.34,17.81,9.51,4.77,24.78,4.54,34.11-.53,9.33-5.06,9.18-13.04-.34-17.81Z"/><path class="o" d="M84.83,92.66c-9.46-4.75-24.64-4.51-33.91,.52-9.27,5.03-9.12,12.96,.33,17.71,9.46,4.75,24.64,4.51,33.91-.52,9.27-5.03,9.12-12.96-.33-17.71Z"/><path class="ae" d="M84.73,92.72c-9.4-4.72-24.5-4.49-33.71,.52-9.22,5.01-9.07,12.89,.33,17.61,9.4,4.72,24.5,4.49,33.71-.52,9.22-5.01,9.07-12.89-.33-17.61Z"/><path class="aj" d="M84.63,92.77c-9.35-4.69-24.35-4.46-33.52,.52-9.16,4.98-9.02,12.81,.33,17.5,9.35,4.69,24.35,4.46,33.52-.52,9.16-4.98,9.02-12.81-.33-17.5Z"/><path class="q" d="M84.54,92.82c-9.29-4.66-24.21-4.43-33.32,.51-9.11,4.95-8.96,12.74,.33,17.4,9.29,4.66,24.21,4.43,33.32-.51,9.11-4.95,8.96-12.74-.33-17.4Z"/><path class="r" d="M84.44,92.88c-9.24-4.64-24.06-4.41-33.12,.51-9.06,4.92-8.91,12.66,.33,17.3,9.24,4.64,24.06,4.41,33.12-.51,9.06-4.92,8.91-12.66-.33-17.3Z"/><path class="w" d="M84.34,92.93c-9.18-4.61-23.92-4.38-32.92,.51-9,4.89-8.86,12.59,.32,17.19,9.18,4.61,23.92,4.38,32.92-.51,9-4.89,8.86-12.59-.32-17.19Z"/><path class="ai" d="M84.24,92.98c-9.13-4.58-23.78-4.35-32.72,.5-8.95,4.86-8.8,12.51,.32,17.09,9.13,4.58,23.78,4.35,32.72-.5,8.95-4.86,8.8-12.51-.32-17.09Z"/><path class="m" d="M84.14,93.03c-9.07-4.55-23.63-4.33-32.53,.5-8.89,4.83-8.75,12.43,.32,16.99,9.07,4.55,23.63,4.33,32.53-.5,8.89-4.83,8.75-12.43-.32-16.99Z"/><path class="t" d="M84.05,93.09c-9.02-4.52-23.49-4.3-32.33,.5-8.84,4.8-8.7,12.36,.32,16.88,9.02,4.52,23.49,4.3,32.33-.5,8.84-4.8,8.7-12.36-.32-16.88Z"/><path class="p" d="M83.95,93.14c-8.96-4.5-23.35-4.28-32.13,.5-8.78,4.77-8.64,12.28,.32,16.78,8.96,4.5,23.35,4.28,32.13-.49,8.78-4.77,8.64-12.28-.32-16.78Z"/><path class="ah" d="M83.85,93.19c-8.9-4.47-23.2-4.25-31.93,.49-8.73,4.74-8.59,12.21,.31,16.68,8.9,4.47,23.2,4.25,31.93-.49,8.73-4.74,8.59-12.21-.32-16.68Z"/><path class="j" d="M83.75,93.25c-8.85-4.44-23.06-4.22-31.73,.49-8.68,4.71-8.54,12.13,.31,16.57,8.85,4.44,23.06,4.22,31.73-.49,8.68-4.71,8.54-12.13-.31-16.57Z"/><path class="v" d="M83.65,93.3c-8.79-4.41-22.91-4.2-31.54,.49-8.62,4.68-8.48,12.06,.31,16.47,8.79,4.41,22.91,4.2,31.54-.49,8.62-4.68,8.48-12.06-.31-16.47Z"/><path class="al" d="M83.56,93.35c-8.74-4.39-22.77-4.17-31.34,.48-8.57,4.65-8.43,11.98,.31,16.37,8.74,4.39,22.77,4.17,31.34-.48,8.57-4.65,8.43-11.98-.31-16.37Z"/><path class="ag" d="M83.46,93.41c-8.68-4.36-22.63-4.14-31.14,.48-8.51,4.62-8.38,11.9,.31,16.26,8.68,4.36,22.63,4.14,31.14-.48,8.51-4.62,8.38-11.9-.31-16.26Z"/><path class="b" d="M83.36,93.46c-8.63-4.33-22.48-4.12-30.94,.48-8.46,4.59-8.32,11.83,.31,16.16,8.63,4.33,22.48,4.12,30.94-.48,8.46-4.59,8.32-11.83-.31-16.16Z"/></g><g class="ac"><path class="c" d="M98.38,135.11c-9.79-4.91-25.5-4.67-35.1,.54-9.6,5.21-9.44,13.42,.35,18.33,9.79,4.91,25.5,4.67,35.1-.54,9.6-5.21,9.44-13.42-.35-18.33Z"/><path class="am" d="M98.28,135.16c-9.73-4.89-25.36-4.64-34.9,.54-9.54,5.18-9.39,13.34,.34,18.23,9.73,4.88,25.36,4.64,34.9-.54,9.54-5.18,9.39-13.34-.34-18.23Z"/><path class="u" d="M98.18,135.21c-9.68-4.86-25.22-4.62-34.7,.54-9.49,5.15-9.34,13.27,.34,18.12,9.68,4.86,25.22,4.62,34.7-.53,9.49-5.15,9.34-13.27-.34-18.12Z"/><path class="f" d="M98.08,135.27c-9.62-4.83-25.07-4.59-34.51,.53-9.43,5.12-9.28,13.19,.34,18.02,9.62,4.83,25.07,4.59,34.51-.53,9.43-5.12,9.28-13.19-.34-18.02Z"/><path class="n" d="M97.99,135.32c-9.57-4.8-24.93-4.56-34.31,.53-9.38,5.09-9.23,13.11,.34,17.92,9.57,4.8,24.93,4.56,34.31-.53,9.38-5.09,9.23-13.12-.34-17.92Z"/><path class="g" d="M97.89,135.37c-9.51-4.77-24.78-4.54-34.11,.53-9.33,5.06-9.18,13.04,.34,17.81,9.51,4.77,24.78,4.54,34.11-.53,9.33-5.06,9.18-13.04-.34-17.81Z"/><path class="o" d="M97.79,135.43c-9.46-4.75-24.64-4.51-33.91,.52-9.27,5.03-9.12,12.96,.33,17.71,9.46,4.75,24.64,4.51,33.91-.52,9.27-5.03,9.12-12.96-.33-17.71Z"/><path class="ae" d="M97.69,135.48c-9.4-4.72-24.5-4.49-33.71,.52-9.22,5.01-9.07,12.89,.33,17.61,9.4,4.72,24.5,4.49,33.71-.52,9.22-5.01,9.07-12.89-.33-17.61Z"/><path class="aj" d="M97.59,135.53c-9.35-4.69-24.35-4.46-33.52,.52-9.16,4.98-9.02,12.81,.33,17.5,9.35,4.69,24.35,4.46,33.52-.52,9.16-4.98,9.02-12.81-.33-17.5Z"/><path class="q" d="M97.5,135.59c-9.29-4.66-24.21-4.43-33.32,.51-9.11,4.95-8.96,12.74,.33,17.4,9.29,4.66,24.21,4.43,33.32-.51,9.11-4.95,8.96-12.74-.33-17.4Z"/><path class="r" d="M97.4,135.64c-9.24-4.64-24.06-4.41-33.12,.51-9.06,4.92-8.91,12.66,.33,17.3,9.24,4.64,24.06,4.41,33.12-.51,9.06-4.92,8.91-12.66-.33-17.3Z"/><path class="w" d="M97.3,135.69c-9.18-4.61-23.92-4.38-32.92,.51-9,4.89-8.86,12.59,.32,17.19,9.18,4.61,23.92,4.38,32.92-.51,9-4.89,8.86-12.59-.32-17.19Z"/><path class="ai" d="M97.2,135.75c-9.13-4.58-23.78-4.35-32.72,.5-8.95,4.86-8.8,12.51,.32,17.09,9.13,4.58,23.78,4.35,32.72-.5,8.95-4.86,8.8-12.51-.32-17.09Z"/><path class="m" d="M97.1,135.8c-9.07-4.55-23.63-4.33-32.53,.5-8.89,4.83-8.75,12.43,.32,16.99,9.07,4.55,23.63,4.33,32.53-.5,8.89-4.83,8.75-12.43-.32-16.99Z"/><path class="t" d="M97.01,135.85c-9.02-4.52-23.49-4.3-32.33,.5-8.84,4.8-8.7,12.36,.32,16.88,9.02,4.52,23.49,4.3,32.33-.5,8.84-4.8,8.7-12.36-.32-16.88Z"/><path class="p" d="M96.91,135.91c-8.96-4.5-23.35-4.28-32.13,.5-8.78,4.77-8.64,12.28,.32,16.78,8.96,4.5,23.35,4.28,32.13-.49,8.78-4.77,8.64-12.28-.32-16.78Z"/><path class="ah" d="M96.81,135.96c-8.9-4.47-23.2-4.25-31.93,.49-8.73,4.74-8.59,12.21,.31,16.68,8.9,4.47,23.2,4.25,31.93-.49,8.73-4.74,8.59-12.21-.32-16.68Z"/><path class="j" d="M96.71,136.01c-8.85-4.44-23.06-4.22-31.73,.49-8.68,4.71-8.54,12.13,.31,16.57,8.85,4.44,23.06,4.22,31.73-.49,8.68-4.71,8.54-12.13-.31-16.57Z"/><path class="v" d="M96.61,136.07c-8.79-4.41-22.91-4.2-31.54,.49-8.62,4.68-8.48,12.06,.31,16.47,8.79,4.41,22.91,4.2,31.54-.49,8.62-4.68,8.48-12.06-.31-16.47Z"/><path class="al" d="M96.52,136.12c-8.74-4.39-22.77-4.17-31.34,.48-8.57,4.65-8.43,11.98,.31,16.37,8.74,4.39,22.77,4.17,31.34-.48,8.57-4.65,8.43-11.98-.31-16.37Z"/><path class="ag" d="M96.42,136.17c-8.68-4.36-22.63-4.14-31.14,.48-8.51,4.62-8.38,11.9,.31,16.26,8.68,4.36,22.63,4.14,31.14-.48,8.51-4.62,8.38-11.9-.31-16.26Z"/><path class="b" d="M96.32,136.23c-8.63-4.33-22.48-4.12-30.94,.48-8.46,4.59-8.32,11.83,.31,16.16,8.63,4.33,22.48,4.12,30.94-.48,8.46-4.59,8.32-11.83-.31-16.16Z"/></g><g class="ac"><path class="c" d="M73.78,122.14c-9.79-4.91-25.5-4.67-35.1,.54-9.6,5.21-9.44,13.42,.35,18.33,9.79,4.91,25.5,4.67,35.1-.54,9.6-5.21,9.44-13.42-.35-18.33Z"/><path class="am" d="M73.68,122.19c-9.73-4.89-25.36-4.64-34.9,.54-9.54,5.18-9.39,13.34,.34,18.23,9.73,4.88,25.36,4.64,34.9-.54,9.54-5.18,9.39-13.34-.34-18.23Z"/><path class="u" d="M73.58,122.25c-9.68-4.86-25.22-4.62-34.7,.54-9.49,5.15-9.34,13.27,.34,18.12,9.68,4.86,25.22,4.62,34.7-.53,9.49-5.15,9.34-13.27-.34-18.12Z"/><path class="f" d="M73.48,122.3c-9.62-4.83-25.07-4.59-34.51,.53-9.43,5.12-9.28,13.19,.34,18.02,9.62,4.83,25.07,4.59,34.51-.53,9.43-5.12,9.28-13.19-.34-18.02Z"/><path class="n" d="M73.39,122.35c-9.57-4.8-24.93-4.56-34.31,.53-9.38,5.09-9.23,13.11,.34,17.92,9.57,4.8,24.93,4.56,34.31-.53,9.38-5.09,9.23-13.12-.34-17.92Z"/><path class="g" d="M73.29,122.41c-9.51-4.77-24.78-4.54-34.11,.53-9.33,5.06-9.18,13.04,.34,17.81,9.51,4.77,24.78,4.54,34.11-.53,9.33-5.06,9.18-13.04-.34-17.81Z"/><path class="o" d="M73.19,122.46c-9.46-4.75-24.64-4.51-33.91,.52-9.27,5.03-9.12,12.96,.33,17.71,9.46,4.75,24.64,4.51,33.91-.52,9.27-5.03,9.12-12.96-.33-17.71Z"/><path class="ae" d="M73.09,122.51c-9.4-4.72-24.5-4.49-33.71,.52-9.22,5.01-9.07,12.89,.33,17.61,9.4,4.72,24.5,4.49,33.71-.52,9.22-5.01,9.07-12.89-.33-17.61Z"/><path class="aj" d="M72.99,122.57c-9.35-4.69-24.35-4.46-33.52,.52-9.16,4.98-9.02,12.81,.33,17.5,9.35,4.69,24.35,4.46,33.52-.52,9.16-4.98,9.02-12.81-.33-17.5Z"/><path class="q" d="M72.9,122.62c-9.29-4.66-24.21-4.43-33.32,.51-9.11,4.95-8.96,12.74,.33,17.4,9.29,4.66,24.21,4.43,33.32-.51,9.11-4.95,8.96-12.74-.33-17.4Z"/><path class="r" d="M72.8,122.67c-9.24-4.64-24.06-4.41-33.12,.51-9.06,4.92-8.91,12.66,.33,17.3,9.24,4.64,24.06,4.41,33.12-.51,9.06-4.92,8.91-12.66-.33-17.3Z"/><path class="w" d="M72.7,122.73c-9.18-4.61-23.92-4.38-32.92,.51-9,4.89-8.86,12.59,.32,17.19,9.18,4.61,23.92,4.38,32.92-.51,9-4.89,8.86-12.59-.32-17.19Z"/><path class="ai" d="M72.6,122.78c-9.13-4.58-23.78-4.35-32.72,.5-8.95,4.86-8.8,12.51,.32,17.09,9.13,4.58,23.78,4.35,32.72-.5,8.95-4.86,8.8-12.51-.32-17.09Z"/><path class="m" d="M72.5,122.83c-9.07-4.55-23.63-4.33-32.53,.5-8.89,4.83-8.75,12.43,.32,16.99,9.07,4.55,23.63,4.33,32.53-.5,8.89-4.83,8.75-12.43-.32-16.99Z"/><path class="t" d="M72.41,122.89c-9.02-4.52-23.49-4.3-32.33,.5-8.84,4.8-8.7,12.36,.32,16.88,9.02,4.52,23.49,4.3,32.33-.5,8.84-4.8,8.7-12.36-.32-16.88Z"/><path class="p" d="M72.31,122.94c-8.96-4.5-23.35-4.28-32.13,.5-8.78,4.77-8.64,12.28,.32,16.78,8.96,4.5,23.35,4.28,32.13-.49,8.78-4.77,8.64-12.28-.32-16.78Z"/><path class="ah" d="M72.21,122.99c-8.9-4.47-23.2-4.25-31.93,.49-8.73,4.74-8.59,12.21,.31,16.68,8.9,4.47,23.2,4.25,31.93-.49,8.73-4.74,8.59-12.21-.32-16.68Z"/><path class="j" d="M72.11,123.05c-8.85-4.44-23.06-4.22-31.73,.49-8.68,4.71-8.54,12.13,.31,16.57,8.85,4.44,23.06,4.22,31.73-.49,8.68-4.71,8.54-12.13-.31-16.57Z"/><path class="v" d="M72.01,123.1c-8.79-4.41-22.91-4.2-31.54,.49-8.62,4.68-8.48,12.06,.31,16.47,8.79,4.41,22.91,4.2,31.54-.49,8.62-4.68,8.48-12.06-.31-16.47Z"/><path class="al" d="M71.92,123.15c-8.74-4.39-22.77-4.17-31.34,.48-8.57,4.65-8.43,11.98,.31,16.37,8.74,4.39,22.77,4.17,31.34-.48,8.57-4.65,8.43-11.98-.31-16.37Z"/><path class="ag" d="M71.82,123.2c-8.68-4.36-22.63-4.14-31.14,.48-8.51,4.62-8.38,11.9,.31,16.26,8.68,4.36,22.63,4.14,31.14-.48,8.51-4.62,8.38-11.9-.31-16.26Z"/><path class="b" d="M71.72,123.26c-8.63-4.33-22.48-4.12-30.94,.48-8.46,4.59-8.32,11.83,.31,16.16,8.63,4.33,22.48,4.12,30.94-.48,8.46-4.59,8.32-11.83-.31-16.16Z"/></g><g class="ac"><path class="c" d="M48.96,108.03c-9.79-4.91-25.5-4.67-35.1,.54-9.6,5.21-9.44,13.42,.35,18.33,9.79,4.91,25.5,4.67,35.1-.54,9.6-5.21,9.44-13.42-.35-18.33Z"/><path class="am" d="M48.86,108.09c-9.73-4.89-25.36-4.64-34.9,.54-9.54,5.18-9.39,13.34,.34,18.23,9.73,4.88,25.36,4.64,34.9-.54,9.54-5.18,9.39-13.34-.34-18.23Z"/><path class="u" d="M48.76,108.14c-9.68-4.86-25.22-4.62-34.7,.54-9.49,5.15-9.34,13.27,.34,18.12,9.68,4.86,25.22,4.62,34.7-.53,9.49-5.15,9.34-13.27-.34-18.12Z"/><path class="f" d="M48.66,108.19c-9.62-4.83-25.07-4.59-34.51,.53-9.43,5.12-9.28,13.19,.34,18.02,9.62,4.83,25.07,4.59,34.51-.53,9.43-5.12,9.28-13.19-.34-18.02Z"/><path class="n" d="M48.57,108.24c-9.57-4.8-24.93-4.56-34.31,.53-9.38,5.09-9.23,13.11,.34,17.92,9.57,4.8,24.93,4.56,34.31-.53,9.38-5.09,9.23-13.12-.34-17.92Z"/><path class="g" d="M48.47,108.3c-9.51-4.77-24.78-4.54-34.11,.53-9.33,5.06-9.18,13.04,.34,17.81,9.51,4.77,24.78,4.54,34.11-.53,9.33-5.06,9.18-13.04-.34-17.81Z"/><path class="o" d="M48.37,108.35c-9.46-4.75-24.64-4.51-33.91,.52-9.27,5.03-9.12,12.96,.33,17.71,9.46,4.75,24.64,4.51,33.91-.52,9.27-5.03,9.12-12.96-.33-17.71Z"/><path class="ae" d="M48.27,108.4c-9.4-4.72-24.5-4.49-33.71,.52-9.22,5.01-9.07,12.89,.33,17.61,9.4,4.72,24.5,4.49,33.71-.52,9.22-5.01,9.07-12.89-.33-17.61Z"/><path class="aj" d="M48.17,108.46c-9.35-4.69-24.35-4.46-33.52,.52-9.16,4.98-9.02,12.81,.33,17.5,9.35,4.69,24.35,4.46,33.52-.52,9.16-4.98,9.02-12.81-.33-17.5Z"/><path class="q" d="M48.08,108.51c-9.29-4.66-24.21-4.43-33.32,.51-9.11,4.95-8.96,12.74,.33,17.4,9.29,4.66,24.21,4.43,33.32-.51,9.11-4.95,8.96-12.74-.33-17.4Z"/><path class="r" d="M47.98,108.56c-9.24-4.64-24.06-4.41-33.12,.51-9.06,4.92-8.91,12.66,.33,17.3,9.24,4.64,24.06,4.41,33.12-.51,9.06-4.92,8.91-12.66-.33-17.3Z"/><path class="w" d="M47.88,108.62c-9.18-4.61-23.92-4.38-32.92,.51-9,4.89-8.86,12.59,.32,17.19,9.18,4.61,23.92,4.38,32.92-.51,9-4.89,8.86-12.59-.32-17.19Z"/><path class="ai" d="M47.78,108.67c-9.13-4.58-23.78-4.35-32.72,.5-8.95,4.86-8.8,12.51,.32,17.09,9.13,4.58,23.78,4.35,32.72-.5,8.95-4.86,8.8-12.51-.32-17.09Z"/><path class="m" d="M47.68,108.72c-9.07-4.55-23.63-4.33-32.53,.5-8.89,4.83-8.75,12.43,.32,16.99,9.07,4.55,23.63,4.33,32.53-.5,8.89-4.83,8.75-12.43-.32-16.99Z"/><path class="t" d="M47.59,108.78c-9.02-4.52-23.49-4.3-32.33,.5-8.84,4.8-8.7,12.36,.32,16.88,9.02,4.52,23.49,4.3,32.33-.5,8.84-4.8,8.7-12.36-.32-16.88Z"/><path class="p" d="M47.49,108.83c-8.96-4.5-23.35-4.28-32.13,.5-8.78,4.77-8.64,12.28,.32,16.78,8.96,4.5,23.35,4.28,32.13-.49,8.78-4.77,8.64-12.28-.32-16.78Z"/><path class="ah" d="M47.39,108.88c-8.9-4.47-23.2-4.25-31.93,.49-8.73,4.74-8.59,12.21,.31,16.68,8.9,4.47,23.2,4.25,31.93-.49,8.73-4.74,8.59-12.21-.32-16.68Z"/><path class="j" d="M47.29,108.94c-8.85-4.44-23.06-4.22-31.73,.49-8.68,4.71-8.54,12.13,.31,16.57,8.85,4.44,23.06,4.22,31.73-.49,8.68-4.71,8.54-12.13-.31-16.57Z"/><path class="v" d="M47.19,108.99c-8.79-4.41-22.91-4.2-31.54,.49-8.62,4.68-8.48,12.06,.31,16.47,8.79,4.41,22.91,4.2,31.54-.49,8.62-4.68,8.48-12.06-.31-16.47Z"/><path class="al" d="M47.1,109.04c-8.74-4.39-22.77-4.17-31.34,.48-8.57,4.65-8.43,11.98,.31,16.37,8.74,4.39,22.77,4.17,31.34-.48,8.57-4.65,8.43-11.98-.31-16.37Z"/><path class="ag" d="M47,109.1c-8.68-4.36-22.63-4.14-31.14,.48-8.51,4.62-8.38,11.9,.31,16.26,8.68,4.36,22.63,4.14,31.14-.48,8.51-4.62,8.38-11.9-.31-16.26Z"/><path class="b" d="M46.9,109.15c-8.63-4.33-22.48-4.12-30.94,.48-8.46,4.59-8.32,11.83,.31,16.16,8.63,4.33,22.48,4.12,30.94-.48,8.46-4.59,8.32-11.83-.31-16.16Z"/></g><g><polygon class="c" points="5.42 113.31 7.89 114.74 28.92 102.6 28.92 99.74 5.42 113.31"/><path class="ak" d="M7.89,114.8l-2.58-1.49,.07-.04,23.58-13.62v2.97h-.02l-21.06,12.17Zm-2.38-1.49l2.38,1.37,20.98-12.11v-2.74l-23.36,13.49Z"/></g><g><path class="an" d="M104.96,108.81l-27.24,15.73v2.18l27.24-15.73v-2.18Z"/><path class="k" d="M32.17,66.79l-27.24,15.73,72.79,42.03,27.24-15.73L32.17,66.79Z"/><polygon class="d" points="4.93 84.7 4.93 82.52 77.72 124.54 77.72 126.72 4.93 84.7"/></g><g><polygon class="c" points="36.1 65.17 38.57 66.6 59.61 54.46 59.61 51.6 36.1 65.17"/><path class="ak" d="M38.57,66.66l-2.58-1.49,.07-.04,23.58-13.62v2.97h-.02l-21.06,12.17Zm-2.38-1.49l2.38,1.37,20.98-12.11v-2.74l-23.36,13.49Z"/></g></g><g><path class="an" d="M90.63,64.15l75.15,43.39-23.38,13.5-75.15-43.39,23.38-13.5Z"/><g><polygon class="c" points="163.32 108.97 90.63 67 90.63 64.15 165.78 107.54 163.32 108.97"/><path class="ak" d="M163.32,109.02h-.03l-72.72-42v-2.96l.07,.04,75.23,43.43-2.56,1.48Zm-72.64-42.06l72.64,41.94,2.36-1.36-75.01-43.3v2.73Z"/></g><g><polygon class="c" points="67.25 77.65 69.71 79.07 90.63 67 90.63 64.15 67.25 77.65"/><path class="ak" d="M69.71,79.13l-2.56-1.48,.07-.04,23.46-13.54v2.96h-.02l-20.95,12.11Zm-2.36-1.48l2.36,1.36,20.87-12.05v-2.73l-23.23,13.41Z"/></g><g><path class="s" d="M91.1,30.05l-30.4,17.55,81.22,46.9,30.4-17.55L91.1,30.05Z"/><polygon class="l" points="141.93 94.49 141.93 124.45 60.7 77.56 60.7 47.59 141.93 94.49"/><polygon class="ad" points="172.33 76.94 172.33 106.9 141.93 124.45 141.93 94.49 172.33 76.94"/></g><g><polygon class="ad" points="117.65 108.14 139.31 120.64 139.31 95.64 117.66 83.14 117.65 108.14"/><polygon class="s" points="117.66 83.14 118.48 83.61 118.48 107.76 139.31 119.79 139.31 120.64 117.65 108.14 117.66 83.14"/><g><polygon class="ad" points="63.33 76.72 84.98 89.22 84.98 64.22 63.33 51.72 63.33 76.72"/><polygon class="s" points="63.33 51.72 64.15 52.2 64.15 76.35 84.98 88.37 84.98 89.22 63.33 76.72 63.33 51.72"/></g></g><g><path class="an" d="M166.27,73.18l-27.1,15.65v2.17l27.1-15.65v-2.17Z"/><path class="k" d="M93.86,31.38l-27.1,15.65,72.41,41.81,27.1-15.65L93.86,31.38Z"/><polygon class="d" points="66.76 49.19 66.76 47.02 139.17 88.83 139.17 90.99 66.76 49.19"/></g><polygon class="ab" points="138.51 96.68 118.48 85.11 117.66 85.51 117.66 83.14 139.31 95.64 139.31 120.64 138.51 119.33 138.51 96.68"/><polygon class="ab" points="84.19 65.27 64.15 53.69 63.33 54.09 63.33 51.72 84.98 64.22 84.98 89.22 84.19 87.92 84.19 65.27"/><g><polygon class="d" points="128.65 77.32 127.68 76.76 145.37 66.55 146.34 67.11 128.65 77.32"/><polygon class="d" points="131.36 78.89 130.39 78.33 148.08 68.11 149.05 68.67 131.36 78.89"/><polygon class="d" points="142.66 64.98 143.63 65.54 125.94 75.76 124.97 75.2 142.66 64.98"/><polygon class="d" points="140.92 63.98 123.23 74.19 122.26 73.63 139.95 63.42 140.92 63.98"/><polygon class="d" points="134.07 80.45 133.1 79.89 150.79 69.68 151.76 70.24 134.07 80.45"/><polygon class="d" points="136.78 82.01 135.81 81.46 153.5 71.24 154.47 71.8 136.78 82.01"/></g><g><polygon class="d" points="82.77 50.77 81.81 50.22 99.49 40 100.46 40.56 82.77 50.77"/><polygon class="d" points="85.49 52.34 84.52 51.78 102.2 41.57 103.17 42.13 85.49 52.34"/><polygon class="d" points="96.78 38.44 97.75 39 80.06 49.21 79.1 48.65 96.78 38.44"/><polygon class="d" points="95.04 37.43 77.35 47.65 76.39 47.09 94.07 36.87 95.04 37.43"/><polygon class="d" points="88.2 53.9 87.23 53.35 104.91 43.13 105.88 43.69 88.2 53.9"/><polygon class="d" points="90.9 55.47 89.94 54.91 107.62 44.7 108.59 45.26 90.9 55.47"/></g><g><path class="af" d="M104.26,73.83c-2-1.3-4.01-1.59-5.75-1.05h0l-.11,.03-.07,.02-2.28,.8,.16,.53c-1.22,1.16-2.14,2.9-2.56,5.13-1.17,6.07,1.7,13.46,6.4,16.51,1.04,.67,2.08,1.07,3.09,1.22l.21,.69,2.6-.9h0c2.28-.79,4.07-3.06,4.72-6.47,1.17-6.07-1.7-13.46-6.4-16.51Z"/><path class="x" d="M91.28,80.11c-1.17,6.07,1.7,13.46,6.4,16.52,4.7,3.05,9.46,.61,10.62-5.46,1.17-6.07-1.7-13.46-6.4-16.51-4.7-3.05-9.46-.61-10.62,5.46Z"/><polygon class="i" points="104.04 84.92 95.28 92.45 99.43 85.52 95.71 85.61 103.64 78.55 100.13 85.22 104.04 84.92"/></g></g><g class="aa"><path class="y" d="M90.63,64.15l75.15,43.39-23.38,13.5-75.15-43.39,23.38-13.5Z"/><g><polygon class="y" points="163.32 108.97 90.63 67 90.63 64.15 165.78 107.54 163.32 108.97"/><path class="y" d="M163.32,109.02h-.03l-72.72-42v-2.96l.07,.04,75.23,43.43-2.56,1.48Zm-72.64-42.06l72.64,41.94,2.36-1.36-75.01-43.3v2.73Z"/></g><g><polygon class="y" points="67.25 77.65 69.71 79.07 90.63 67 90.63 64.15 67.25 77.65"/><path class="y" d="M69.71,79.13l-2.56-1.48,.07-.04,23.46-13.54v2.96h-.02l-20.95,12.11Zm-2.36-1.48l2.36,1.36,20.87-12.05v-2.73l-23.23,13.41Z"/></g><g><path class="y" d="M91.1,30.05l-30.4,17.55,81.22,46.9,30.4-17.55L91.1,30.05Z"/><polygon class="y" points="141.93 94.49 141.93 124.45 60.7 77.56 60.7 47.59 141.93 94.49"/><polygon class="y" points="172.33 76.94 172.33 106.9 141.93 124.45 141.93 94.49 172.33 76.94"/></g><g><polygon class="y" points="117.65 108.14 139.31 120.64 139.31 95.64 117.66 83.14 117.65 108.14"/><polygon class="y" points="117.66 83.14 118.48 83.61 118.48 107.76 139.31 119.79 139.31 120.64 117.65 108.14 117.66 83.14"/><g><polygon class="y" points="63.33 76.72 84.98 89.22 84.98 64.22 63.33 51.72 63.33 76.72"/><polygon class="y" points="63.33 51.72 64.15 52.2 64.15 76.35 84.98 88.37 84.98 89.22 63.33 76.72 63.33 51.72"/></g></g><g><path class="y" d="M166.27,73.18l-27.1,15.65v2.17l27.1-15.65v-2.17Z"/><path class="y" d="M93.86,31.38l-27.1,15.65,72.41,41.81,27.1-15.65L93.86,31.38Z"/><polygon class="y" points="66.76 49.19 66.76 47.02 139.17 88.83 139.17 90.99 66.76 49.19"/></g><polygon class="a`" points="138.51 96.68 118.48 85.11 117.66 85.51 117.66 83.14 139.31 95.64 139.31 120.64 138.51 119.33 138.51 96.68"/><polygon class="a`" points="84.19 65.27 64.15 53.69 63.33 54.09 63.33 51.72 84.98 64.22 84.98 89.22 84.19 87.92 84.19 65.27"/><g><polygon class="y" points="128.65 77.32 127.68 76.76 145.37 66.55 146.34 67.11 128.65 77.32"/><polygon class="y" points="131.36 78.89 130.39 78.33 148.08 68.11 149.05 68.67 131.36 78.89"/><polygon class="y" points="142.66 64.98 143.63 65.54 125.94 75.76 124.97 75.2 142.66 64.98"/><polygon class="y" points="140.92 63.98 123.23 74.19 122.26 73.63 139.95 63.42 140.92 63.98"/><polygon class="y" points="134.07 80.45 133.1 79.89 150.79 69.68 151.76 70.24 134.07 80.45"/><polygon class="y" points="136.78 82.01 135.81 81.46 153.5 71.24 154.47 71.8 136.78 82.01"/></g><g><polygon class="y" points="82.77 50.77 81.81 50.22 99.49 40 100.46 40.56 82.77 50.77"/><polygon class="y" points="85.49 52.34 84.52 51.78 102.2 41.57 103.17 42.13 85.49 52.34"/><polygon class="y" points="96.78 38.44 97.75 39 80.06 49.21 79.1 48.65 96.78 38.44"/><polygon class="y" points="95.04 37.43 77.35 47.65 76.39 47.09 94.07 36.87 95.04 37.43"/><polygon class="y" points="88.2 53.9 87.23 53.35 104.91 43.13 105.88 43.69 88.2 53.9"/><polygon class="y" points="90.9 55.47 89.94 54.91 107.62 44.7 108.59 45.26 90.9 55.47"/></g><g><path class="y" d="M104.26,73.83c-2-1.3-4.01-1.59-5.75-1.05h0l-.11,.03-.07,.02-2.28,.8,.16,.53c-1.22,1.16-2.14,2.9-2.56,5.13-1.17,6.07,1.7,13.46,6.4,16.51,1.04,.67,2.08,1.07,3.09,1.22l.21,.69,2.6-.9h0c2.28-.79,4.07-3.06,4.72-6.47,1.17-6.07-1.7-13.46-6.4-16.51Z"/><path class="y" d="M91.28,80.11c-1.17,6.07,1.7,13.46,6.4,16.52,4.7,3.05,9.46,.61,10.62-5.46,1.17-6.07-1.7-13.46-6.4-16.51-4.7-3.05-9.46-.61-10.62,5.46Z"/><polygon class="h" points="104.04 84.92 95.28 92.45 99.43 85.52 95.71 85.61 103.64 78.55 100.13 85.22 104.04 84.92"/></g></g><g><path class="an" d="M60.41,82.01l74.76,43.16-23.26,13.43L37.15,95.44l23.26-13.43Z"/><g><polygon class="c" points="132.71 126.59 60.41 84.84 60.41 82.01 135.16 125.17 132.71 126.59"/><path class="ak" d="M132.71,126.65h-.03L60.36,84.87v-2.94l.07,.04,74.83,43.2-2.55,1.47ZM60.45,84.81l72.26,41.72,2.35-1.36L60.45,82.1v2.71Z"/></g><g><polygon class="c" points="37.15 95.44 39.6 96.86 60.41 84.84 60.41 82.01 37.15 95.44"/><path class="ak" d="M39.6,96.91l-2.55-1.47,.07-.04,23.33-13.47v2.94h-.02l-20.83,12.04Zm-2.35-1.47l2.35,1.36,20.76-11.99v-2.71l-23.11,13.34Z"/></g><g><path class="s" d="M60.88,48.09l-30.24,17.46,80.79,46.65,30.24-17.46L60.88,48.09Z"/><polygon class="l" points="111.43 112.19 111.43 142 30.64 95.35 30.64 65.54 111.43 112.19"/><polygon class="ad" points="141.67 94.73 141.67 124.54 111.43 142 111.43 112.19 141.67 94.73"/></g><g><polygon class="ad" points="87.29 125.77 108.82 138.2 108.82 113.33 87.29 100.9 87.29 125.77"/><polygon class="s" points="87.29 100.9 88.11 101.37 88.11 125.39 108.82 137.35 108.82 138.2 87.29 125.77 87.29 100.9"/><g><polygon class="ad" points="33.25 94.52 54.78 106.95 54.78 82.08 33.25 69.65 33.25 94.52"/><polygon class="s" points="33.25 69.65 34.07 70.12 34.07 94.15 54.78 106.11 54.78 106.95 33.25 94.52 33.25 69.65"/></g></g><g><path class="an" d="M135.64,90.99l-26.96,15.56v2.16l26.96-15.56v-2.16Z"/><path class="k" d="M63.62,49.41l-26.96,15.56,72.02,41.58,26.96-15.56L63.62,49.41Z"/><polygon class="d" points="36.66 67.13 36.66 64.97 108.69 106.56 108.69 108.71 36.66 67.13"/></g><polygon class="ab" points="108.04 114.37 88.11 102.86 87.29 103.25 87.29 100.9 108.82 113.33 108.82 138.2 108.04 136.9 108.04 114.37"/><polygon class="ab" points="53.99 83.12 34.07 71.61 33.25 72.01 33.25 69.65 54.78 82.08 54.78 106.95 53.99 105.65 53.99 83.12"/><g><polygon class="d" points="98.23 95.11 97.26 94.56 114.86 84.4 115.82 84.95 98.23 95.11"/><polygon class="d" points="100.92 96.67 99.96 96.11 117.55 85.95 118.51 86.51 100.92 96.67"/><polygon class="d" points="112.16 82.84 113.12 83.4 95.53 93.56 94.57 93 112.16 82.84"/><polygon class="d" points="110.43 81.84 92.83 92 91.87 91.44 109.46 81.29 110.43 81.84"/><polygon class="d" points="103.62 98.23 102.65 97.67 120.25 87.51 121.21 88.07 103.62 98.23"/><polygon class="d" points="106.31 99.78 105.35 99.23 122.94 89.07 123.91 89.62 106.31 99.78"/></g><g><polygon class="d" points="52.59 68.71 51.63 68.15 69.22 57.99 70.18 58.55 52.59 68.71"/><polygon class="d" points="55.29 70.26 54.32 69.71 71.92 59.55 72.88 60.11 55.29 70.26"/><polygon class="d" points="66.53 56.44 67.49 56.99 49.9 67.15 48.93 66.59 66.53 56.44"/><polygon class="d" points="64.79 55.44 47.2 65.59 46.24 65.04 63.83 54.88 64.79 55.44"/><polygon class="d" points="57.98 71.82 57.02 71.26 74.61 61.11 75.58 61.66 57.98 71.82"/><polygon class="d" points="60.68 73.38 59.72 72.82 77.31 62.66 78.27 63.22 60.68 73.38"/></g><g><path class="af" d="M73.96,91.64c-1.99-1.29-3.99-1.59-5.72-1.04h0l-.11,.03-.07,.02-2.27,.79,.16,.52c-1.21,1.15-2.13,2.88-2.55,5.1-1.16,6.04,1.69,13.39,6.37,16.43,1.03,.67,2.07,1.06,3.07,1.22l.21,.68,2.59-.9h0c2.26-.79,4.04-3.04,4.7-6.43,1.16-6.04-1.69-13.39-6.37-16.43Z"/><path class="x" d="M61.06,97.89c-1.16,6.04,1.69,13.39,6.37,16.43,4.68,3.04,9.41,.61,10.57-5.43,1.16-6.04-1.69-13.39-6.37-16.43-4.68-3.04-9.41-.61-10.57,5.43Z"/><polygon class="i" points="73.75 102.67 65.03 110.16 69.16 103.27 65.46 103.36 73.34 96.34 69.86 102.97 73.75 102.67"/></g></g><g class="aa"><path class="y" d="M60.41,82.01l74.76,43.16-23.26,13.43L37.15,95.44l23.26-13.43Z"/><g><polygon class="y" points="132.71 126.59 60.41 84.84 60.41 82.01 135.16 125.17 132.71 126.59"/><path class="y" d="M132.71,126.65h-.03L60.36,84.87v-2.94l.07,.04,74.83,43.2-2.55,1.47ZM60.45,84.81l72.26,41.72,2.35-1.36L60.45,82.1v2.71Z"/></g><g><polygon class="y" points="37.15 95.44 39.6 96.86 60.41 84.84 60.41 82.01 37.15 95.44"/><path class="y" d="M39.6,96.91l-2.55-1.47,.07-.04,23.33-13.47v2.94h-.02l-20.83,12.04Zm-2.35-1.47l2.35,1.36,20.76-11.99v-2.71l-23.11,13.34Z"/></g><g><path class="y" d="M60.88,48.09l-30.24,17.46,80.79,46.65,30.24-17.46L60.88,48.09Z"/><polygon class="y" points="111.43 112.19 111.43 142 30.64 95.35 30.64 65.54 111.43 112.19"/><polygon class="y" points="141.67 94.73 141.67 124.54 111.43 142 111.43 112.19 141.67 94.73"/></g><g><polygon class="y" points="87.29 125.77 108.82 138.2 108.82 113.33 87.29 100.9 87.29 125.77"/><polygon class="y" points="87.29 100.9 88.11 101.37 88.11 125.39 108.82 137.35 108.82 138.2 87.29 125.77 87.29 100.9"/><g><polygon class="y" points="33.25 94.52 54.78 106.95 54.78 82.08 33.25 69.65 33.25 94.52"/><polygon class="y" points="33.25 69.65 34.07 70.12 34.07 94.15 54.78 106.11 54.78 106.95 33.25 94.52 33.25 69.65"/></g></g><g><path class="y" d="M135.64,90.99l-26.96,15.56v2.16l26.96-15.56v-2.16Z"/><path class="y" d="M63.62,49.41l-26.96,15.56,72.02,41.58,26.96-15.56L63.62,49.41Z"/><polygon class="y" points="36.66 67.13 36.66 64.97 108.69 106.56 108.69 108.71 36.66 67.13"/></g><polygon class="a`" points="108.04 114.37 88.11 102.86 87.29 103.25 87.29 100.9 108.82 113.33 108.82 138.2 108.04 136.9 108.04 114.37"/><polygon class="a`" points="53.99 83.12 34.07 71.61 33.25 72.01 33.25 69.65 54.78 82.08 54.78 106.95 53.99 105.65 53.99 83.12"/><g><polygon class="y" points="98.23 95.11 97.26 94.56 114.86 84.4 115.82 84.95 98.23 95.11"/><polygon class="y" points="100.92 96.67 99.96 96.11 117.55 85.95 118.51 86.51 100.92 96.67"/><polygon class="y" points="112.16 82.84 113.12 83.4 95.53 93.56 94.57 93 112.16 82.84"/><polygon class="y" points="110.43 81.84 92.83 92 91.87 91.44 109.46 81.29 110.43 81.84"/><polygon class="y" points="103.62 98.23 102.65 97.67 120.25 87.51 121.21 88.07 103.62 98.23"/><polygon class="y" points="106.31 99.78 105.35 99.23 122.94 89.07 123.91 89.62 106.31 99.78"/></g><g><polygon class="y" points="52.59 68.71 51.63 68.15 69.22 57.99 70.18 58.55 52.59 68.71"/><polygon class="y" points="55.29 70.26 54.32 69.71 71.92 59.55 72.88 60.11 55.29 70.26"/><polygon class="y" points="66.53 56.44 67.49 56.99 49.9 67.15 48.93 66.59 66.53 56.44"/><polygon class="y" points="64.79 55.44 47.2 65.59 46.24 65.04 63.83 54.88 64.79 55.44"/><polygon class="y" points="57.98 71.82 57.02 71.26 74.61 61.11 75.58 61.66 57.98 71.82"/><polygon class="y" points="60.68 73.38 59.72 72.82 77.31 62.66 78.27 63.22 60.68 73.38"/></g><g><path class="y" d="M73.96,91.64c-1.99-1.29-3.99-1.59-5.72-1.04h0l-.11,.03-.07,.02-2.27,.79,.16,.52c-1.21,1.15-2.13,2.88-2.55,5.1-1.16,6.04,1.69,13.39,6.37,16.43,1.03,.67,2.07,1.06,3.07,1.22l.21,.68,2.59-.9h0c2.26-.79,4.04-3.04,4.7-6.43,1.16-6.04-1.69-13.39-6.37-16.43Z"/><path class="y" d="M61.06,97.89c-1.16,6.04,1.69,13.39,6.37,16.43,4.68,3.04,9.41,.61,10.57-5.43,1.16-6.04-1.69-13.39-6.37-16.43-4.68-3.04-9.41-.61-10.57,5.43Z"/><polygon class="h" points="73.75 102.67 65.03 110.16 69.16 103.27 65.46 103.36 73.34 96.34 69.86 102.97 73.75 102.67"/></g></g><g><path class="an" d="M29.77,99.53l74.76,43.16-23.26,13.43L6.51,112.96l23.26-13.43Z"/><g><polygon class="c" points="102.07 144.1 29.77 102.36 29.77 99.53 104.52 142.69 102.07 144.1"/><path class="ak" d="M102.07,144.16h-.03L29.72,102.39v-2.94l.07,.04,74.83,43.2-2.55,1.47ZM29.82,102.33l72.26,41.72,2.35-1.36L29.82,99.61v2.71Z"/></g><g><polygon class="c" points="6.51 112.96 8.96 114.37 29.77 102.36 29.77 99.53 6.51 112.96"/><path class="ak" d="M8.96,114.43l-2.55-1.47,.07-.04,23.33-13.47v2.94h-.02l-20.83,12.04Zm-2.35-1.47l2.35,1.36,20.76-11.99v-2.71l-23.11,13.34Z"/></g><g><path class="s" d="M30.24,65.6L0,83.06l80.79,46.65,30.24-17.46L30.24,65.6Z"/><polygon class="l" points="80.79 129.71 80.79 159.51 0 112.86 0 83.06 80.79 129.71"/><polygon class="ad" points="111.03 112.25 111.03 142.05 80.79 159.51 80.79 129.71 111.03 112.25"/></g><g><polygon class="ad" points="56.65 143.28 78.18 155.72 78.18 130.85 56.65 118.41 56.65 143.28"/><polygon class="s" points="56.65 118.41 57.47 118.89 57.47 142.91 78.18 154.87 78.18 155.72 56.65 143.28 56.65 118.41"/><g><polygon class="ad" points="2.61 112.03 24.14 124.47 24.14 99.6 2.61 87.17 2.61 112.03"/><polygon class="s" points="2.61 87.17 3.43 87.64 3.43 111.66 24.14 123.62 24.14 124.47 2.61 112.03 2.61 87.17"/></g></g><g><path class="an" d="M105,108.51l-26.96,15.56v2.16l26.96-15.56v-2.16Z"/><path class="k" d="M32.98,66.93l-26.96,15.56,72.02,41.58,26.96-15.56L32.98,66.93Z"/><polygon class="d" points="6.03 84.65 6.03 82.49 78.05 124.07 78.05 126.23 6.03 84.65"/></g><polygon class="ab" points="77.4 131.89 57.47 120.37 56.65 120.77 56.65 118.41 78.18 130.85 78.18 155.72 77.4 154.41 77.4 131.89"/><polygon class="ab" points="23.36 100.64 3.43 89.13 2.61 89.52 2.61 87.17 24.14 99.6 24.14 124.47 23.36 123.17 23.36 100.64"/><g><polygon class="d" points="67.59 112.63 66.62 112.07 84.22 101.91 85.18 102.47 67.59 112.63"/><polygon class="d" points="70.28 114.18 69.32 113.63 86.91 103.47 87.88 104.03 70.28 114.18"/><polygon class="d" points="81.52 100.36 82.49 100.91 64.89 111.07 63.93 110.51 81.52 100.36"/><polygon class="d" points="79.79 99.36 62.2 109.51 61.23 108.96 78.83 98.8 79.79 99.36"/><polygon class="d" points="72.98 115.74 72.02 115.18 89.61 105.03 90.57 105.58 72.98 115.74"/><polygon class="d" points="75.67 117.3 74.71 116.74 92.3 106.58 93.27 107.14 75.67 117.3"/></g><g><polygon class="d" points="21.95 86.22 20.99 85.67 38.58 75.51 39.55 76.06 21.95 86.22"/><polygon class="d" points="24.65 87.78 23.69 87.22 41.28 77.06 42.24 77.62 24.65 87.78"/><polygon class="d" points="35.89 73.95 36.85 74.51 19.26 84.67 18.29 84.11 35.89 73.95"/><polygon class="d" points="34.16 72.95 16.56 83.11 15.6 82.55 33.19 72.4 34.16 72.95"/><polygon class="d" points="27.34 89.33 26.38 88.78 43.98 78.62 44.94 79.18 27.34 89.33"/><polygon class="d" points="30.04 90.89 29.08 90.34 46.67 80.18 47.63 80.73 30.04 90.89"/></g><g><path class="af" d="M43.32,109.15c-1.99-1.29-3.99-1.59-5.72-1.04h0l-.11,.03-.07,.02-2.27,.79,.16,.52c-1.21,1.15-2.13,2.88-2.55,5.1-1.16,6.04,1.69,13.39,6.37,16.43,1.03,.67,2.07,1.06,3.07,1.22l.21,.68,2.59-.9h0c2.26-.79,4.04-3.04,4.7-6.43,1.16-6.04-1.69-13.39-6.37-16.43Z"/><path class="x" d="M30.42,115.4c-1.16,6.04,1.69,13.39,6.37,16.43,4.68,3.04,9.41,.61,10.57-5.43,1.16-6.04-1.69-13.39-6.37-16.43-4.68-3.04-9.41-.61-10.57,5.43Z"/><polygon class="i" points="43.11 120.19 34.39 127.68 38.52 120.78 34.82 120.87 42.71 113.85 39.22 120.48 43.11 120.19"/></g></g><g class="aa"><path class="y" d="M29.77,99.53l74.76,43.16-23.26,13.43L6.51,112.96l23.26-13.43Z"/><g><polygon class="y" points="102.07 144.1 29.77 102.36 29.77 99.53 104.52 142.69 102.07 144.1"/><path class="y" d="M102.07,144.16h-.03L29.72,102.39v-2.94l.07,.04,74.83,43.2-2.55,1.47ZM29.82,102.33l72.26,41.72,2.35-1.36L29.82,99.61v2.71Z"/></g><g><polygon class="y" points="6.51 112.96 8.96 114.37 29.77 102.36 29.77 99.53 6.51 112.96"/><path class="y" d="M8.96,114.43l-2.55-1.47,.07-.04,23.33-13.47v2.94h-.02l-20.83,12.04Zm-2.35-1.47l2.35,1.36,20.76-11.99v-2.71l-23.11,13.34Z"/></g><g><path class="y" d="M30.24,65.6L0,83.06l80.79,46.65,30.24-17.46L30.24,65.6Z"/><polygon class="y" points="80.79 129.71 80.79 159.51 0 112.86 0 83.06 80.79 129.71"/><polygon class="y" points="111.03 112.25 111.03 142.05 80.79 159.51 80.79 129.71 111.03 112.25"/></g><g><polygon class="y" points="56.65 143.28 78.18 155.72 78.18 130.85 56.65 118.41 56.65 143.28"/><polygon class="y" points="56.65 118.41 57.47 118.89 57.47 142.91 78.18 154.87 78.18 155.72 56.65 143.28 56.65 118.41"/><g><polygon class="y" points="2.61 112.03 24.14 124.47 24.14 99.6 2.61 87.17 2.61 112.03"/><polygon class="y" points="2.61 87.17 3.43 87.64 3.43 111.66 24.14 123.62 24.14 124.47 2.61 112.03 2.61 87.17"/></g></g><g><path class="y" d="M105,108.51l-26.96,15.56v2.16l26.96-15.56v-2.16Z"/><path class="y" d="M32.98,66.93l-26.96,15.56,72.02,41.58,26.96-15.56L32.98,66.93Z"/><polygon class="y" points="6.03 84.65 6.03 82.49 78.05 124.07 78.05 126.23 6.03 84.65"/></g><polygon class="a`" points="77.4 131.89 57.47 120.37 56.65 120.77 56.65 118.41 78.18 130.85 78.18 155.72 77.4 154.41 77.4 131.89"/><polygon class="a`" points="23.36 100.64 3.43 89.13 2.61 89.52 2.61 87.17 24.14 99.6 24.14 124.47 23.36 123.17 23.36 100.64"/><g><polygon class="y" points="67.59 112.63 66.62 112.07 84.22 101.91 85.18 102.47 67.59 112.63"/><polygon class="y" points="70.28 114.18 69.32 113.63 86.91 103.47 87.88 104.03 70.28 114.18"/><polygon class="y" points="81.52 100.36 82.49 100.91 64.89 111.07 63.93 110.51 81.52 100.36"/><polygon class="y" points="79.79 99.36 62.2 109.51 61.23 108.96 78.83 98.8 79.79 99.36"/><polygon class="y" points="72.98 115.74 72.02 115.18 89.61 105.03 90.57 105.58 72.98 115.74"/><polygon class="y" points="75.67 117.3 74.71 116.74 92.3 106.58 93.27 107.14 75.67 117.3"/></g><g><polygon class="y" points="21.95 86.22 20.99 85.67 38.58 75.51 39.55 76.06 21.95 86.22"/><polygon class="y" points="24.65 87.78 23.69 87.22 41.28 77.06 42.24 77.62 24.65 87.78"/><polygon class="y" points="35.89 73.95 36.85 74.51 19.26 84.67 18.29 84.11 35.89 73.95"/><polygon class="y" points="34.16 72.95 16.56 83.11 15.6 82.55 33.19 72.4 34.16 72.95"/><polygon class="y" points="27.34 89.33 26.38 88.78 43.98 78.62 44.94 79.18 27.34 89.33"/><polygon class="y" points="30.04 90.89 29.08 90.34 46.67 80.18 47.63 80.73 30.04 90.89"/></g><g><path class="y" d="M43.32,109.15c-1.99-1.29-3.99-1.59-5.72-1.04h0l-.11,.03-.07,.02-2.27,.79,.16,.52c-1.21,1.15-2.13,2.88-2.55,5.1-1.16,6.04,1.69,13.39,6.37,16.43,1.03,.67,2.07,1.06,3.07,1.22l.21,.68,2.59-.9h0c2.26-.79,4.04-3.04,4.7-6.43,1.16-6.04-1.69-13.39-6.37-16.43Z"/><path class="y" d="M30.42,115.4c-1.16,6.04,1.69,13.39,6.37,16.43,4.68,3.04,9.41,.61,10.57-5.43,1.16-6.04-1.69-13.39-6.37-16.43-4.68-3.04-9.41-.61-10.57,5.43Z"/><polygon class="h" points="43.11 120.19 34.39 127.68 38.52 120.78 34.82 120.87 42.71 113.85 39.22 120.48 43.11 120.19"/></g></g><g><path class="an" d="M91,33.93l74.76,43.16-23.26,13.43L67.74,47.35l23.26-13.43Z"/><g><polygon class="c" points="163.31 78.5 91 36.75 91 33.93 165.76 77.09 163.31 78.5"/><path class="ak" d="M163.31,78.56h-.03L90.95,36.78v-2.94l.07,.04,74.83,43.2-2.55,1.47ZM91.05,36.73l72.26,41.72,2.35-1.36L91.05,34.01v2.71Z"/></g><g><polygon class="c" points="67.74 47.35 70.19 48.77 91 36.75 91 33.93 67.74 47.35"/><path class="ak" d="M70.19,48.83l-2.55-1.47,.07-.04,23.33-13.47v2.94h-.02l-20.83,12.04Zm-2.35-1.47l2.35,1.36,20.76-11.99v-2.71l-23.11,13.34Z"/></g><g><path class="s" d="M91.47,0l-30.24,17.46,80.79,46.65,30.24-17.46L91.47,0Z"/><polygon class="l" points="142.02 64.1 142.02 93.91 61.23 47.26 61.23 17.46 142.02 64.1"/><polygon class="ad" points="172.26 46.64 172.26 76.45 142.02 93.91 142.02 64.1 172.26 46.64"/></g><g><polygon class="ad" points="117.88 77.68 139.42 90.11 139.42 65.24 117.88 52.81 117.88 77.68"/><polygon class="s" points="117.88 52.81 118.7 53.28 118.7 77.31 139.42 89.27 139.42 90.11 117.88 77.68 117.88 52.81"/><g><polygon class="ad" points="63.84 46.43 85.38 58.87 85.38 34 63.84 21.56 63.84 46.43"/><polygon class="s" points="63.84 21.56 64.66 22.04 64.66 46.06 85.38 58.02 85.38 58.87 63.84 46.43 63.84 21.56"/></g></g><g><path class="an" d="M166.24,42.91l-26.96,15.56v2.16l26.96-15.56v-2.16Z"/><path class="k" d="M94.21,1.32l-26.96,15.56,72.02,41.58,26.96-15.56L94.21,1.32Z"/><polygon class="d" points="67.26 19.04 67.26 16.89 139.28 58.47 139.28 60.63 67.26 19.04"/></g><polygon class="ab" points="138.63 66.28 118.7 54.77 117.88 55.17 117.88 52.81 139.42 65.24 139.42 90.11 138.63 88.81 138.63 66.28"/><polygon class="ab" points="84.59 35.04 64.66 23.52 63.84 23.92 63.84 21.56 85.38 34 85.38 58.87 84.59 57.56 84.59 35.04"/><g><polygon class="d" points="128.82 47.02 127.86 46.47 145.45 36.31 146.41 36.87 128.82 47.02"/><polygon class="d" points="131.52 48.58 130.55 48.03 148.15 37.87 149.11 38.42 131.52 48.58"/><polygon class="d" points="142.75 34.75 143.72 35.31 126.12 45.47 125.16 44.91 142.75 34.75"/><polygon class="d" points="141.02 33.75 123.43 43.91 122.46 43.36 140.06 33.2 141.02 33.75"/><polygon class="d" points="134.21 50.14 133.25 49.58 150.84 39.42 151.8 39.98 134.21 50.14"/><polygon class="d" points="136.91 51.69 135.94 51.14 153.54 40.98 154.5 41.54 136.91 51.69"/></g><g><polygon class="d" points="83.19 20.62 82.22 20.06 99.82 9.91 100.78 10.46 83.19 20.62"/><polygon class="d" points="85.88 22.18 84.92 21.62 102.51 11.46 103.47 12.02 85.88 22.18"/><polygon class="d" points="97.12 8.35 98.08 8.9 80.49 19.06 79.53 18.51 97.12 8.35"/><polygon class="d" points="95.39 7.35 77.79 17.51 76.83 16.95 94.42 6.79 95.39 7.35"/><polygon class="d" points="88.58 23.73 87.61 23.18 105.21 13.02 106.17 13.57 88.58 23.73"/><polygon class="d" points="91.27 25.29 90.31 24.73 107.9 14.57 108.87 15.13 91.27 25.29"/></g><g><path class="af" d="M104.55,43.55c-1.99-1.29-3.99-1.59-5.72-1.04h0l-.11,.03-.07,.02-2.27,.79,.16,.52c-1.21,1.15-2.13,2.88-2.55,5.1-1.16,6.04,1.69,13.39,6.37,16.43,1.03,.67,2.07,1.06,3.07,1.22l.21,.68,2.59-.9h0c2.26-.79,4.04-3.04,4.7-6.43,1.16-6.04-1.69-13.39-6.37-16.43Z"/><path class="x" d="M91.65,49.8c-1.16,6.04,1.69,13.39,6.37,16.43,4.68,3.04,9.41,.61,10.57-5.43,1.16-6.04-1.69-13.39-6.37-16.43-4.68-3.04-9.41-.61-10.57,5.43Z"/><polygon class="i" points="104.34 54.58 95.62 62.07 99.76 55.18 96.05 55.27 103.94 48.25 100.45 54.88 104.34 54.58"/></g></g><g class="aa"><path class="y" d="M91,33.93l74.76,43.16-23.26,13.43L67.74,47.35l23.26-13.43Z"/><g><polygon class="y" points="163.31 78.5 91 36.75 91 33.93 165.76 77.09 163.31 78.5"/><path class="y" d="M163.31,78.56h-.03L90.95,36.78v-2.94l.07,.04,74.83,43.2-2.55,1.47ZM91.05,36.73l72.26,41.72,2.35-1.36L91.05,34.01v2.71Z"/></g><g><polygon class="y" points="67.74 47.35 70.19 48.77 91 36.75 91 33.93 67.74 47.35"/><path class="y" d="M70.19,48.83l-2.55-1.47,.07-.04,23.33-13.47v2.94h-.02l-20.83,12.04Zm-2.35-1.47l2.35,1.36,20.76-11.99v-2.71l-23.11,13.34Z"/></g><g><path class="y" d="M91.47,0l-30.24,17.46,80.79,46.65,30.24-17.46L91.47,0Z"/><polygon class="y" points="142.02 64.1 142.02 93.91 61.23 47.26 61.23 17.46 142.02 64.1"/><polygon class="y" points="172.26 46.64 172.26 76.45 142.02 93.91 142.02 64.1 172.26 46.64"/></g><g><polygon class="y" points="117.88 77.68 139.42 90.11 139.42 65.24 117.88 52.81 117.88 77.68"/><polygon class="y" points="117.88 52.81 118.7 53.28 118.7 77.31 139.42 89.27 139.42 90.11 117.88 77.68 117.88 52.81"/><g><polygon class="y" points="63.84 46.43 85.38 58.87 85.38 34 63.84 21.56 63.84 46.43"/><polygon class="y" points="63.84 21.56 64.66 22.04 64.66 46.06 85.38 58.02 85.38 58.87 63.84 46.43 63.84 21.56"/></g></g><g><path class="y" d="M166.24,42.91l-26.96,15.56v2.16l26.96-15.56v-2.16Z"/><path class="y" d="M94.21,1.32l-26.96,15.56,72.02,41.58,26.96-15.56L94.21,1.32Z"/><polygon class="y" points="67.26 19.04 67.26 16.89 139.28 58.47 139.28 60.63 67.26 19.04"/></g><polygon class="a`" points="138.63 66.28 118.7 54.77 117.88 55.17 117.88 52.81 139.42 65.24 139.42 90.11 138.63 88.81 138.63 66.28"/><polygon class="a`" points="84.59 35.04 64.66 23.52 63.84 23.92 63.84 21.56 85.38 34 85.38 58.87 84.59 57.56 84.59 35.04"/><g><polygon class="y" points="128.82 47.02 127.86 46.47 145.45 36.31 146.41 36.87 128.82 47.02"/><polygon class="y" points="131.52 48.58 130.55 48.03 148.15 37.87 149.11 38.42 131.52 48.58"/><polygon class="y" points="142.75 34.75 143.72 35.31 126.12 45.47 125.16 44.91 142.75 34.75"/><polygon class="y" points="141.02 33.75 123.43 43.91 122.46 43.36 140.06 33.2 141.02 33.75"/><polygon class="y" points="134.21 50.14 133.25 49.58 150.84 39.42 151.8 39.98 134.21 50.14"/><polygon class="y" points="136.91 51.69 135.94 51.14 153.54 40.98 154.5 41.54 136.91 51.69"/></g><g><polygon class="y" points="83.19 20.62 82.22 20.06 99.82 9.91 100.78 10.46 83.19 20.62"/><polygon class="y" points="85.88 22.18 84.92 21.62 102.51 11.46 103.47 12.02 85.88 22.18"/><polygon class="y" points="97.12 8.35 98.08 8.9 80.49 19.06 79.53 18.51 97.12 8.35"/><polygon class="y" points="95.39 7.35 77.79 17.51 76.83 16.95 94.42 6.79 95.39 7.35"/><polygon class="y" points="88.58 23.73 87.61 23.18 105.21 13.02 106.17 13.57 88.58 23.73"/><polygon class="y" points="91.27 25.29 90.31 24.73 107.9 14.57 108.87 15.13 91.27 25.29"/></g><g><path class="y" d="M104.55,43.55c-1.99-1.29-3.99-1.59-5.72-1.04h0l-.11,.03-.07,.02-2.27,.79,.16,.52c-1.21,1.15-2.13,2.88-2.55,5.1-1.16,6.04,1.69,13.39,6.37,16.43,1.03,.67,2.07,1.06,3.07,1.22l.21,.68,2.59-.9h0c2.26-.79,4.04-3.04,4.7-6.43,1.16-6.04-1.69-13.39-6.37-16.43Z"/><path class="y" d="M91.65,49.8c-1.16,6.04,1.69,13.39,6.37,16.43,4.68,3.04,9.41,.61,10.57-5.43,1.16-6.04-1.69-13.39-6.37-16.43-4.68-3.04-9.41-.61-10.57,5.43Z"/><polygon class="h" points="104.34 54.58 95.62 62.07 99.76 55.18 96.05 55.27 103.94 48.25 100.45 54.88 104.34 54.58"/></g></g><g><path class="an" d="M60.41,51.88l74.76,43.16-23.26,13.43L37.15,65.31l23.26-13.43Z"/><g><polygon class="c" points="132.71 96.45 60.41 54.71 60.41 51.88 135.16 95.04 132.71 96.45"/><path class="ak" d="M132.71,96.51h-.03L60.36,54.74v-2.94l.07,.04,74.83,43.2-2.55,1.47ZM60.45,54.68l72.26,41.72,2.35-1.36L60.45,51.96v2.71Z"/></g><g><polygon class="c" points="37.15 65.31 39.6 66.72 60.41 54.71 60.41 51.88 37.15 65.31"/><path class="ak" d="M39.6,66.78l-2.55-1.47,.07-.04,23.33-13.47v2.94h-.02l-20.83,12.04Zm-2.35-1.47l2.35,1.36,20.76-11.99v-2.71l-23.11,13.34Z"/></g><g><path class="s" d="M60.88,17.95l-30.24,17.46,80.79,46.65,30.24-17.46L60.88,17.95Z"/><polygon class="l" points="111.43 82.06 111.43 111.86 30.64 65.21 30.64 35.41 111.43 82.06"/><polygon class="ad" points="141.67 64.6 141.67 94.4 111.43 111.86 111.43 82.06 141.67 64.6"/></g><g><polygon class="ad" points="87.29 95.63 108.82 108.07 108.82 83.2 87.29 70.76 87.29 95.63"/><polygon class="s" points="87.29 70.76 88.11 71.24 88.11 95.26 108.82 107.22 108.82 108.07 87.29 95.63 87.29 70.76"/><g><polygon class="ad" points="33.25 64.38 54.78 76.82 54.78 51.95 33.25 39.52 33.25 64.38"/><polygon class="s" points="33.25 39.52 34.07 39.99 34.07 64.01 54.78 75.97 54.78 76.82 33.25 64.38 33.25 39.52"/></g></g><g><path class="an" d="M135.64,60.86l-26.96,15.56v2.16l26.96-15.56v-2.16Z"/><path class="k" d="M63.62,19.28l-26.96,15.56,72.02,41.58,26.96-15.56L63.62,19.28Z"/><polygon class="d" points="36.66 37 36.66 34.84 108.69 76.42 108.69 78.58 36.66 37"/></g><polygon class="ab" points="108.04 84.24 88.11 72.72 87.29 73.12 87.29 70.76 108.82 83.2 108.82 108.07 108.04 106.76 108.04 84.24"/><polygon class="ab" points="53.99 52.99 34.07 41.48 33.25 41.87 33.25 39.52 54.78 51.95 54.78 76.82 53.99 75.52 53.99 52.99"/><g><polygon class="d" points="98.23 64.98 97.26 64.42 114.86 54.26 115.82 54.82 98.23 64.98"/><polygon class="d" points="100.92 66.53 99.96 65.98 117.55 55.82 118.51 56.38 100.92 66.53"/><polygon class="d" points="112.16 52.71 113.12 53.26 95.53 63.42 94.57 62.86 112.16 52.71"/><polygon class="d" points="110.43 51.71 92.83 61.86 91.87 61.31 109.46 51.15 110.43 51.71"/><polygon class="d" points="103.62 68.09 102.65 67.53 120.25 57.38 121.21 57.93 103.62 68.09"/><polygon class="d" points="106.31 69.65 105.35 69.09 122.94 58.93 123.91 59.49 106.31 69.65"/></g><g><polygon class="d" points="52.59 38.57 51.63 38.02 69.22 27.86 70.18 28.41 52.59 38.57"/><polygon class="d" points="55.29 40.13 54.32 39.57 71.92 29.41 72.88 29.97 55.29 40.13"/><polygon class="d" points="66.53 26.3 67.49 26.86 49.9 37.02 48.93 36.46 66.53 26.3"/><polygon class="d" points="64.79 25.3 47.2 35.46 46.24 34.9 63.83 24.75 64.79 25.3"/><polygon class="d" points="57.98 41.68 57.02 41.13 74.61 30.97 75.58 31.53 57.98 41.68"/><polygon class="d" points="60.68 43.24 59.72 42.69 77.31 32.53 78.27 33.08 60.68 43.24"/></g><g><path class="af" d="M73.96,61.5c-1.99-1.29-3.99-1.59-5.72-1.04h0l-.11,.03-.07,.02-2.27,.79,.16,.52c-1.21,1.15-2.13,2.88-2.55,5.1-1.16,6.04,1.69,13.39,6.37,16.43,1.03,.67,2.07,1.06,3.07,1.22l.21,.68,2.59-.9h0c2.26-.79,4.04-3.04,4.7-6.43,1.16-6.04-1.69-13.39-6.37-16.43Z"/><path class="x" d="M61.06,67.75c-1.16,6.04,1.69,13.39,6.37,16.43,4.68,3.04,9.41,.61,10.57-5.43,1.16-6.04-1.69-13.39-6.37-16.43-4.68-3.04-9.41-.61-10.57,5.43Z"/><polygon class="i" points="73.75 72.54 65.03 80.03 69.16 73.13 65.46 73.22 73.34 66.2 69.86 72.83 73.75 72.54"/></g></g><g class="aa"><path class="y" d="M60.41,51.88l74.76,43.16-23.26,13.43L37.15,65.31l23.26-13.43Z"/><g><polygon class="y" points="132.71 96.45 60.41 54.71 60.41 51.88 135.16 95.04 132.71 96.45"/><path class="y" d="M132.71,96.51h-.03L60.36,54.74v-2.94l.07,.04,74.83,43.2-2.55,1.47ZM60.45,54.68l72.26,41.72,2.35-1.36L60.45,51.96v2.71Z"/></g><g><polygon class="y" points="37.15 65.31 39.6 66.72 60.41 54.71 60.41 51.88 37.15 65.31"/><path class="y" d="M39.6,66.78l-2.55-1.47,.07-.04,23.33-13.47v2.94h-.02l-20.83,12.04Zm-2.35-1.47l2.35,1.36,20.76-11.99v-2.71l-23.11,13.34Z"/></g><g><path class="y" d="M60.88,17.95l-30.24,17.46,80.79,46.65,30.24-17.46L60.88,17.95Z"/><polygon class="y" points="111.43 82.06 111.43 111.86 30.64 65.21 30.64 35.41 111.43 82.06"/><polygon class="y" points="141.67 64.6 141.67 94.4 111.43 111.86 111.43 82.06 141.67 64.6"/></g><g><polygon class="y" points="87.29 95.63 108.82 108.07 108.82 83.2 87.29 70.76 87.29 95.63"/><polygon class="y" points="87.29 70.76 88.11 71.24 88.11 95.26 108.82 107.22 108.82 108.07 87.29 95.63 87.29 70.76"/><g><polygon class="y" points="33.25 64.38 54.78 76.82 54.78 51.95 33.25 39.52 33.25 64.38"/><polygon class="y" points="33.25 39.52 34.07 39.99 34.07 64.01 54.78 75.97 54.78 76.82 33.25 64.38 33.25 39.52"/></g></g><g><path class="y" d="M135.64,60.86l-26.96,15.56v2.16l26.96-15.56v-2.16Z"/><path class="y" d="M63.62,19.28l-26.96,15.56,72.02,41.58,26.96-15.56L63.62,19.28Z"/><polygon class="y" points="36.66 37 36.66 34.84 108.69 76.42 108.69 78.58 36.66 37"/></g><polygon class="a`" points="108.04 84.24 88.11 72.72 87.29 73.12 87.29 70.76 108.82 83.2 108.82 108.07 108.04 106.76 108.04 84.24"/><polygon class="a`" points="53.99 52.99 34.07 41.48 33.25 41.87 33.25 39.52 54.78 51.95 54.78 76.82 53.99 75.52 53.99 52.99"/><g><polygon class="y" points="98.23 64.98 97.26 64.42 114.86 54.26 115.82 54.82 98.23 64.98"/><polygon class="y" points="100.92 66.53 99.96 65.98 117.55 55.82 118.51 56.38 100.92 66.53"/><polygon class="y" points="112.16 52.71 113.12 53.26 95.53 63.42 94.57 62.86 112.16 52.71"/><polygon class="y" points="110.43 51.71 92.83 61.86 91.87 61.31 109.46 51.15 110.43 51.71"/><polygon class="y" points="103.62 68.09 102.65 67.53 120.25 57.38 121.21 57.93 103.62 68.09"/><polygon class="y" points="106.31 69.65 105.35 69.09 122.94 58.93 123.91 59.49 106.31 69.65"/></g><g><polygon class="y" points="52.59 38.57 51.63 38.02 69.22 27.86 70.18 28.41 52.59 38.57"/><polygon class="y" points="55.29 40.13 54.32 39.57 71.92 29.41 72.88 29.97 55.29 40.13"/><polygon class="y" points="66.53 26.3 67.49 26.86 49.9 37.02 48.93 36.46 66.53 26.3"/><polygon class="y" points="64.79 25.3 47.2 35.46 46.24 34.9 63.83 24.75 64.79 25.3"/><polygon class="y" points="57.98 41.68 57.02 41.13 74.61 30.97 75.58 31.53 57.98 41.68"/><polygon class="y" points="60.68 43.24 59.72 42.69 77.31 32.53 78.27 33.08 60.68 43.24"/></g><g><path class="y" d="M73.96,61.5c-1.99-1.29-3.99-1.59-5.72-1.04h0l-.11,.03-.07,.02-2.27,.79,.16,.52c-1.21,1.15-2.13,2.88-2.55,5.1-1.16,6.04,1.69,13.39,6.37,16.43,1.03,.67,2.07,1.06,3.07,1.22l.21,.68,2.59-.9h0c2.26-.79,4.04-3.04,4.7-6.43,1.16-6.04-1.69-13.39-6.37-16.43Z"/><path class="y" d="M61.06,67.75c-1.16,6.04,1.69,13.39,6.37,16.43,4.68,3.04,9.41,.61,10.57-5.43,1.16-6.04-1.69-13.39-6.37-16.43-4.68-3.04-9.41-.61-10.57,5.43Z"/><polygon class="h" points="73.75 72.54 65.03 80.03 69.16 73.13 65.46 73.22 73.34 66.2 69.86 72.83 73.75 72.54"/></g></g></g></g></svg>