<svg id="f36da1e2-efd1-45f3-b78d-b3b98b73dd29" data-name="Layer 1" xmlns="http://www.w3.org/2000/svg" viewBox="0 0 291.94 250.58"><defs><style>.a2c978b5-59a1-4bcd-86a5-c19c1cd854ed,.a2e93fe8-3db1-4835-a8f3-a0dc5644570d,.b4aa29c0-a438-4def-908f-e9cfae7752d1,.bb6b4e71-8f7c-4e43-a529-77cf47dc16ce,.f92d7f1d-3acb-434b-9542-fda0ec8aef59,.fe87b274-2563-484d-b70b-94873c16500f,.fffe3577-2542-49c0-89ad-8c2266c78354{fill:none;stroke-linejoin:round;}.a2e93fe8-3db1-4835-a8f3-a0dc5644570d,.b4aa29c0-a438-4def-908f-e9cfae7752d1{stroke:#1d1d1b;}.a2c978b5-59a1-4bcd-86a5-c19c1cd854ed,.a2e93fe8-3db1-4835-a8f3-a0dc5644570d,.bb6b4e71-8f7c-4e43-a529-77cf47dc16ce,.f92d7f1d-3acb-434b-9542-fda0ec8aef59,.fe87b274-2563-484d-b70b-94873c16500f,.fffe3577-2542-49c0-89ad-8c2266c78354{stroke-linecap:round;}.a2e93fe8-3db1-4835-a8f3-a0dc5644570d,.b4aa29c0-a438-4def-908f-e9cfae7752d1,.fffe3577-2542-49c0-89ad-8c2266c78354{stroke-width:2px;}.a43c9e0e-0538-4f89-999d-704857da64c6{fill:#fff;}.f92d7f1d-3acb-434b-9542-fda0ec8aef59,.fe87b274-2563-484d-b70b-94873c16500f,.fffe3577-2542-49c0-89ad-8c2266c78354{stroke:#fff;}.f92d7f1d-3acb-434b-9542-fda0ec8aef59{stroke-width:6.8px;}.fe87b274-2563-484d-b70b-94873c16500f{stroke-width:6px;}.a2c978b5-59a1-4bcd-86a5-c19c1cd854ed{stroke:#2e2d2c;stroke-width:2.32px;}.bb6b4e71-8f7c-4e43-a529-77cf47dc16ce{stroke:#000;stroke-width:1.8px;}</style></defs><path class="a2e93fe8-3db1-4835-a8f3-a0dc5644570d" d="M276.79,226l-25.86-44.81-24.61,14.2,34.07,59c.48.83.88,1.65,1.28,2.46,0,0,0,0,0,0,8.27-.6,14.18-3.86,17.13-8.85l.15-.26c.09-.16.14-.32.22-.48C282.09,241.75,281.54,234.26,276.79,226Z" transform="translate(-41.14 -78.57)"/><path class="a43c9e0e-0538-4f89-999d-704857da64c6" d="M248,209.92a5.41,5.41,0,0,1-1.78-.3l-41.34-14.54a5.37,5.37,0,0,1-.91-9.72l49.42-28.53a5.37,5.37,0,0,1,8,5.64l-8.08,43.07a5.37,5.37,0,0,1-5.28,4.38Z" transform="translate(-41.14 -78.57)"/><path class="a43c9e0e-0538-4f89-999d-704857da64c6" d="M256.12,161.48h0m0,0L248,204.55,206.7,190l12.4-7.16,24.62-14.21,12.4-7.16m0-10.75H256a10.67,10.67,0,0,0-5.37,1.54l-12.24,7.07-24.61,14.2-12.4,7.16a10.75,10.75,0,0,0,1.8,19.45l41.34,14.54a10.75,10.75,0,0,0,14.13-8.16l8-42.64a10.76,10.76,0,0,0-10.47-13.16h0Zm0,21.5h0Z" transform="translate(-41.14 -78.57)"/><path class="a2e93fe8-3db1-4835-a8f3-a0dc5644570d" d="M179.49,132.2h0Z" transform="translate(-41.14 -78.57)"/><path class="a2e93fe8-3db1-4835-a8f3-a0dc5644570d" d="M161.44,145l-25.88,44.8L160.17,204l34.07-59c.48-.83,1-1.59,1.5-2.34l0,0c-4.66-6.87-10.44-10.35-16.23-10.41h-.31c-.17,0-.34,0-.52,0C172.4,132.53,166.19,136.75,161.44,145Z" transform="translate(-41.14 -78.57)"/><path class="f92d7f1d-3acb-434b-9542-fda0ec8aef59" d="M189.12,135.59a27.83,27.83,0,0,1,6.6,7c1.27,1.87,1.06,1.56,8,13.67" transform="translate(-41.14 -78.57)"/><path class="a2e93fe8-3db1-4835-a8f3-a0dc5644570d" d="M179.49,132.2c5.79.06,11.57,3.54,16.23,10.41,1.86,2.74.54.8,23.38,40.24L206.7,190,248,204.55l8.08-43.07-12.41,7.16L230,145c-5-8.71-11.68-12.94-18.3-12.76h0" transform="translate(-41.14 -78.57)"/><path class="a43c9e0e-0538-4f89-999d-704857da64c6" d="M165.38,229.09a5.4,5.4,0,0,1-2.69-.72l-49.41-28.53a5.37,5.37,0,0,1,.9-9.72l41.34-14.54a5.47,5.47,0,0,1,1.78-.31,5.41,5.41,0,0,1,5.29,4.39l8.07,43.07a5.37,5.37,0,0,1-5.28,6.36Z" transform="translate(-41.14 -78.57)"/><path class="a43c9e0e-0538-4f89-999d-704857da64c6" d="M157.3,180.65l8.08,43.07L153,216.56l-24.61-14.22L116,195.19l41.33-14.54m0-10.75a10.62,10.62,0,0,0-3.56.61L112.4,185a10.76,10.76,0,0,0-1.81,19.46L123,211.66l24.6,14.21L160,233A10.75,10.75,0,0,0,176,221.74l-8.08-43.07a10.75,10.75,0,0,0-10.57-8.77Z" transform="translate(-41.14 -78.57)"/><path class="a2e93fe8-3db1-4835-a8f3-a0dc5644570d" d="M128.92,276.19l.15.26Z" transform="translate(-41.14 -78.57)"/><path class="a2e93fe8-3db1-4835-a8f3-a0dc5644570d" d="M149,285.43h51.74V257H132.6c-1,0-1.86-.07-2.77-.13,0,0,0,0,0,0-3.62,7.47-3.75,14.21-.9,19.26l.15.26c.09.15.21.29.3.43C132.75,282.16,139.51,285.43,149,285.43Z" transform="translate(-41.14 -78.57)"/><path class="f92d7f1d-3acb-434b-9542-fda0ec8aef59" d="M127,266.16a27.9,27.9,0,0,1,2.78-9.23c1-2,.82-1.7,7.82-13.79" transform="translate(-41.14 -78.57)"/><path class="a2e93fe8-3db1-4835-a8f3-a0dc5644570d" d="M128.92,276.19c-2.85-5.05-2.72-11.79.9-19.26,1.44-3,.42-.87,23.16-40.37l12.4,7.16-8.08-43.07L116,195.19l12.4,7.16L114.7,226c-5,8.71-5.36,16.59-1.89,22.23h0" transform="translate(-41.14 -78.57)"/><path class="a43c9e0e-0538-4f89-999d-704857da64c6" d="M215.15,305.15a5.4,5.4,0,0,1-3.5-1.3L178.4,275.32a5.37,5.37,0,0,1,0-8.16l33.26-28.53a5.38,5.38,0,0,1,3.5-1.3,5.52,5.52,0,0,1,2.24.49,5.38,5.38,0,0,1,3.13,4.89v57.06a5.38,5.38,0,0,1-3.13,4.89A5.56,5.56,0,0,1,215.15,305.15Z" transform="translate(-41.14 -78.57)"/><path class="a43c9e0e-0538-4f89-999d-704857da64c6" d="M215.16,242.71h0m0,0v57.06L181.9,271.24l33.26-28.53m0-10.75h-.33a10.74,10.74,0,0,0-6.72,2.63L174.9,263.08a10.75,10.75,0,0,0,0,16.32l33.26,28.53a10.75,10.75,0,0,0,17.75-8.16V242.71A10.74,10.74,0,0,0,215.29,232Zm0,21.5h0Z" transform="translate(-41.14 -78.57)"/><path class="a2e93fe8-3db1-4835-a8f3-a0dc5644570d" d="M278.83,248.05l.15-.26Z" transform="translate(-41.14 -78.57)"/><path class="f92d7f1d-3acb-434b-9542-fda0ec8aef59" d="M271.08,254.7a28,28,0,0,1-9.38,2.2c-2.25.17-1.88.14-15.85.12" transform="translate(-41.14 -78.57)"/><path class="a2e93fe8-3db1-4835-a8f3-a0dc5644570d" d="M278.83,248.05c-2.95,5-8.86,8.25-17.13,8.85-3.31.24-1,.07-46.54.13V242.71L181.9,271.24l33.26,28.53V285.45h27.33c10,0,17.05-3.65,20.2-9.48h0" transform="translate(-41.14 -78.57)"/><path class="a2e93fe8-3db1-4835-a8f3-a0dc5644570d" d="M290.4,274.24a9.71,9.71,0,0,0-9.63,9.78" transform="translate(-41.14 -78.57)"/><polyline class="a2e93fe8-3db1-4835-a8f3-a0dc5644570d" points="248.76 225.41 265.86 216.35 265.86 225.41 282.95 216.35 282.95 247.58"/><line class="a2e93fe8-3db1-4835-a8f3-a0dc5644570d" x1="236.34" y1="210.29" x2="234.07" y2="247.41"/><line class="fe87b274-2563-484d-b70b-94873c16500f" x1="244.68" y1="210.29" x2="246.95" y2="247.41"/><line class="a2e93fe8-3db1-4835-a8f3-a0dc5644570d" x1="244.68" y1="210.29" x2="246.95" y2="247.41"/><line class="fe87b274-2563-484d-b70b-94873c16500f" x1="228.09" y1="247.58" x2="288.94" y2="247.58"/><line class="a2e93fe8-3db1-4835-a8f3-a0dc5644570d" x1="228.09" y1="247.58" x2="288.94" y2="247.58"/><polyline class="a2e93fe8-3db1-4835-a8f3-a0dc5644570d" points="258.74 232.65 253.61 232.65 253.61 237.53"/><polyline class="a2e93fe8-3db1-4835-a8f3-a0dc5644570d" points="275.83 232.65 270.71 232.65 270.71 237.53"/><line class="fe87b274-2563-484d-b70b-94873c16500f" x1="246.18" y1="208.34" x2="234.85" y2="208.34"/><line class="a2e93fe8-3db1-4835-a8f3-a0dc5644570d" x1="247.2" y1="208.34" x2="233.82" y2="208.34"/><path class="a2e93fe8-3db1-4835-a8f3-a0dc5644570d" d="M330.08,274.24s-10.79,8.93-21,8.93c-13.56,0-15.92-8.93-15.92-8.93s2.36-8.93,15.92-8.93C319.29,265.31,330.08,274.24,330.08,274.24Z" transform="translate(-41.14 -78.57)"/><line class="a2e93fe8-3db1-4835-a8f3-a0dc5644570d" x1="268.94" y1="195.66" x2="249.25" y2="195.66"/><polygon class="a2c978b5-59a1-4bcd-86a5-c19c1cd854ed" points="19.39 247.58 1.16 247.58 5.58 235.95 14.97 235.95 19.39 247.58"/><polygon class="a2c978b5-59a1-4bcd-86a5-c19c1cd854ed" points="37.63 247.58 19.39 247.58 23.82 235.95 33.21 235.95 37.63 247.58"/><polygon class="a2c978b5-59a1-4bcd-86a5-c19c1cd854ed" points="55.87 247.58 37.63 247.58 42.05 235.95 51.45 235.95 55.87 247.58"/><polygon class="a2c978b5-59a1-4bcd-86a5-c19c1cd854ed" points="28.51 235.95 10.28 235.95 14.7 224.32 24.09 224.32 28.51 235.95"/><polygon class="a2c978b5-59a1-4bcd-86a5-c19c1cd854ed" points="46.75 235.95 28.51 235.95 32.94 224.32 42.33 224.32 46.75 235.95"/><polygon class="a2c978b5-59a1-4bcd-86a5-c19c1cd854ed" points="37.63 224.32 19.39 224.32 23.82 212.69 33.21 212.69 37.63 224.32"/><path class="a2e93fe8-3db1-4835-a8f3-a0dc5644570d" d="M83.58,272.54A10.22,10.22,0,0,0,98,281.84a9.36,9.36,0,0,0,5-5,10.33,10.33,0,0,0-.47-9.36h0L94.8,254.07a1.24,1.24,0,0,0-2.13,0l-7.73,13.39h0A10.11,10.11,0,0,0,83.58,272.54Z" transform="translate(-41.14 -78.57)"/><path class="a2e93fe8-3db1-4835-a8f3-a0dc5644570d" d="M93.73,277.9a5.36,5.36,0,0,1-5.35-5.36" transform="translate(-41.14 -78.57)"/><path class="b4aa29c0-a438-4def-908f-e9cfae7752d1" d="M136.13,323.13a1.51,1.51,0,0,1,0,3" transform="translate(-41.14 -78.57)"/><path class="b4aa29c0-a438-4def-908f-e9cfae7752d1" d="M136.13,291.43a1.52,1.52,0,0,1,0,3" transform="translate(-41.14 -78.57)"/><line class="a2e93fe8-3db1-4835-a8f3-a0dc5644570d" x1="67.93" y1="224.25" x2="67.93" y2="215.88"/><line class="a2e93fe8-3db1-4835-a8f3-a0dc5644570d" x1="67.93" y1="234.39" x2="67.93" y2="225.44"/><line class="a2e93fe8-3db1-4835-a8f3-a0dc5644570d" x1="67.93" y1="244.55" x2="67.93" y2="235.6"/><line class="a2e93fe8-3db1-4835-a8f3-a0dc5644570d" x1="71.84" y1="209.83" x2="77.77" y2="209.83"/><line class="a2e93fe8-3db1-4835-a8f3-a0dc5644570d" x1="66.72" y1="212.86" x2="94.98" y2="212.86"/><line class="a2e93fe8-3db1-4835-a8f3-a0dc5644570d" x1="66.72" y1="215.88" x2="67.93" y2="215.88"/><line class="a2e93fe8-3db1-4835-a8f3-a0dc5644570d" x1="93.77" y1="215.88" x2="94.98" y2="215.88"/><line class="a2e93fe8-3db1-4835-a8f3-a0dc5644570d" x1="66.72" y1="244.55" x2="67.93" y2="244.55"/><line class="a2e93fe8-3db1-4835-a8f3-a0dc5644570d" x1="70.95" y1="244.55" x2="90.75" y2="244.55"/><line class="a2e93fe8-3db1-4835-a8f3-a0dc5644570d" x1="93.77" y1="244.55" x2="94.98" y2="244.55"/><line class="fffe3577-2542-49c0-89ad-8c2266c78354" x1="65.51" y1="224.23" x2="68.53" y2="224.23"/><line class="a2e93fe8-3db1-4835-a8f3-a0dc5644570d" x1="65.51" y1="225.44" x2="70.95" y2="225.44"/><line class="fffe3577-2542-49c0-89ad-8c2266c78354" x1="65.51" y1="234.39" x2="68.53" y2="234.39"/><line class="a2e93fe8-3db1-4835-a8f3-a0dc5644570d" x1="65.51" y1="235.6" x2="70.95" y2="235.6"/><line class="a2e93fe8-3db1-4835-a8f3-a0dc5644570d" x1="93.77" y1="224.25" x2="93.77" y2="215.88"/><line class="a2e93fe8-3db1-4835-a8f3-a0dc5644570d" x1="93.77" y1="234.39" x2="93.77" y2="225.44"/><line class="a2e93fe8-3db1-4835-a8f3-a0dc5644570d" x1="93.77" y1="244.55" x2="93.77" y2="235.6"/><line class="fffe3577-2542-49c0-89ad-8c2266c78354" x1="96.19" y1="224.23" x2="93.17" y2="224.23"/><line class="a2e93fe8-3db1-4835-a8f3-a0dc5644570d" x1="96.19" y1="225.44" x2="90.75" y2="225.44"/><line class="fffe3577-2542-49c0-89ad-8c2266c78354" x1="96.19" y1="234.39" x2="93.17" y2="234.39"/><line class="a2e93fe8-3db1-4835-a8f3-a0dc5644570d" x1="96.19" y1="235.6" x2="90.75" y2="235.6"/><line class="a2e93fe8-3db1-4835-a8f3-a0dc5644570d" x1="66.72" y1="247.58" x2="94.98" y2="247.58"/><path class="b4aa29c0-a438-4def-908f-e9cfae7752d1" d="M107.86,323.13a1.51,1.51,0,0,0,0,3" transform="translate(-41.14 -78.57)"/><path class="b4aa29c0-a438-4def-908f-e9cfae7752d1" d="M107.86,291.43a1.52,1.52,0,0,0,0,3" transform="translate(-41.14 -78.57)"/><line class="a2e93fe8-3db1-4835-a8f3-a0dc5644570d" x1="70.95" y1="215.88" x2="90.75" y2="215.88"/><path class="a2e93fe8-3db1-4835-a8f3-a0dc5644570d" d="M122,298.46s4.5,5.17,4.5,10.05c0,6.5-4.5,7.63-4.5,7.63s-4.49-1.13-4.49-7.63C117.5,303.63,122,298.46,122,298.46Z" transform="translate(-41.14 -78.57)"/><line class="a2e93fe8-3db1-4835-a8f3-a0dc5644570d" x1="80.85" y1="229.47" x2="80.85" y2="240.54"/><path class="bb6b4e71-8f7c-4e43-a529-77cf47dc16ce" d="M157.15,79.47h73.22a0,0,0,0,1,0,0V118a3.64,3.64,0,0,1-3.64,3.64H160.79a3.64,3.64,0,0,1-3.64-3.64V79.47A0,0,0,0,1,157.15,79.47Z" transform="translate(346.37 122.57) rotate(180)"/><path class="b4aa29c0-a438-4def-908f-e9cfae7752d1" d="M193.17,102l-2.57,8.42a.25.25,0,0,0,.44.22l8.81-11.52h-5.51l2.57-8.41a.25.25,0,0,0-.44-.22L187.66,102Z" transform="translate(-41.14 -78.57)"/><polyline class="a2e93fe8-3db1-4835-a8f3-a0dc5644570d" points="160.14 29.53 158.54 27.93 156.66 34.95 163.68 33.07 162.08 31.47"/><path class="a2e93fe8-3db1-4835-a8f3-a0dc5644570d" d="M193.53,87.16a13.4,13.4,0,0,1,9.7,22.88" transform="translate(-41.14 -78.57)"/><polyline class="a2e93fe8-3db1-4835-a8f3-a0dc5644570d" points="145.09 14.47 146.68 16.07 148.56 9.05 141.54 10.93 143.14 12.53"/><path class="a2e93fe8-3db1-4835-a8f3-a0dc5644570d" d="M194,114a13.4,13.4,0,0,1-9.7-22.88" transform="translate(-41.14 -78.57)"/></svg>