<svg id="a1e86eb3-fa6e-460d-9b76-b4ea1e7bb16f" data-name="Layer 1" xmlns="http://www.w3.org/2000/svg" viewBox="0 0 204.85 203.06"><defs><style>.ae3d3bc8-d047-4712-8635-823684da8b5a,.b34663ef-0d00-4bc5-9ec6-f9b8778e1840,.bc7195fb-c1fa-448c-ac62-fa0c67970ebe,.bce0d5e3-9bab-4244-8a34-a66de121049a,.face8827-1868-475d-ac1e-854fa2e51871{fill:none;}.a9b3b6d7-f653-4ee3-9513-2a65f5e95c72,.bc7195fb-c1fa-448c-ac62-fa0c67970ebe,.bce0d5e3-9bab-4244-8a34-a66de121049a{stroke:#1d1d1b;}.a9b3b6d7-f653-4ee3-9513-2a65f5e95c72,.ae3d3bc8-d047-4712-8635-823684da8b5a,.b34663ef-0d00-4bc5-9ec6-f9b8778e1840,.bc7195fb-c1fa-448c-ac62-fa0c67970ebe,.bce0d5e3-9bab-4244-8a34-a66de121049a,.face8827-1868-475d-ac1e-854fa2e51871{stroke-linejoin:round;}.a9b3b6d7-f653-4ee3-9513-2a65f5e95c72,.b34663ef-0d00-4bc5-9ec6-f9b8778e1840,.bc7195fb-c1fa-448c-ac62-fa0c67970ebe,.bce0d5e3-9bab-4244-8a34-a66de121049a,.face8827-1868-475d-ac1e-854fa2e51871{stroke-width:2px;}.a9b3b6d7-f653-4ee3-9513-2a65f5e95c72,.ae3d3bc8-d047-4712-8635-823684da8b5a,.b34663ef-0d00-4bc5-9ec6-f9b8778e1840,.bce0d5e3-9bab-4244-8a34-a66de121049a,.face8827-1868-475d-ac1e-854fa2e51871{stroke-linecap:round;}.a9b3b6d7-f653-4ee3-9513-2a65f5e95c72,.ee812261-ce7d-4b84-b842-e17b4a33bbf4{fill:#fff;}.ae3d3bc8-d047-4712-8635-823684da8b5a,.face8827-1868-475d-ac1e-854fa2e51871{stroke:#fff;}.ae3d3bc8-d047-4712-8635-823684da8b5a{stroke-width:4px;}.b34663ef-0d00-4bc5-9ec6-f9b8778e1840{stroke:#000;}.bdde561c-4dac-4759-9d76-48a14e23c7b4{font-size:12px;}.b7055e07-e2b4-4c19-b548-38a1808d021b,.bdde561c-4dac-4759-9d76-48a14e23c7b4{fill:#231f20;font-family:Montserrat-Bold, Montserrat;font-weight:700;}.b7055e07-e2b4-4c19-b548-38a1808d021b{font-size:10px;}</style></defs><path class="bc7195fb-c1fa-448c-ac62-fa0c67970ebe" d="M197.65,92.52a21.77,21.77,0,0,1,.12,4.58c-1.51,19.56-18.55,20.45-18.55,36.82,0,9.5,4.76,17.72,12.84,20.89a1,1,0,0,0,1.16-1.41,10,10,0,0,1-1.19-8.51c1.81-6.41,9.34-12.55,12.74-21.2,2.89,2.42,8.34,12.5,6.49,21.47a17.73,17.73,0,0,1-3.82,7.83c-.68.79.13,1.74,1.14,1.49,8.15-2.09,14.5-11.44,15.22-20.56C225.26,115.51,209.61,100.2,197.65,92.52Z" transform="translate(-97.43 -91.52)"/><line class="bce0d5e3-9bab-4244-8a34-a66de121049a" x1="23.82" y1="71.93" x2="43.95" y2="120.54"/><line class="bce0d5e3-9bab-4244-8a34-a66de121049a" x1="9.58" y1="86.17" x2="58.19" y2="106.3"/><line class="bce0d5e3-9bab-4244-8a34-a66de121049a" x1="9.58" y1="106.3" x2="58.19" y2="86.17"/><line class="bce0d5e3-9bab-4244-8a34-a66de121049a" x1="23.82" y1="120.54" x2="43.95" y2="71.93"/><line class="bce0d5e3-9bab-4244-8a34-a66de121049a" x1="33.88" y1="63.35" x2="33.88" y2="129.12"/><line class="bce0d5e3-9bab-4244-8a34-a66de121049a" x1="10.63" y1="72.99" x2="57.14" y2="119.49"/><line class="bce0d5e3-9bab-4244-8a34-a66de121049a" x1="1" y1="96.23" x2="66.77" y2="96.23"/><line class="bce0d5e3-9bab-4244-8a34-a66de121049a" x1="10.63" y1="119.48" x2="57.14" y2="72.98"/><path class="ee812261-ce7d-4b84-b842-e17b4a33bbf4" d="M131.31,204.58a16.83,16.83,0,1,1,16.83-16.83A16.85,16.85,0,0,1,131.31,204.58Z" transform="translate(-97.43 -91.52)"/><path class="ee812261-ce7d-4b84-b842-e17b4a33bbf4" d="M131.31,172.93a14.83,14.83,0,1,1-14.82,14.82,14.83,14.83,0,0,1,14.82-14.82m0-4a18.83,18.83,0,1,0,18.83,18.82,18.84,18.84,0,0,0-18.83-18.82Z" transform="translate(-97.43 -91.52)"/><path class="a9b3b6d7-f653-4ee3-9513-2a65f5e95c72" d="M146.14,187.75a14.83,14.83,0,1,1-14.83-14.82A14.83,14.83,0,0,1,146.14,187.75Z" transform="translate(-97.43 -91.52)"/><line class="bce0d5e3-9bab-4244-8a34-a66de121049a" x1="141.49" y1="94.53" x2="192.68" y2="94.53"/><path class="bce0d5e3-9bab-4244-8a34-a66de121049a" d="M284.06,168.83a17.23,17.23,0,0,1,0,34.45" transform="translate(-97.43 -91.52)"/><path class="bce0d5e3-9bab-4244-8a34-a66de121049a" d="M266.31,166.19a2.85,2.85,0,0,1-.37.71,3.38,3.38,0,0,1-.69.6,3.53,3.53,0,0,1-1,.4,4.07,4.07,0,0,1-1.17.08,4.58,4.58,0,0,1-1.26-.29,5.24,5.24,0,0,1-1.23-.7,5.58,5.58,0,0,1-1-1.12,5.79,5.79,0,0,1-.74-1.47,6.61,6.61,0,0,1-.29-1.75,6.5,6.5,0,0,1,.23-1.88,7.62,7.62,0,0,1,.81-1.87,8.06,8.06,0,0,1,1.39-1.68,9,9,0,0,1,1.92-1.33,9.32,9.32,0,0,1,2.35-.81,9.85,9.85,0,0,1,2.62-.19,10.8,10.8,0,0,1,5.3,1.82,11.07,11.07,0,0,1,2.24,2,11.46,11.46,0,0,1,1.69,2.61,11.81,11.81,0,0,1,.95,3.09,12.48,12.48,0,0,1,.08,3.35,12.85,12.85,0,0,1-.87,3.38,13.53,13.53,0,0,1-1.83,3.15,14.29,14.29,0,0,1-2.71,2.67,15.28,15.28,0,0,1-3.47,2,16.22,16.22,0,0,1-4,1,16.58,16.58,0,0,1-2,.12H238.92" transform="translate(-97.43 -91.52)"/><path class="bce0d5e3-9bab-4244-8a34-a66de121049a" d="M266.31,205.92a2.85,2.85,0,0,0-.37-.71,3.38,3.38,0,0,0-.69-.6,3.53,3.53,0,0,0-1-.4,4.45,4.45,0,0,0-1.17-.09,5,5,0,0,0-1.26.3,5.24,5.24,0,0,0-1.23.7,5.32,5.32,0,0,0-1,1.12,5.79,5.79,0,0,0-.74,1.47,6.6,6.6,0,0,0-.29,1.74,6.52,6.52,0,0,0,.23,1.89,7.4,7.4,0,0,0,.81,1.86,7.86,7.86,0,0,0,1.39,1.69,9,9,0,0,0,1.92,1.33,9.32,9.32,0,0,0,2.35.81,10.29,10.29,0,0,0,2.62.19,10.8,10.8,0,0,0,5.3-1.82,11.07,11.07,0,0,0,2.24-2,11.68,11.68,0,0,0,1.69-2.61,11.81,11.81,0,0,0,.95-3.09,12.48,12.48,0,0,0,.08-3.35,12.85,12.85,0,0,0-.87-3.38,13.53,13.53,0,0,0-1.83-3.15,14.29,14.29,0,0,0-2.71-2.67,15.28,15.28,0,0,0-3.47-1.95,16.22,16.22,0,0,0-4-1,16.53,16.53,0,0,0-2-.13H238.92" transform="translate(-97.43 -91.52)"/><path class="bc7195fb-c1fa-448c-ac62-fa0c67970ebe" d="M259.45,288.58a2.5,2.5,0,0,1,0,5" transform="translate(-97.43 -91.52)"/><path class="bc7195fb-c1fa-448c-ac62-fa0c67970ebe" d="M259.45,236.22a2.5,2.5,0,0,1,0,5" transform="translate(-97.43 -91.52)"/><line class="bce0d5e3-9bab-4244-8a34-a66de121049a" x1="117.32" y1="163.52" x2="117.32" y2="149.7"/><line class="bce0d5e3-9bab-4244-8a34-a66de121049a" x1="117.32" y1="180.27" x2="117.32" y2="165.48"/><line class="bce0d5e3-9bab-4244-8a34-a66de121049a" x1="117.32" y1="197.06" x2="117.32" y2="182.27"/><line class="bce0d5e3-9bab-4244-8a34-a66de121049a" x1="123.78" y1="139.7" x2="133.58" y2="139.7"/><line class="bce0d5e3-9bab-4244-8a34-a66de121049a" x1="115.32" y1="144.7" x2="162.02" y2="144.7"/><line class="bce0d5e3-9bab-4244-8a34-a66de121049a" x1="115.32" y1="149.7" x2="117.32" y2="149.7"/><line class="bce0d5e3-9bab-4244-8a34-a66de121049a" x1="160.02" y1="149.7" x2="162.02" y2="149.7"/><line class="bce0d5e3-9bab-4244-8a34-a66de121049a" x1="115.32" y1="197.06" x2="117.32" y2="197.06"/><line class="bce0d5e3-9bab-4244-8a34-a66de121049a" x1="122.32" y1="197.06" x2="155.02" y2="197.06"/><line class="bce0d5e3-9bab-4244-8a34-a66de121049a" x1="160.02" y1="197.06" x2="162.02" y2="197.06"/><line class="face8827-1868-475d-ac1e-854fa2e51871" x1="113.32" y1="163.48" x2="118.32" y2="163.48"/><line class="bce0d5e3-9bab-4244-8a34-a66de121049a" x1="113.32" y1="165.48" x2="122.32" y2="165.48"/><line class="face8827-1868-475d-ac1e-854fa2e51871" x1="113.32" y1="180.27" x2="118.32" y2="180.27"/><line class="bce0d5e3-9bab-4244-8a34-a66de121049a" x1="113.32" y1="182.27" x2="122.32" y2="182.27"/><line class="bce0d5e3-9bab-4244-8a34-a66de121049a" x1="160.02" y1="163.52" x2="160.02" y2="149.7"/><line class="bce0d5e3-9bab-4244-8a34-a66de121049a" x1="160.02" y1="180.27" x2="160.02" y2="165.48"/><line class="bce0d5e3-9bab-4244-8a34-a66de121049a" x1="160.02" y1="197.06" x2="160.02" y2="182.27"/><line class="face8827-1868-475d-ac1e-854fa2e51871" x1="164.02" y1="163.48" x2="159.02" y2="163.48"/><line class="bce0d5e3-9bab-4244-8a34-a66de121049a" x1="164.02" y1="165.48" x2="155.02" y2="165.48"/><line class="face8827-1868-475d-ac1e-854fa2e51871" x1="164.02" y1="180.27" x2="159.02" y2="180.27"/><line class="bce0d5e3-9bab-4244-8a34-a66de121049a" x1="164.02" y1="182.27" x2="155.02" y2="182.27"/><line class="bce0d5e3-9bab-4244-8a34-a66de121049a" x1="115.32" y1="202.06" x2="162.02" y2="202.06"/><path class="bc7195fb-c1fa-448c-ac62-fa0c67970ebe" d="M212.75,288.58a2.5,2.5,0,0,0,0,5" transform="translate(-97.43 -91.52)"/><path class="bc7195fb-c1fa-448c-ac62-fa0c67970ebe" d="M212.75,236.22a2.5,2.5,0,0,0,0,5" transform="translate(-97.43 -91.52)"/><line class="bce0d5e3-9bab-4244-8a34-a66de121049a" x1="122.32" y1="149.7" x2="155.02" y2="149.7"/><path class="a9b3b6d7-f653-4ee3-9513-2a65f5e95c72" d="M227,270.42a9.2,9.2,0,0,0,13,8.36,8.42,8.42,0,0,0,4.52-4.51,9.31,9.31,0,0,0-.43-8.42h0l-7-12.06a1.12,1.12,0,0,0-1.92,0l-6.95,12.06h0A9.05,9.05,0,0,0,227,270.42Z" transform="translate(-97.43 -91.52)"/><path class="bce0d5e3-9bab-4244-8a34-a66de121049a" d="M236.1,261.74m0,13a4.34,4.34,0,0,1-4.34-4.33" transform="translate(-97.43 -91.52)"/><path class="ae3d3bc8-d047-4712-8635-823684da8b5a" d="M184.63,228.07l-7.08,7.08a5.29,5.29,0,0,1-2.38,1.37l-7.84,1.79A9.66,9.66,0,0,0,163,240.8l-34.11,34.11a10,10,0,0,0-.94,13.31,9.72,9.72,0,0,0,14.37.71l34.4-34.41a9.57,9.57,0,0,0,2.49-4.31l1.79-7.84a5.29,5.29,0,0,1,1.37-2.38l7.08-7.08a3.42,3.42,0,0,0-4.84-4.84Z" transform="translate(-97.43 -91.52)"/><path class="b34663ef-0d00-4bc5-9ec6-f9b8778e1840" d="M184.63,228.07l-7.08,7.08a5.29,5.29,0,0,1-2.38,1.37l-7.84,1.79A9.66,9.66,0,0,0,163,240.8l-34.11,34.11a10,10,0,0,0-.94,13.31,9.72,9.72,0,0,0,14.37.71l34.4-34.41a9.57,9.57,0,0,0,2.49-4.31l1.79-7.84a5.29,5.29,0,0,1,1.37-2.38l7.08-7.08a3.42,3.42,0,0,0-4.84-4.84Z" transform="translate(-97.43 -91.52)"/><text class="bdde561c-4dac-4759-9d76-48a14e23c7b4" transform="translate(49.23 168.69) rotate(45)">H</text><text class="b7055e07-e2b4-4c19-b548-38a1808d021b" transform="translate(53.06 177.54) rotate(45)">2</text></svg>