<svg id="a42c1249-e576-49da-94c1-ab4cd4ffa31d" data-name="Layer 1" xmlns="http://www.w3.org/2000/svg" viewBox="0 0 110.89 112.78"><defs><style>.abc68771-4ffb-485f-bb46-f301c8b08740{fill:#2e2d2c;}.b967deba-2392-4833-97fa-a53ea004c0b2,.be54b869-00ed-438f-833f-dec7bf76209b,.f32dd8c2-7d87-4bf0-810e-1ce848bdff58,.f86837ce-dcff-407b-bbab-864d77c9c6fb{fill:none;}.b89b5b91-0e62-47da-a4e5-8775e5c523f5,.f86837ce-dcff-407b-bbab-864d77c9c6fb{stroke:#2e2d2c;stroke-width:2.32px;}.a2c05f8d-01bf-4eac-b569-05616b1bced2,.b89b5b91-0e62-47da-a4e5-8775e5c523f5,.be54b869-00ed-438f-833f-dec7bf76209b,.f86837ce-dcff-407b-bbab-864d77c9c6fb{stroke-linecap:round;}.a2c05f8d-01bf-4eac-b569-05616b1bced2,.b89b5b91-0e62-47da-a4e5-8775e5c523f5,.be54b869-00ed-438f-833f-dec7bf76209b,.f32dd8c2-7d87-4bf0-810e-1ce848bdff58,.f86837ce-dcff-407b-bbab-864d77c9c6fb{stroke-linejoin:round;}.a2c05f8d-01bf-4eac-b569-05616b1bced2,.b89b5b91-0e62-47da-a4e5-8775e5c523f5{fill:#fff;}.a2c05f8d-01bf-4eac-b569-05616b1bced2,.be54b869-00ed-438f-833f-dec7bf76209b{stroke:#fff;stroke-width:7.45px;}.f32dd8c2-7d87-4bf0-810e-1ce848bdff58{stroke:#1d1d1b;stroke-width:2px;}</style></defs><circle class="abc68771-4ffb-485f-bb46-f301c8b08740" cx="85.9" cy="57.13" r="2.8"/><path class="f86837ce-dcff-407b-bbab-864d77c9c6fb" d="M259.07,182.56l-9.65-2.82c-2.11-6.5-6.72-12.26-13-16.68a25.5,25.5,0,0,1,4.38-9.19,2.47,2.47,0,0,0-1.42-4c-8-1.54-15.43.87-19.93,5.64a59.31,59.31,0,0,0-14-1.66c-25,0-45.34,15.13-45.34,33.81,0,10.22,6.11,19.36,15.72,25.56l6.49,17.31h9.07l5-9.75a60.22,60.22,0,0,0,18.18,0l5,9.75h9.07L235,213.27a36.72,36.72,0,0,0,11.6-11.54l12.45-3.27Z" transform="translate(-149.34 -118.96)"/><path class="f86837ce-dcff-407b-bbab-864d77c9c6fb" d="M190.65,219.68a56.87,56.87,0,0,0,5.67,1.15" transform="translate(-149.34 -118.96)"/><path class="f86837ce-dcff-407b-bbab-864d77c9c6fb" d="M159.06,161.12h-.34a2,2,0,0,0-.31.18,1.38,1.38,0,0,0-.23.33,1.91,1.91,0,0,0-.08.45,2.08,2.08,0,0,0,.12.51,1.82,1.82,0,0,0,.84.9,2.59,2.59,0,0,0,.71.25,3.18,3.18,0,0,0,.82,0,3.27,3.27,0,0,0,.87-.25,3.53,3.53,0,0,0,.83-.53,4.25,4.25,0,0,0,.7-.81,4.07,4.07,0,0,0,.47-1.06,4.44,4.44,0,0,0,.18-1.22,4.68,4.68,0,0,0-.19-1.32,5,5,0,0,0-.57-1.29,5.7,5.7,0,0,0-.95-1.15,6,6,0,0,0-1.3-.9,6.41,6.41,0,0,0-1.58-.54,6.76,6.76,0,0,0-1.75-.11,7.33,7.33,0,0,0-1.81.39,7.54,7.54,0,0,0-1.71.89,7.65,7.65,0,0,0-1.47,1.38,7.75,7.75,0,0,0-1.1,1.79,8.29,8.29,0,0,0-.62,2.11,9.13,9.13,0,0,0,0,2.28,9,9,0,0,0,.59,2.29,9.09,9.09,0,0,0,1.22,2.13,9.3,9.3,0,0,0,1.8,1.8,10.21,10.21,0,0,0,2.28,1.3,10.35,10.35,0,0,0,5.43.64,10.78,10.78,0,0,0,2.79-.79,11.55,11.55,0,0,0,2.55-1.54,11.1,11.1,0,0,0,1.08-1" transform="translate(-149.34 -118.96)"/><path class="f86837ce-dcff-407b-bbab-864d77c9c6fb" d="M226.92,217.45a47.9,47.9,0,0,0,8.1-4.18" transform="translate(-149.34 -118.96)"/><path class="f86837ce-dcff-407b-bbab-864d77c9c6fb" d="M225.83,157.61a46.41,46.41,0,0,0-6.43-2.05" transform="translate(-149.34 -118.96)"/><circle class="a2c05f8d-01bf-4eac-b569-05616b1bced2" cx="195.95" cy="142.9" r="20.22" transform="translate(-192.99 61.45) rotate(-45)"/><circle class="b89b5b91-0e62-47da-a4e5-8775e5c523f5" cx="195.95" cy="142.9" r="20.22" transform="translate(-192.99 61.45) rotate(-45)"/><path class="b89b5b91-0e62-47da-a4e5-8775e5c523f5" d="M201.89,137.73c-1.95-5.19-10.73-4.58-10.79.83,0,2.41,2.8,3.53,5.17,3.9,8.63,1.36,6.25,9.48,0,9.18-4.74-.24-6.11-3.44-6.26-4.21" transform="translate(-149.34 -118.96)"/><line class="b89b5b91-0e62-47da-a4e5-8775e5c523f5" x1="47.03" y1="10.84" x2="47.03" y2="15.19"/><line class="b89b5b91-0e62-47da-a4e5-8775e5c523f5" x1="47.03" y1="32.69" x2="47.03" y2="37.04"/><path class="be54b869-00ed-438f-833f-dec7bf76209b" d="M214.1,163a49.23,49.23,0,0,0-7-.5,45.37,45.37,0,0,0-23.66,6.34" transform="translate(-149.34 -118.96)"/><path class="f86837ce-dcff-407b-bbab-864d77c9c6fb" d="M214.1,163a49.23,49.23,0,0,0-7-.5,45.37,45.37,0,0,0-23.66,6.34" transform="translate(-149.34 -118.96)"/><path class="b967deba-2392-4833-97fa-a53ea004c0b2" d="M200.3,211.82a1.85,1.85,0,0,1-1.48-.75,1.81,1.81,0,0,1-.27-1.61l4.64-15.23h-9.3a1.31,1.31,0,0,1-1-2.12l17.72-23.17a1.8,1.8,0,0,1,1.44-.72,1.85,1.85,0,0,1,1.48.75,1.79,1.79,0,0,1,.27,1.6l-4.64,15.24h9.3a1.31,1.31,0,0,1,1,2.11L201.74,211.1a1.82,1.82,0,0,1-1.44.72Z" transform="translate(-149.34 -118.96)"/><path class="b967deba-2392-4833-97fa-a53ea004c0b2" d="M212,169.54a.5.5,0,0,1,.49.65l-5.16,16.93h11.08L200.69,210.3a.47.47,0,0,1-.39.2.5.5,0,0,1-.49-.65L205,192.91H193.89l17.73-23.17a.49.49,0,0,1,.39-.2m0-2.63h0a3.08,3.08,0,0,0-2.48,1.23L191.8,191.31a2.64,2.64,0,0,0-.26,2.77,2.61,2.61,0,0,0,2.35,1.46h7.53l-4.13,13.54a3.08,3.08,0,0,0,.48,2.77,3.16,3.16,0,0,0,2.53,1.28,3.11,3.11,0,0,0,2.48-1.23l17.73-23.18a2.63,2.63,0,0,0-2.09-4.23h-7.53L215,171a3.13,3.13,0,0,0-.47-2.78,3.17,3.17,0,0,0-2.54-1.27Z" transform="translate(-149.34 -118.96)"/><path class="f32dd8c2-7d87-4bf0-810e-1ce848bdff58" d="M205,192.91l-5.16,16.94a.5.5,0,0,0,.88.45l17.73-23.18H207.34l5.16-16.93a.5.5,0,0,0-.88-.45l-17.73,23.17Z" transform="translate(-149.34 -118.96)"/></svg>