<svg xmlns="http://www.w3.org/2000/svg" viewBox="0 0 175.51 80.93"><defs><style>.e41b9456-1ccb-43ec-b1f1-cea5a78c7a91,.fb75f5df-b05a-4bbf-90e7-7d7782858c3c,.fcedcd56-7f2d-4978-a618-545bd134fae8{fill:none;}.fcedcd56-7f2d-4978-a618-545bd134fae8{stroke:#000;stroke-width:1.8px;}.ee0c981c-2f18-419a-aacc-7a03f6fa2d74,.fb75f5df-b05a-4bbf-90e7-7d7782858c3c,.fcedcd56-7f2d-4978-a618-545bd134fae8{stroke-linecap:round;}.e41b9456-1ccb-43ec-b1f1-cea5a78c7a91,.ee0c981c-2f18-419a-aacc-7a03f6fa2d74,.fb75f5df-b05a-4bbf-90e7-7d7782858c3c,.fcedcd56-7f2d-4978-a618-545bd134fae8{stroke-linejoin:round;}.e41b9456-1ccb-43ec-b1f1-cea5a78c7a91,.fb75f5df-b05a-4bbf-90e7-7d7782858c3c{stroke:#1d1d1b;stroke-width:2px;}.ee0c981c-2f18-419a-aacc-7a03f6fa2d74{fill:#fff;stroke:#fff;stroke-width:6px;}</style></defs><g id="fe8b9d05-652f-4328-bebd-86a6e313808d" data-name="Box"><path class="fcedcd56-7f2d-4978-a618-545bd134fae8" d="M105.36,163.8H212.58a0,0,0,0,1,0,0V222a3.64,3.64,0,0,1-3.64,3.64H109a3.64,3.64,0,0,1-3.64-3.64V163.8A0,0,0,0,1,105.36,163.8Z" transform="translate(213.48 226.49) rotate(180)"/><path class="e41b9456-1ccb-43ec-b1f1-cea5a78c7a91" d="M158.11,196.8l-3.76,12.32a.37.37,0,0,0,.65.33l12.89-16.86h-8.06l3.76-12.32a.36.36,0,0,0-.64-.33l-12.9,16.86Z" transform="translate(-104.46 -162.9)"/><polyline class="fb75f5df-b05a-4bbf-90e7-7d7782858c3c" points="65.53 42.82 63.19 40.48 60.44 50.76 70.71 48 68.38 45.67"/><path class="fb75f5df-b05a-4bbf-90e7-7d7782858c3c" d="M158.63,175.06a19.62,19.62,0,0,1,14.21,33.5" transform="translate(-104.46 -162.9)"/><polyline class="fb75f5df-b05a-4bbf-90e7-7d7782858c3c" points="43.49 20.78 45.82 23.11 48.58 12.84 38.3 15.59 40.64 17.93"/><path class="fb75f5df-b05a-4bbf-90e7-7d7782858c3c" d="M159.31,214.33a19.63,19.63,0,0,1-14.21-33.51" transform="translate(-104.46 -162.9)"/></g><g id="b440118e-e4a1-4a5d-ace0-2bb4acfc3d8a" data-name="Truck"><line class="fcedcd56-7f2d-4978-a618-545bd134fae8" x1="135.03" y1="68.27" x2="153.94" y2="68.27"/><circle class="ee0c981c-2f18-419a-aacc-7a03f6fa2d74" cx="128.04" cy="68.27" r="9.66"/><circle class="fcedcd56-7f2d-4978-a618-545bd134fae8" cx="128.04" cy="68.27" r="9.66"/><path class="fcedcd56-7f2d-4978-a618-545bd134fae8" d="M236.2,231.17a3.69,3.69,0,1,1-3.69-3.69" transform="translate(-104.46 -162.9)"/><circle class="ee0c981c-2f18-419a-aacc-7a03f6fa2d74" cx="160.54" cy="68.27" r="9.66"/><circle class="fcedcd56-7f2d-4978-a618-545bd134fae8" cx="160.54" cy="68.27" r="9.66"/><path class="fcedcd56-7f2d-4978-a618-545bd134fae8" d="M268.69,231.17a3.69,3.69,0,1,1-3.68-3.69" transform="translate(-104.46 -162.9)"/><path class="fcedcd56-7f2d-4978-a618-545bd134fae8" d="M279.07,231.17V219.6a7.65,7.65,0,0,0-3.82-6.62l-12.7-7.34" transform="translate(-104.46 -162.9)"/><path class="fcedcd56-7f2d-4978-a618-545bd134fae8" d="M218.22,231.17v-21.1a4.44,4.44,0,0,1,4.44-4.43h4.54v-28a1.45,1.45,0,0,1,1.45-1.46h18.78a9.26,9.26,0,0,1,8.93,6.81l6.19,22.63" transform="translate(-104.46 -162.9)"/><path class="fcedcd56-7f2d-4978-a618-545bd134fae8" d="M235.18,183H245a5.55,5.55,0,0,1,5.35,4.08l5,18.52" transform="translate(-104.46 -162.9)"/><line class="fcedcd56-7f2d-4978-a618-545bd134fae8" x1="130.71" y1="42.75" x2="150.88" y2="42.75"/><polyline class="fcedcd56-7f2d-4978-a618-545bd134fae8" points="111.89 10.99 111.89 65.96 0.9 65.96"/><circle class="ee0c981c-2f18-419a-aacc-7a03f6fa2d74" cx="16.42" cy="68.27" r="9.66"/><circle class="fcedcd56-7f2d-4978-a618-545bd134fae8" cx="16.42" cy="68.27" r="9.66"/><path class="fcedcd56-7f2d-4978-a618-545bd134fae8" d="M124.57,231.17a3.69,3.69,0,1,1-3.69-3.69" transform="translate(-104.46 -162.9)"/><circle class="ee0c981c-2f18-419a-aacc-7a03f6fa2d74" cx="39.91" cy="68.27" r="9.66"/><circle class="fcedcd56-7f2d-4978-a618-545bd134fae8" cx="39.91" cy="68.27" r="9.66"/><path class="fcedcd56-7f2d-4978-a618-545bd134fae8" d="M148.06,231.17a3.69,3.69,0,1,1-3.69-3.69" transform="translate(-104.46 -162.9)"/></g></svg>