<?xml version="1.0" encoding="UTF-8"?><svg id="a" xmlns="http://www.w3.org/2000/svg" viewBox="0 0 117.04 150.54"><defs><style>.b{fill:#83a6de;}.c{fill:#e3edff;}.d{isolation:isolate;}.e{fill:#b4c7f0;}.f{fill:#b7d2ed;}.g{fill:#879fd6;}.h{fill:#8eb2e8;}.i{fill:#432400;}.j{fill:#d2dffc;}</style></defs><g class="d"><polygon class="h" points="116.81 4.45 74.93 72.12 117.04 87.53 116.92 46 116.81 4.45"/><polygon class="i" points="116.81 4.45 109.15 0 67.28 67.67 74.93 72.12 116.81 4.45"/><polygon class="f" points="74.93 72.12 116.81 4.45 72.94 71.39 74.93 72.12"/><polygon class="g" points="51.76 83.62 49.78 86.64 62.39 92.38 74.93 72.12 72.94 71.39 62.38 87.51 51.76 83.62"/><polygon class="h" points="49.78 86.64 7.66 67.47 7.78 109.01 7.89 150.54 49.78 86.64"/><polygon class="e" points="49.78 86.64 7.89 150.54 62.47 119.04 117.04 87.53 74.93 72.12 62.39 92.38 49.78 86.64"/><polygon class="c" points="116.81 4.45 109.15 0 54.57 31.51 62.23 35.96 116.81 4.45"/><polygon class="b" points="7.78 109.01 .12 104.56 .24 146.09 7.89 150.54 7.78 109.01"/><polygon class="f" points="51.76 83.62 7.66 67.47 49.78 86.64 51.76 83.62"/><polygon class="b" points="7.66 67.47 0 63.02 .12 104.56 7.78 109.01 7.66 67.47"/><polygon class="c" points="62.23 35.96 54.57 31.51 0 63.02 7.66 67.47 62.23 35.96"/><polygon class="j" points="7.66 67.47 51.76 83.62 62.38 87.51 72.94 71.39 116.81 4.45 62.23 35.96 7.66 67.47"/></g></svg>