<svg id="Layer_1" data-name="Layer 1" xmlns="http://www.w3.org/2000/svg" viewBox="0 0 247.4 227.55"><defs><style>.cls-1,.cls-4{fill:none;}.cls-1,.cls-3{stroke:#2e2d2c;stroke-width:7.86px;}.cls-1,.cls-2,.cls-3,.cls-4{stroke-linecap:round;stroke-linejoin:round;}.cls-2,.cls-3,.cls-5{fill:#f8f8f8;}.cls-2,.cls-4{stroke:#f8f8f8;stroke-width:23.57px;}</style></defs><path class="cls-1" d="M7206.73,7087.71a13.2,13.2,0,0,0-14.45,0l-105.33,76c-4,2.87-7.22,9.23-7.22,14.13v118.48a8.94,8.94,0,0,0,8.91,8.91h221.72a8.94,8.94,0,0,0,8.91-8.91V7177.85c0-4.9-3.25-11.26-7.22-14.13Z" transform="translate(-7075.8 -7081.63)"/><polyline class="cls-2" points="49.45 118.4 49.45 42.84 197.95 42.84 197.95 118.4"/><polyline class="cls-3" points="49.45 122.67 49.45 42.84 197.95 42.84 197.95 122.86"/><path class="cls-4" d="M7297.68,7185.77l-91.16,71.31a12,12,0,0,1-14,0l-89.67-70.37" transform="translate(-7075.8 -7081.63)"/><path class="cls-1" d="M7315.72,7171.66l-109.2,85.42a12,12,0,0,1-14,0L7082,7170.7" transform="translate(-7075.8 -7081.63)"/><path class="cls-5" d="M7088.64,7305.24c-4.9,0-5.71-2.41-1.79-5.35l105.53-79.33a12.56,12.56,0,0,1,14.24,0l105.53,79.33c3.92,2.94,3.11,5.35-1.79,5.35Z" transform="translate(-7075.8 -7081.63)"/><path class="cls-1" d="M7088.64,7305.24c-4.9,0-5.71-2.41-1.79-5.35l105.53-79.33a12.56,12.56,0,0,1,14.24,0l105.53,79.33c3.92,2.94,3.11,5.35-1.79,5.35Z" transform="translate(-7075.8 -7081.63)"/><line class="cls-3" x1="86.14" y1="79.87" x2="161.26" y2="79.87"/><line class="cls-3" x1="86.14" y1="112.97" x2="161.26" y2="112.97"/></svg>