<svg id="b3f5cf0b-c64b-45d8-bda5-9756c57e0a3c" data-name="Layer 1" xmlns="http://www.w3.org/2000/svg" viewBox="0 0 373.52 76.23"><defs><style>.a44d9eda-42aa-4f9b-9a1e-3ae5ef5949ef,.a4d2a88b-3463-4024-8be5-a853d59e04b8,.b514f58a-df9a-4ead-bdf6-8fe1fb19f6fa,.bdf0093d-a9f7-49ba-9fcf-7a38cfe1885d,.e24f3fac-1355-4812-b615-f29ef8ad7b5d,.e2a6b9c7-2262-4937-8048-40b78b634d9f,.e5fee2dd-533b-4337-8ee0-3e73ca2c18ec,.ff71df78-24de-419d-9d59-f4cf010c1a98{fill:none;}.a4d2a88b-3463-4024-8be5-a853d59e04b8,.e24f3fac-1355-4812-b615-f29ef8ad7b5d{stroke:#000;}.a44d9eda-42aa-4f9b-9a1e-3ae5ef5949ef,.a4d2a88b-3463-4024-8be5-a853d59e04b8,.b514f58a-df9a-4ead-bdf6-8fe1fb19f6fa,.bdf0093d-a9f7-49ba-9fcf-7a38cfe1885d,.e2a6b9c7-2262-4937-8048-40b78b634d9f,.ed1643e0-5a17-4bea-9da6-ff7785291ca0,.ff71df78-24de-419d-9d59-f4cf010c1a98{stroke-linecap:round;}.a44d9eda-42aa-4f9b-9a1e-3ae5ef5949ef,.a4d2a88b-3463-4024-8be5-a853d59e04b8,.b514f58a-df9a-4ead-bdf6-8fe1fb19f6fa,.bdf0093d-a9f7-49ba-9fcf-7a38cfe1885d,.e24f3fac-1355-4812-b615-f29ef8ad7b5d,.e2a6b9c7-2262-4937-8048-40b78b634d9f,.e5fee2dd-533b-4337-8ee0-3e73ca2c18ec,.ed1643e0-5a17-4bea-9da6-ff7785291ca0,.ff71df78-24de-419d-9d59-f4cf010c1a98{stroke-linejoin:round;}.a44d9eda-42aa-4f9b-9a1e-3ae5ef5949ef,.a4d2a88b-3463-4024-8be5-a853d59e04b8,.bdf0093d-a9f7-49ba-9fcf-7a38cfe1885d,.e24f3fac-1355-4812-b615-f29ef8ad7b5d,.e5fee2dd-533b-4337-8ee0-3e73ca2c18ec,.ff71df78-24de-419d-9d59-f4cf010c1a98{stroke-width:2px;}.ed1643e0-5a17-4bea-9da6-ff7785291ca0{fill:#fff;}.a44d9eda-42aa-4f9b-9a1e-3ae5ef5949ef,.b514f58a-df9a-4ead-bdf6-8fe1fb19f6fa,.e2a6b9c7-2262-4937-8048-40b78b634d9f,.ed1643e0-5a17-4bea-9da6-ff7785291ca0{stroke:#fff;}.e2a6b9c7-2262-4937-8048-40b78b634d9f,.ed1643e0-5a17-4bea-9da6-ff7785291ca0{stroke-width:6px;}.bdf0093d-a9f7-49ba-9fcf-7a38cfe1885d{stroke:#1d1d1b;}.b514f58a-df9a-4ead-bdf6-8fe1fb19f6fa{stroke-width:4px;}.e5fee2dd-533b-4337-8ee0-3e73ca2c18ec,.ff71df78-24de-419d-9d59-f4cf010c1a98{stroke:#2e2d2c;}.af3f0c29-a57b-49b5-b608-e2724f1353f2{font-size:12px;fill:#231f20;font-family:Montserrat-SemiBold, Montserrat;font-weight:600;}.f5077a60-3b48-4275-a904-cd56db101b20{letter-spacing:0.01em;}.bc25939a-8e55-4c5d-afa4-ef2a49b9cdf0{letter-spacing:0em;}.ab3e05e6-9a78-464b-9873-a6f354aafca1{letter-spacing:0em;}.b01f85ab-5488-4e5f-bd9e-d4ba024ad121{letter-spacing:-0.01em;}.b72e8907-753f-4a6a-b86a-b04e730338bd{letter-spacing:-0.01em;}</style></defs><polyline class="a4d2a88b-3463-4024-8be5-a853d59e04b8" points="254.8 25.83 265.94 14.69 274.24 22.99"/><polyline class="e24f3fac-1355-4812-b615-f29ef8ad7b5d" points="257.63 49.4 257.63 27.07 265.94 18.83 274.24 27.07 274.24 49.4"/><polyline class="e24f3fac-1355-4812-b615-f29ef8ad7b5d" points="270.88 32.73 270.88 28.92 267.08 28.92"/><polyline class="e24f3fac-1355-4812-b615-f29ef8ad7b5d" points="264.21 32.73 264.21 28.92 260.4 28.92"/><polyline class="e24f3fac-1355-4812-b615-f29ef8ad7b5d" points="270.88 39.4 270.88 35.59 267.08 35.59"/><polyline class="e24f3fac-1355-4812-b615-f29ef8ad7b5d" points="264.21 39.4 264.21 35.59 260.4 35.59"/><polyline class="e24f3fac-1355-4812-b615-f29ef8ad7b5d" points="270.88 46.06 270.88 42.26 267.08 42.26"/><polyline class="e24f3fac-1355-4812-b615-f29ef8ad7b5d" points="264.21 49.4 264.21 42.26 260.4 42.26"/><polyline class="a4d2a88b-3463-4024-8be5-a853d59e04b8" points="293.69 25.83 282.55 14.69 274.24 22.99"/><polyline class="e24f3fac-1355-4812-b615-f29ef8ad7b5d" points="274.24 49.4 274.24 27.07 282.55 18.83 290.86 27.07 290.86 49.4"/><polyline class="e24f3fac-1355-4812-b615-f29ef8ad7b5d" points="287.5 32.73 287.5 28.92 283.69 28.92"/><polyline class="e24f3fac-1355-4812-b615-f29ef8ad7b5d" points="280.82 32.73 280.82 28.92 277.02 28.92"/><polyline class="e24f3fac-1355-4812-b615-f29ef8ad7b5d" points="287.5 39.4 287.5 35.59 283.69 35.59"/><polyline class="e24f3fac-1355-4812-b615-f29ef8ad7b5d" points="280.82 39.4 280.82 35.59 277.02 35.59"/><polyline class="e24f3fac-1355-4812-b615-f29ef8ad7b5d" points="287.5 46.06 287.5 42.26 283.69 42.26"/><polyline class="e24f3fac-1355-4812-b615-f29ef8ad7b5d" points="280.82 49.4 280.82 42.26 277.02 42.26"/><line class="a4d2a88b-3463-4024-8be5-a853d59e04b8" x1="293.64" y1="49.4" x2="254.85" y2="49.4"/><rect class="a4d2a88b-3463-4024-8be5-a853d59e04b8" x="232.6" y="28.23" width="11.18" height="21.17"/><line class="a4d2a88b-3463-4024-8be5-a853d59e04b8" x1="232.6" y1="32.86" x2="239.8" y2="32.86"/><line class="a4d2a88b-3463-4024-8be5-a853d59e04b8" x1="232.6" y1="37.01" x2="239.8" y2="37.01"/><line class="a4d2a88b-3463-4024-8be5-a853d59e04b8" x1="232.6" y1="41.17" x2="239.8" y2="41.17"/><line class="a4d2a88b-3463-4024-8be5-a853d59e04b8" x1="232.6" y1="45.32" x2="239.8" y2="45.32"/><path class="ed1643e0-5a17-4bea-9da6-ff7785291ca0" d="M228.83,67.61Q227.42,53.93,226,40.25a113.16,113.16,0,0,1,23.13,0q-1.42,13.68-2.84,27.36" transform="translate(-13.4 -18.3)"/><path class="a4d2a88b-3463-4024-8be5-a853d59e04b8" d="M228.83,67.61Q227.42,53.93,226,40.25a113.16,113.16,0,0,1,23.13,0q-1.42,13.68-2.84,27.36" transform="translate(-13.4 -18.3)"/><path class="a4d2a88b-3463-4024-8be5-a853d59e04b8" d="M231.78,44.35a106.32,106.32,0,0,1,11.57,0" transform="translate(-13.4 -18.3)"/><path class="a4d2a88b-3463-4024-8be5-a853d59e04b8" d="M232,48.36a108.54,108.54,0,0,1,11.12,0" transform="translate(-13.4 -18.3)"/><path class="a4d2a88b-3463-4024-8be5-a853d59e04b8" d="M232.23,52.38a99.75,99.75,0,0,1,10.66,0" transform="translate(-13.4 -18.3)"/><path class="a4d2a88b-3463-4024-8be5-a853d59e04b8" d="M232.46,56.39a96.4,96.4,0,0,1,10.2,0" transform="translate(-13.4 -18.3)"/><path class="a4d2a88b-3463-4024-8be5-a853d59e04b8" d="M232.69,60.41a93.07,93.07,0,0,1,9.74,0" transform="translate(-13.4 -18.3)"/><line class="a4d2a88b-3463-4024-8be5-a853d59e04b8" x1="209.89" y1="49.4" x2="247.66" y2="49.4"/><polyline class="a4d2a88b-3463-4024-8be5-a853d59e04b8" points="221.97 49.4 221.97 45.44 226.36 45.44 226.36 49.4"/><circle class="ed1643e0-5a17-4bea-9da6-ff7785291ca0" cx="224.16" cy="18.51" r="4.77"/><circle class="a4d2a88b-3463-4024-8be5-a853d59e04b8" cx="224.16" cy="18.51" r="4.77"/><line class="a4d2a88b-3463-4024-8be5-a853d59e04b8" x1="222.11" y1="18.51" x2="226.22" y2="18.51"/><line class="a4d2a88b-3463-4024-8be5-a853d59e04b8" x1="224.16" y1="20.56" x2="224.16" y2="16.46"/><line class="bdf0093d-a9f7-49ba-9fcf-7a38cfe1885d" x1="325.39" y1="18.84" x2="314.02" y2="27.61"/><line class="bdf0093d-a9f7-49ba-9fcf-7a38cfe1885d" x1="326.69" y1="28.33" x2="312.59" y2="38.06"/><line class="bdf0093d-a9f7-49ba-9fcf-7a38cfe1885d" x1="327.98" y1="37.81" x2="311.17" y2="48.5"/><line class="bdf0093d-a9f7-49ba-9fcf-7a38cfe1885d" x1="315.28" y1="18.87" x2="326.64" y2="27.6"/><line class="bdf0093d-a9f7-49ba-9fcf-7a38cfe1885d" x1="313.98" y1="28.34" x2="328.07" y2="38.05"/><line class="bdf0093d-a9f7-49ba-9fcf-7a38cfe1885d" x1="312.68" y1="37.81" x2="329.51" y2="48.51"/><line class="bdf0093d-a9f7-49ba-9fcf-7a38cfe1885d" x1="324.36" y1="10.82" x2="329.62" y2="49.4"/><line class="bdf0093d-a9f7-49ba-9fcf-7a38cfe1885d" x1="316.31" y1="10.82" x2="311.05" y2="49.4"/><line class="e2a6b9c7-2262-4937-8048-40b78b634d9f" x1="324.36" y1="10.82" x2="329.62" y2="49.4"/><line class="e2a6b9c7-2262-4937-8048-40b78b634d9f" x1="316.31" y1="10.82" x2="311.05" y2="49.4"/><line class="bdf0093d-a9f7-49ba-9fcf-7a38cfe1885d" x1="324.36" y1="10.82" x2="329.62" y2="49.4"/><line class="bdf0093d-a9f7-49ba-9fcf-7a38cfe1885d" x1="316.31" y1="10.82" x2="311.05" y2="49.4"/><line class="bdf0093d-a9f7-49ba-9fcf-7a38cfe1885d" x1="305.14" y1="17.39" x2="307.46" y2="17.39"/><line class="bdf0093d-a9f7-49ba-9fcf-7a38cfe1885d" x1="305.15" y1="20.38" x2="307.46" y2="20.38"/><line class="bdf0093d-a9f7-49ba-9fcf-7a38cfe1885d" x1="305.16" y1="23.38" x2="307.47" y2="23.38"/><line class="bdf0093d-a9f7-49ba-9fcf-7a38cfe1885d" x1="332.97" y1="17.39" x2="335.28" y2="17.39"/><line class="bdf0093d-a9f7-49ba-9fcf-7a38cfe1885d" x1="332.98" y1="20.38" x2="335.29" y2="20.38"/><line class="bdf0093d-a9f7-49ba-9fcf-7a38cfe1885d" x1="332.99" y1="23.38" x2="335.3" y2="23.38"/><polygon class="b514f58a-df9a-4ead-bdf6-8fe1fb19f6fa" points="305.14 17.39 313.83 10.82 326.83 10.82 335.32 17.39 305.14 17.39"/><polygon class="bdf0093d-a9f7-49ba-9fcf-7a38cfe1885d" points="305.14 17.39 313.83 10.82 326.83 10.82 335.32 17.39 305.14 17.39"/><line class="e2a6b9c7-2262-4937-8048-40b78b634d9f" x1="300.94" y1="49.4" x2="339.52" y2="49.4"/><line class="bdf0093d-a9f7-49ba-9fcf-7a38cfe1885d" x1="300.94" y1="49.4" x2="339.52" y2="49.4"/><polyline class="e24f3fac-1355-4812-b615-f29ef8ad7b5d" points="128.37 47.86 128.37 26.07 138.54 26.07 138.54 47.86"/><line class="a4d2a88b-3463-4024-8be5-a853d59e04b8" x1="128.37" y1="30.43" x2="133.94" y2="30.43"/><line class="a4d2a88b-3463-4024-8be5-a853d59e04b8" x1="128.37" y1="34.79" x2="133.94" y2="34.79"/><line class="a4d2a88b-3463-4024-8be5-a853d59e04b8" x1="128.37" y1="39.14" x2="133.94" y2="39.14"/><line class="a4d2a88b-3463-4024-8be5-a853d59e04b8" x1="128.37" y1="43.5" x2="133.94" y2="43.5"/><line class="a44d9eda-42aa-4f9b-9a1e-3ae5ef5949ef" x1="128.37" y1="17.36" x2="128.37" y2="47.86"/><polyline class="e24f3fac-1355-4812-b615-f29ef8ad7b5d" points="108.01 47.86 108.01 17.36 128.37 17.36 128.37 47.86"/><polyline class="e24f3fac-1355-4812-b615-f29ef8ad7b5d" points="122.78 15.69 122.78 12.17 113.6 12.17 113.6 15.69"/><line class="a4d2a88b-3463-4024-8be5-a853d59e04b8" x1="112.94" y1="21.71" x2="123.44" y2="21.71"/><line class="a4d2a88b-3463-4024-8be5-a853d59e04b8" x1="112.94" y1="26.07" x2="123.44" y2="26.07"/><line class="a4d2a88b-3463-4024-8be5-a853d59e04b8" x1="112.94" y1="30.43" x2="123.44" y2="30.43"/><line class="a4d2a88b-3463-4024-8be5-a853d59e04b8" x1="112.94" y1="34.79" x2="123.44" y2="34.79"/><line class="a4d2a88b-3463-4024-8be5-a853d59e04b8" x1="112.94" y1="39.14" x2="123.44" y2="39.14"/><polyline class="e24f3fac-1355-4812-b615-f29ef8ad7b5d" points="120.65 47.86 120.65 43.5 115.73 43.5 115.73 47.86"/><line class="a4d2a88b-3463-4024-8be5-a853d59e04b8" x1="104.35" y1="49.52" x2="142.2" y2="49.52"/><line class="ff71df78-24de-419d-9d59-f4cf010c1a98" x1="153.06" y1="46.72" x2="185.36" y2="46.72"/><line class="ff71df78-24de-419d-9d59-f4cf010c1a98" x1="150.48" y1="49.34" x2="187.95" y2="49.34"/><line class="ff71df78-24de-419d-9d59-f4cf010c1a98" x1="155.65" y1="44.1" x2="182.77" y2="44.1"/><line class="e5fee2dd-533b-4337-8ee0-3e73ca2c18ec" x1="155.65" y1="27.89" x2="155.65" y2="44.1"/><line class="e5fee2dd-533b-4337-8ee0-3e73ca2c18ec" x1="159.58" y1="27.89" x2="159.58" y2="44.1"/><line class="e5fee2dd-533b-4337-8ee0-3e73ca2c18ec" x1="167.25" y1="27.89" x2="167.25" y2="44.1"/><line class="e5fee2dd-533b-4337-8ee0-3e73ca2c18ec" x1="171.18" y1="27.89" x2="171.18" y2="44.1"/><line class="e5fee2dd-533b-4337-8ee0-3e73ca2c18ec" x1="178.84" y1="27.89" x2="178.84" y2="44.1"/><line class="e5fee2dd-533b-4337-8ee0-3e73ca2c18ec" x1="182.77" y1="27.89" x2="182.77" y2="44.1"/><path class="ff71df78-24de-419d-9d59-f4cf010c1a98" d="M165.4,40.36l17.21-9.86,16.92,9.86a.66.66,0,0,1-.33,1.24H165.73A.66.66,0,0,1,165.4,40.36Z" transform="translate(-13.4 -18.3)"/><line class="ff71df78-24de-419d-9d59-f4cf010c1a98" x1="154.08" y1="25.92" x2="161.15" y2="25.92"/><line class="ff71df78-24de-419d-9d59-f4cf010c1a98" x1="165.68" y1="25.92" x2="172.75" y2="25.92"/><line class="ff71df78-24de-419d-9d59-f4cf010c1a98" x1="177.27" y1="25.92" x2="184.35" y2="25.92"/><polyline class="a4d2a88b-3463-4024-8be5-a853d59e04b8" points="67.42 41.75 62 41.75 62 49.69"/><polyline class="a4d2a88b-3463-4024-8be5-a853d59e04b8" points="53.41 29.63 65.52 22.67 65.52 29.63 77.63 22.67 77.63 49.71"/><line class="a4d2a88b-3463-4024-8be5-a853d59e04b8" x1="45.06" y1="16.29" x2="43.7" y2="49.59"/><line class="a44d9eda-42aa-4f9b-9a1e-3ae5ef5949ef" x1="50.06" y1="16.29" x2="51.43" y2="49.59"/><line class="a4d2a88b-3463-4024-8be5-a853d59e04b8" x1="50.06" y1="16.29" x2="51.43" y2="49.59"/><line class="a44d9eda-42aa-4f9b-9a1e-3ae5ef5949ef" x1="41.55" y1="49.71" x2="79.78" y2="49.71"/><line class="a4d2a88b-3463-4024-8be5-a853d59e04b8" x1="41.55" y1="49.71" x2="79.78" y2="49.71"/><polyline class="a4d2a88b-3463-4024-8be5-a853d59e04b8" points="60.47 33.53 56.84 33.53 56.84 36.98"/><polyline class="a4d2a88b-3463-4024-8be5-a853d59e04b8" points="72.58 33.53 68.95 33.53 68.95 36.98"/><line class="a44d9eda-42aa-4f9b-9a1e-3ae5ef5949ef" x1="50.96" y1="14.9" x2="44.17" y2="14.9"/><line class="a4d2a88b-3463-4024-8be5-a853d59e04b8" x1="51.58" y1="14.9" x2="43.55" y2="14.9"/><polygon class="ff71df78-24de-419d-9d59-f4cf010c1a98" points="347.52 1 1 1 29.24 38.11 1 75.23 347.52 75.23 372.52 38.11 347.52 1"/><line class="a4d2a88b-3463-4024-8be5-a853d59e04b8" x1="93.01" y1="1" x2="93.01" y2="75.23"/><line class="a4d2a88b-3463-4024-8be5-a853d59e04b8" x1="198.04" y1="1" x2="198.04" y2="75.23"/><text class="af3f0c29-a57b-49b5-b608-e2724f1353f2" transform="translate(36.67 66.53)"><tspan class="f5077a60-3b48-4275-a904-cd56db101b20">L</tspan><tspan x="7.25" y="0">au</tspan><tspan class="bc25939a-8e55-4c5d-afa4-ef2a49b9cdf0" x="22.7" y="0">n</tspan><tspan class="ab3e05e6-9a78-464b-9873-a6f354aafca1" x="30.98" y="0">c</tspan><tspan x="37.9" y="0">h</tspan></text><text class="af3f0c29-a57b-49b5-b608-e2724f1353f2" transform="translate(113.6 66.53)"><tspan class="b01f85ab-5488-4e5f-bd9e-d4ba024ad121">E</tspan><tspan x="7.92" y="0">x</tspan><tspan class="b72e8907-753f-4a6a-b86a-b04e730338bd" x="14.8" y="0">p</tspan><tspan x="22.94" y="0">ansion</tspan></text><text class="af3f0c29-a57b-49b5-b608-e2724f1353f2" transform="translate(249.12 66.53)">Ubiqui<tspan class="b01f85ab-5488-4e5f-bd9e-d4ba024ad121" x="41.04" y="0">t</tspan><tspan x="46.01" y="0">y </tspan></text></svg>