<svg xmlns="http://www.w3.org/2000/svg" viewBox="0 0 1000 1000"><defs><style>.cls-1{fill:#003078;}</style></defs><g id="Layer_1" data-name="Layer 1"><path class="cls-1" d="M459.05,1000h0c-57.32-6.45-70.33-10.92-70.25-13.93.05-2.21,7-5.1,11.36-6,17.62-3.45,17.93-3.45,44.89-.13,12.19,1.51,12.6-2.32,26-1.72,8.09.35,6.58,1.18,17.35,1.84,8.79.55,14.82.3,15.9,3.1.71,1.85-1.45,3.17-1.27,5.57.23,3,4.07,6.3,15,9.44M514.86,62.68c-1.87-1-4.71-2.57-8.1-4.69-4-2.54-4-2.87-5.43-3.36-3.54-1.19-7.68-.84-13.51.91-6.72,2-9.75,3.85-6.73,4,8.92.59,38.53,33.27,37.25,41.12-.65,4,0,9.18,1.55,11.58s1,7.1-1,10.43c-3.18,5.15-6.4,4.65-21.44-3.34-9.73-5.16-20.84-9.39-24.69-9.38-9.37,0-13.71-7.78-6-10.77a17,17,0,0,0,8.51-8.59c1.77-4.66.31-5.55-5.88-3.56s-8.25.73-8.25-4.6c0-4-1.22-6-2.72-4.49s-4.75,1-7.24-1c-3.12-2.61-4.5.73-4.46,10.79,0,9.52,2.56,16,7.32,18.67,4,2.25,6.4,5.52,5.34,7.26s3.08,2.43,9.22,1.53c7.52-1.1,17.21,2.49,29.76,11,14.35,9.77,18.92,11.28,19.95,6.56.88-4,1.88-4.85,2.89-5.36.78-.4,2.15-.36,4.72,1.52,2.6,17.58,4.85,36.18,6.56,55.73,1.45,16.51,2.4,32.41,3,47.64-5.16,8.75-9.21,15-12.27,19.49-5.4,7.94-8.1,11.24-8.18,16.16s-1.18,4.85-7.26,0c-6.65-5.31-6.64-4.89.17,5.86,8.09,12.77,6.69,17-10.4,31.49-11.67,9.9-15.47,27-7.16,32.17,6.07,3.78,12.74,22.61,9.74,27.5-3.58,5.86-14.46-4.5-20.8-19.81-3.92-9.45-9-13.72-18.49-15.64-20.32-4.1-28.61-3.16-28.61,3.22,0,3.78-2.9,5.11-8.11,3.73-9.37-2.47-34.52,12-43.6,25.05-8,11.47-7.86,25.22.33,42.62,7.61,16.19,13.78,19.38,30.8,15.95,8.51-1.72,13.19-5.62,14.87-12.4,1.36-5.44,4.59-10,7.19-10.22a120.43,120.43,0,0,0,11.94-1.71c10.79-2.09,12.52,4.42,5.05,19-3.67,7.17-5.62,14.09-4.34,15.38s.2,5-2.41,8.13c-3.93,4.78-2.06,5.47,10.87,4,25.61-2.84,30.67.13,30.43,17.86-.41,29.94,9.24,42.4,25.86,33.43a15.81,15.81,0,0,1,7.94-2.22c1.48,0,5.34-.11,8,2.24,5.64,4.9,1.93,16.73.27,16.83-.77,0-.82-2.44-3.74-6.26-1.52-2-3.19-4.17-5.56-4.17a4.11,4.11,0,0,0-4.17,5.1c1.29,6.62-23.51,2-31.26-5.83-3-3-7.22-5.53-9.33-5.53s-3.84-2.49-3.84-5.53c0-8.94-17.46-22.53-33.09-25.76-8-1.64-18.55-6.76-23.54-11.37-6.08-5.63-16-8.77-30-9.54-21.55-1.17-43.71-11.81-39.37-18.9,1.35-2.19-3.12-4-10-4-15.5,0-20.28-7-10.21-14.94,4.21-3.32,5.63-5.55,3.15-4.94-3.76.92-19.65-15.36-31.5-32.27-1.61-2.29-8.58-10.74-15.49-18.77l-12.57-14.6,6.48,13.56c3.57,7.46,8.15,13.56,10.19,13.56s2.71,2.62,1.48,5.83-.23,7.08,2.2,8.59,4.42,5.75,4.42,9.41c0,5.8-1.07,5.69-8.27-.89-4.55-4.15-8.27-10.13-8.27-13.29s-2.85-6.85-6.33-8.19c-3.86-1.5-5.41-5.37-4-9.95,1.3-4.12.42-8.7-1.94-10.18s-4.31-6.05-4.31-10.17-4.48-12.37-10-18.33c-15.2-16.54-19.38-43.26-10.31-65.83,8.34-20.73,9.95-37.17,3.65-37.17-2.38,0-3.13-4.34-1.73-10s.47-11.23-2-12.76-4.47.11-4.47,3.71-1.94,6.51-4.3,6.51-3.93-4.23-3.49-9.39c1.52-17.81-.51-24-7.88-24-9.4,0-38.57,14.87-42.84,21.83-1.78,2.9-4.7,5.3-6.49,5.33s-11.85,6.05-22.37,13.39S126.06,217,124.72,215.67s3.54-6.5,10.82-11.45,13.89-12.69,14.66-17.2,8.24-14.29,16.58-21.74,11.64-12.32,7.35-10.81c-11.88,4.18-6.26-7.9,6.63-14.24,5.84-2.88,11.74-9.45,13.1-14.6,3.27-12.39,31.84-32.28,46.64-32.46,6.46-.08,22.92-2.54,36.56-5.47s31.68-4.85,40.05-4.28c12.52.86,15.14-.31,14.67-6.55s-1.94-6.73-7.81-3c-4,2.51-8.52,3.27-10.08,1.69-4-4,6.28-15.59,13.75-15.59,3.61,0,5.21-2.44,3.89-5.91-1.48-3.9,3-8.23,13-12.69,8.39-3.72,11.53-5.91,7-4.87C340.6,39,316.12,47.63,307.11,52.16a41,41,0,0,1-15.51,3.61c-4.58,0-8.33,1.66-8.33,3.68,0,3.62-29.48,15.56-49.63,20.09-9,2-8.4,1,4.13-7.71A386.64,386.64,0,0,1,290.7,40.6c12.79-6.17,45.93-20.75,93-31.45,7.76-1.76,15.73-3.57,26.41-5.22A302.06,302.06,0,0,1,502,3.87c2.63,9.61,5.15,19.76,7.46,30.43Q512.63,49,514.86,62.68ZM448.71,208.41c0-.83-4.25-4.32-9.45-7.76-8.48-5.6-10.34-5.53-18,.73-8.31,6.78-8,7,9.45,7.76,9.9.43,18,.11,18-.73Zm-9.95-21.47c-7.5-5.53-7.52-5.93-.39-8.69,4.11-1.59,14.46-1,23,1.28,13.17,3.55,15.16,3.23,13.14-2.07-1.54-4.05-.68-5.2,2.43-3.26,2.64,1.64,8.08,1.07,12.08-1.28,6.6-3.88,6.46-4.28-1.52-4.4-6.74-.09-8.79-2.73-8.79-11.27,0-6.13-3.49-13.72-7.76-16.86s-7.29-6.58-6.72-7.63c2.87-5.28.36-10.25-5.17-10.25-3.41,0-6.2-2-6.2-4.52s-2.33-3.67-5.17-2.65-8.47.16-12.51-1.93c-5.7-3-9.71-1-17.95,8.91-5.84,7-12.12,11.8-14,10.66s-4.38.71-5.68,4.11-1,5.76.6,5.25,8.16,4.38,14.52,10.86c7.23,7.37,14,10.82,18.16,9.22,8.53-3.3,22.81,1.24,19.73,6.28-1.31,2.13-5.17,3.87-8.58,3.87-3.64,0-5-2-3.25-4.82,1.84-3,1.13-3.68-1.89-1.79-2.67,1.66-3.78,4.76-2.47,6.9s.41,3.88-2,3.88a4.29,4.29,0,0,1-4.38-4.17c0-7.34-15.5-4.46-17.5,3.25-2.28,8.77,7.36,19.86,11.45,13.19,1.83-3,4.25-3,7.83,0,2.86,2.38,6.41,3.1,7.91,1.59s2.72-.24,2.72,2.82,1.39,4.15,3.1,2.44-.45-5.74-4.78-8.93Zm30.63-22.47c0-2.16,1.84-5.07,4.09-6.47s3,.21,1.63,3.92c-2.75,7.23-5.72,8.55-5.72,2.55Zm-51.94-10.54c-4.42-3.37-5.86-6.18-3.2-6.26,7.86-.21,17.92,4.65,17.92,8.66C432.17,161.8,426.56,160.88,417.45,153.93Zm76.76,31.15c0-2.29-2.9-4.17-6.45-4.17s-5.3,1.88-3.89,4.17,4.31,4.17,6.45,4.17A4,4,0,0,0,494.21,185.08Zm14.47,0c-1.4-2.29-3.37-4.17-4.38-4.17s-1.82,1.88-1.82,4.17a4.29,4.29,0,0,0,4.38,4.17C509.27,189.25,510.09,187.38,508.68,185.08Zm-134.42-21c-5.24-3.54-4.45-5.75,5.17-14.34,6.26-5.58,11.38-12.48,11.38-15.32s-2.64-1.53-5.87,2.92-7.26,6.69-9,5-.92-3.12,1.73-3.12,4.83-2.82,4.83-6.26c0-8.09-7.83-8.11-10.91,0-1.3,3.42-4.07,5.17-6.14,3.88a4.55,4.55,0,0,1-1.39-6.23c1.31-2.14.52-3.89-1.76-3.89s-5.3,1.91-6.73,4.24a5,5,0,0,1-6.89,1.57c-2.77-1.73-2.3-4,1.32-6.26,4.57-2.92,4.46-3.57-.59-3.51-7.86.11-28.78,12-21.47,12.16,3,.08,4.37,1.85,3.09,3.93s1.88,2.9,7,1.82l9.31-1.95-9.53,5.74-9.54,5.74,11.49,5.28c8.29,3.81,11.92,4,13,.6s3.22-3.28,7.55.34c4.83,4.05,4.95,5.69.63,8.46-3.5,2.23-1,3.43,7,3.43,9.66,0,11-.93,6.2-4.18Zm-15.67-14.9c-5.91-6.45-1.92-7.68,6.81-2.11,3.09,2,4,4.57,2.07,5.76s-6-.45-8.88-3.65Zm162.36-1c-2.33-2.48-10.2,3.79-10.2,8.12,0,2.25,2.61,1.67,5.79-1.29s5.17-6,4.41-6.83Zm-117.73,6.07c0-.9-2.89-2.75-6.42-4.12-3.68-1.42-5.34-.73-3.89,1.64,2.42,4,10.31,5.86,10.31,2.48Zm-62.93-42.32c3.57-3.14,1.53-4.26-7.41-4-6.79.17-15.62,3.93-19.61,8.37-7.1,7.91-7.07,7.92,1.65.64,9.25-7.73,16.79-3.44,11.72,6.67-1.44,2.86-.07,2.39,3-1s7.89-8.21,10.61-10.59Zm34,6.18c0-2.43-1.87-3.26-4.14-1.84s-4.14,3.4-4.14,4.41,1.86,1.84,4.14,1.84a4.3,4.3,0,0,0,4.14-4.41Zm-21.8-31.85c-4-1.06-9.61-1-12.41.16s.5,2,7.32,1.92S356.5,87.31,352.47,86.25Zm32.24-4.64c-1.27-1.29-4.61,0-7.41,2.84-4.06,4.12-3.58,4.6,2.31,2.34,4.08-1.57,6.38-3.9,5.1-5.18Zm47.46-5.23a3.71,3.71,0,0,0-3.45-3.92c-1.89,0-3.44,2.73-3.44,6.07s1.55,5.11,3.44,3.93a8,8,0,0,0,3.45-6.08ZM415.58,68.2c-2.46-4.64-3.1-10.74-1.42-13.56,1.92-3.22.42-3-4.05.69-6.65,5.44-6.66,6.3-.15,13.55,9.05,10.1,11.2,9.84,5.62-.68ZM394.6,71c-1-.83-7.31-2.76-14.13-4.3-9.06-2-10.74-1.66-6.2,1.43,5.58,3.82,24.48,6.48,20.33,2.87Zm-36.88-11.4c5.52-3.93,5.52-4.22,0-2.58-3.41,1-9.93-.1-14.48-2.46-7.39-3.83-7.67-3.55-2.59,2.65,6.61,8.09,8.68,8.38,17.07,2.39Zm20.68-5.74c0-3.88-2.41-5.2-6.55-3.59-5.27,2-5.48,3.22-1,6.06,7.34,4.69,7.58,4.62,7.58-2.47ZM487.59,51.6c16.25,0-.38-9.15-18.31-10.07-10.81-.56-19.44-3.59-22.59-7.93-7.37-10.16-10.38-8.68-10.38,5.1,0,9.94,1.44,11.74,8,10,4.41-1.17,12.24.87,17.41,4.52,6.2,4.38,10.79,5.23,13.49,2.5,2.26-2.27,7.82-4.13,12.37-4.13ZM395,51.6a4.3,4.3,0,0,0-4.38-4.17c-2.41,0-3.23,1.88-1.83,4.17s3.38,4.17,4.38,4.17S395,53.89,395,51.6ZM173.67,823.45c-11.37-13.37-21.42-23.59-22.34-22.72s-6.09-4.43-11.48-11.81c-10-13.71-24-23.61-33.63-23.87-3-.08-4.31,1.65-3,3.86,1.47,2.39-2.55,2.24-10-.37-9.69-3.4-15.28-10.47-25.44-32.16-20.95-44.69-21.2-45.79-11.6-51,4.82-2.6,7.49-7.12,6.2-10.5S62,669,64.2,669s4-2.93,4-6.52c0-4.36,3.07-6.08,9.3-5.21,6.46.9,9.32-.84,9.36-5.7,0-3.85,1.43-8.39,3.1-10.08s3-1,3,1.46,5.59,5.77,12.41,7.28,12.41,5.12,12.41,8,5.12,7.84,11.37,11,12.4,6.31,13.66,7,1.51-5.35.58-13.42c-2.08-18,5.72-19.74,9.54-2.16,1.5,6.88,4.3,12.51,6.22,12.51s5.76,7,8.55,15.65,9,19.69,13.76,24.63c12.46,12.89,19,21.49,19,24.92,0,1.64,2.93,6.24,6.52,10.24,8.7,9.7,10.76,41,3.39,51.58-3.17,4.58-5.78,11.62-5.78,15.66,0,4.38-4.24,8.41-10.54,10-10.42,2.64-10.45,2.74-2.07,8.66s11.56,14.14,5.38,13.58c-1.71-.16-12.41-11.23-23.78-24.6Zm32.45-65c-1.35-3.54-3.33-5.55-4.42-4.45s-.74,4,.76,6.43c4.07,6.66,6.46,5.37,3.66-2Zm38.1,81.9c-2.46-4,29.26-21.19,39.33-21.3,5-.06,4.93-.72-.27-4.11-4.89-3.19-5-4.06-.52-4.11,4.11,0,5-3.54,3.21-12.58-1.4-7-.73-12.51,1.55-12.51a4.11,4.11,0,0,1,4,4.17c0,2.3,3.89,8.1,8.65,12.9l8.65,8.72-9.68,6.89c-5.33,3.79-10.62,6.9-11.76,6.92s-7.93,4.26-15.11,9.42c-13.72,9.86-24.19,11.94-28.08,5.59ZM284.1,739c-2.73-2.75-5-6.51-5-8.34,0-6.15,6.23-3.42,11.45,5C296.25,744.84,292,747,284.1,739Zm86-22.44c0-3.64,2.21-5.87,4.91-5,7.67,2.58,8.94,11.56,1.64,11.56a6.59,6.59,0,0,1-6.55-6.61Zm14.51-5.85c-1.42-2.33.31-4.24,3.85-4.24,7.27,0,8.34,2.51,2.6,6.08a4.73,4.73,0,0,1-6.45-1.84Zm-86.55-11.09c-3.46-9.1,1.13-13.33,6-5.54s5,12.39.28,12.39c-2,0-4.87-3.08-6.3-6.85Zm-35.5-43.07c0-2.22-2.79-3-6.2-1.64-7.54,2.92-8.23-4.13-1-10.18,3.87-3.24,6.44-1.75,10,5.74,2.6,5.57,3,10.12,1,10.12a3.92,3.92,0,0,1-3.75-4Zm-80.74-5.37a49.09,49.09,0,0,1-13.59-12.17c-5.75-8.11-17.34-10.42-17.34-3.45,0,2.3-3.73,4.17-8.28,4.17s-8.27-1.87-8.27-4.17-3.72-4.17-8.27-4.17-8.27-1.88-8.27-4.17a4.17,4.17,0,0,1,4.17-4.17c8.17,0-5.7-15.88-19.78-22.65-9.41-4.53-13.36-8.85-11.8-12.93,1.38-3.65-.08-6.14-3.61-6.14s-5,2.49-3.57,6.26c1.74,4.55-.49,6.26-8.15,6.26-5.8,0-11.69-1.88-13.1-4.17s1.28-4.18,6-4.18,8.75-1.87,9-4.17.75-5.89,1-8c.84-6.2,6.72-10.55,6.72-5,0,2.81,1.65,4.08,3.67,2.83s6,.51,8.78,3.92,3.58,6.21,1.7,6.21-1.24,2.18,1.39,4.83c3.63,3.66,6.26,3.6,10.84-.24,4.86-4.06,10-3,26.29,5.28,11.12,5.69,22.67,13.3,25.65,16.92s10.54,6.58,16.81,6.58c11.51,0,22.9-8.88,17.88-13.94-1.49-1.51-.66-2.74,1.86-2.74,8.83,0,9.56,8.31,1.51,17-5.45,5.89-10.85,7.92-16.41,6.14-14.47-4.63-15.34,6.57-1.49,19,13.53,12.2,12.71,18.77-1.37,10.94ZM231.1,639c-1.93-3.13-.73-4,3.42-2.35,3.51,1.36,8.26.58,10.55-1.74,2.81-2.83,5.09-2.72,7,.33,1.52,2.49,2.2,4.67,1.5,4.84-13.13,3.19-20,2.85-22.43-1.07ZM44.9,626.62c-2-3.2-8.64-9.06-14.82-13-15.81-10.14-21.73-22.24-12.6-25.77,3.87-1.5,5.69-1.37,4.05.28-4.19,4.23,9.61,18.67,14.77,15.46,2.38-1.48,3-.58,1.34,2.06-1.74,2.84,1.28,5.75,7.64,7.36,11.33,2.87,12.33,4.9,6.79,13.72-3,4.83-4.15,4.81-7.17-.1Zm13.4-1.13c1.25-3.26,5.12-7,8.61-8.39,4.54-1.76,5.63-.57,3.81,4.19-1.39,3.66-2.53,7.44-2.53,8.39s-2.73,1.75-6.07,1.75c-3.55,0-5.14-2.46-3.82-5.94Zm158.79-2.4c-5.58-10.52-.91-10.52,12.41,0,10.23,8.07,10.24,8.15,1.18,8.25-5,0-11.15-3.66-13.59-8.25ZM84.74,621.25c0-1,1.86-3,4.13-4.42s4.14-.59,4.14,1.84a4.3,4.3,0,0,1-4.14,4.42c-2.27,0-4.13-.83-4.13-1.84Zm14.82-6c-1.78-2.9-2.12-6.41-.76-7.79,3.7-3.73,7.74,1.76,5.74,7.81-1.4,4.24-2.38,4.24-5,0Zm-57.5-15.79c-1.55-1.56-3-11.44-3.31-22-.41-16.1-.9-17.18-3.1-6.84-1.44,6.75-4,11.91-5.71,11.47a32.87,32.87,0,0,0-6.78-.81c-8.4,0-8.87-28.49-.79-48.56,7.94-19.74,9-19.42,10.69,3.1,1.17,16,6,21.45,17,19.32,6.48-1.25,9.85,0,9.85,3.78,0,3.12-4.19,5.8-9.3,5.94l-9.31.27L50.62,569c5.11,2.07,9.27,6.18,9.24,9.12,0,4.12-.88,4-3.62-.31-2-3.11-4.6-4-5.87-1.89s-.6,6.5,1.49,9.83a25.61,25.61,0,0,1,3.54,12.32c-.21,4.9-.75,5-2.51.57-1.58-4-3.09-4.29-5.12-1-1.59,2.59-4.16,3.43-5.71,1.86Zm411.48-14c2.09-6.29,8.74-6.94,10.69-1,.95,2.87-1.38,5.22-5.17,5.22s-6.27-1.88-5.52-4.18Zm-347.78-5.9c-.18-4.4.79-6.87,2.17-5.48s1.52,5,.32,8c-1.32,3.32-2.3,2.33-2.49-2.52ZM3.82,555.3C-.92,516.21-1,514.43,2.18,512.45c1.62-1,4.22,9.87,5.78,24.16s3.87,30.22,5.11,35.38.38,9.38-1.91,9.38-5.6-11.73-7.34-26.07Zm64.08,25c-3.11-10.55-3.05-21.9.16-27.44,3.08-5.33,4.06-2.79,4.16,10.75.07,9.76-.81,17.73-2,17.73s-2.2-.47-2.37-1Zm186.43-34.5c0-3.49-4.65-8.49-10.34-11.1-9-4.14-14.33-11.76-8.22-11.76,3.82,0,20.55,10.33,23.67,14.6,4.4,6.06,3.84,14.6-1,14.6-2.28,0-4.14-2.85-4.14-6.34Zm-206.8-27c-3-5.65-3.05-8.34-.15-8.34,2.36,0,4.28-2.92,4.28-6.5s1.86-5.34,4.14-3.93c5.3,3.31,5.43,27.12.15,27.12-2.2,0-6-3.76-8.42-8.35ZM26.91,505.49c0-3,1.87-8.27,4.07-11.71,3.26-5.09,4-4.55,4.08,2.88,0,5-1.8,10.3-4.08,11.72s-4.1.12-4.07-2.89ZM1.5,492.73c-1.64-41.62,13-137,21.47-140.08,2.14-.77,3.88-5.61,3.88-10.76,0-11.3,19.24-60.72,26.66-68.48,4.39-4.58,5.74-4.37,7.88,1.26,1.65,4.33.94,5.78-1.94,4s-3.63.06-1.85,5.71,0,11.07-5.49,16.22c-8.7,8.18-17,26.63-17,37.84,0,5.67,1,5.45,6.07-1.31,3.34-4.46,6.14-13.26,6.21-19.57s2-11.47,4.26-11.47c7.48,0,4.32,28.59-5.17,46.8-8,15.29-9.49,16.5-10.62,8.47C35.14,356.17,33,352,31.18,352c-8.07,0-12,51.51-4.33,56.31,6.88,4.29,5,20-2,17.29-9.11-3.53-13.35,8.55-13.7,39-.48,41.19-.54,41.71-5,41.71-2.28,0-4.38-6.1-4.67-13.56Zm38.7-.66Q42.11,482,37.11,484c-6.56,2.53-12.25-31.56-6.28-37.58,3-3,4.29-.59,4.29,7.75,0,7.38,4.26,16.56,11,23.63,9.16,9.64,10.1,12.6,5.7,17.95-7.88,9.58-13.75,7.74-11.59-3.64ZM521,400.15c-15.23-5.16-21.16-5.25-23.41-3.94-.18.1-2.16,1.27-2.6.84s0-1.25.87-2.74c1.88-3.06-.24-4.82-5.81-4.82-4.82,0-7.85,1.48-6.75,3.28s-1.58,3.28-6,3.28c-11,0-10-5.81,2-11.31a28.5,28.5,0,0,1,5.46-1.76c6.78-1.31,20.95,2,37.92,9.53M72.36,246.07c0-3.44,1.86-7.41,4.13-8.83s4.14.24,4.14,3.68-1.86,7.42-4.14,8.83S72.36,249.52,72.36,246.07Zm16.54-.24c0-1,1.86-3,4.14-4.42s4.13-.59,4.13,1.84A4.3,4.3,0,0,1,93,247.67c-2.28,0-4.14-.83-4.14-1.84Zm24.82-22.94a4.3,4.3,0,0,1,4.13-4.42c2.28,0,4.14.83,4.14,1.84s-1.86,3-4.14,4.41-4.13.59-4.13-1.83Zm6.11-37.95c-1.4-2.28-4.75-2.82-7.43-1.2s-2.44-.08.79-4.1c5.9-7.34,19.21-9.52,22.76-3.72,1.13,1.83-1.47,5.55-5.76,8.26-5,3.17-8.72,3.45-10.36.76Z" transform="translate(0 0)"/></g><g id="Layer_2" data-name="Layer 2"><path class="cls-1" d="M761.77,547.19c102.86-8.48,138.92-17,138.92-17,15.41-3.63,52.84-13.23,72.88,7.82,6,6.34,8.62,13.48,13.1,12.77,10.68-1.7,15.78-45.32,12.19-68.71-2-12.68-7.21-33.16-8.36-37.6-.09-.37-.17-.67-.22-.86a1225.13,1225.13,0,0,1-127,39.24c-26.41,6.61-77.83,19.49-133.49,25.49a686.63,686.63,0,0,1-144.68-.09c12.45.06,25.43-.2,38.3-.87,33.3-1.72,82.62-4.29,142.43-24.4,97.84-32.92,130.83-49.82,130.83-49.82,14.09-7.22,48.15-25.52,72.63-9.89,7.37,4.7,11.58,11,15.77,9.25,10-4.21,4.5-47.79-4.57-69.63-4.92-11.84-14.92-30.47-17.09-34.5l-.43-.79A1227.22,1227.22,0,0,1,849,396.19C825,409,778.11,433.79,725.5,453A687.43,687.43,0,0,1,585,487.59c12.1-2.93,24.64-6.29,37-10,31.93-9.67,79.19-24,132.46-57.87,87.15-55.43,115.14-79.75,115.14-79.75,12-10.39,40.66-36.33,68.16-27,8.28,2.8,13.88,7.92,17.52,5.2,8.67-6.48-7-47.48-21.06-66.51-7.61-10.32-21.76-26-24.83-29.4l-.6-.66a1230.15,1230.15,0,0,1-94.27,93.91c-20.32,18.16-59.88,53.52-106.38,84.76A687.77,687.77,0,0,1,580,467.53c11.06-5.74,22.43-12,33.52-18.61,28.69-17.05,71.16-42.29,114.8-88C799.66,286.23,821,255.9,821,255.9c9.13-13,30.8-45,59.73-42.59,8.7.73,15.36,4.36,18.25.84,6.87-8.37-18.17-44.41-36.33-59.52-9.85-8.2-27.33-20-31.13-22.59l-.74-.5a1232,1232,0,0,1-69.11,113.8c-15.39,22.5-45.36,66.32-83.05,107.82a689.61,689.61,0,0,1-108.36,96.11c9.36-8.24,18.9-17.06,28.1-26.11,23.78-23.44,59-58.14,90.46-113,51.47-89.68,65-124.26,65-124.26,5.77-14.77,19.15-51.11,47.82-55.68,8.62-1.38,16,.55,17.92-3.56,4.67-9.78-28.24-38.76-49.48-49.08-11.52-5.6-31.32-12.9-35.62-14.47l-.84-.3A1232.26,1232.26,0,0,1,693.7,189.93c-9.57,25.54-28.21,75.28-54.9,124.61a690.55,690.55,0,0,1-82.26,119.31c7.12-10.24,14.28-21.09,21-32.09,17.5-28.46,43.41-70.6,60.87-131.37C667,171,671.88,134.16,671.88,134.16c2.07-15.73,6.4-54.22,33.14-65.54,8-3.4,15.62-3.29,16.55-7.75,2.2-10.62-36.68-30.86-59.77-35.79-12.51-2.67-33.48-5-38-5.5l-.89-.09a1233.07,1233.07,0,0,1-8.43,133c-3.2,27.1-9.42,79.87-23.56,134.16A691,691,0,0,1,539.5,422.18c4.47-11.65,8.83-23.9,12.78-36.21,10.19-31.83,25.29-79,27.73-142.15l-.07-140.29c-1.73-15.77-6.73-54.18,16.53-71.58,7-5.24,14.39-6.95,14.23-11.5C610.3,9.61,567.72-.72,544.12,0c-12.79.41-33.71,3.17-38.24,3.78l-.88.12a1236,1236,0,0,1,23.55,131.12c3.37,27.08,9.92,79.8,9.16,135.91-1.81,133.38-44.09,223.51-37.5,227.2l0,0,0,0,0,0v0a.09.09,0,0,1,0,.05.08.08,0,0,1,0,0s0,0,0,0l0,0,0,0h-.1a1.41,1.41,0,0,0-.22-.06c-6.15-.39-19.43,61.17-23.6,121.48-2.3,33.35-5.7,82.73,7,144.68,20.8,101.34,33.56,136.2,33.56,136.2,5.45,14.89,19.47,51,1,73.47-5.55,6.76-12.31,10.19-11.06,14.57,3,10.43,46.78,10.24,69.5,3.85,12.33-3.47,32-11.17,36.23-12.85l.83-.33a1234.07,1234.07,0,0,1-54.17-121.65c-9.73-25.49-28.68-75.11-41.33-129.77a690.9,690.9,0,0,1-17.35-144c1.44,12.4,3.26,25.29,5.47,38,5.73,32.93,14.21,81.7,41.34,138.79,44.39,93.4,65.1,124.19,65.1,124.19C621.26,898.27,643.49,930,631,956.2c-3.77,7.9-9.52,12.86-7.26,16.81,5.37,9.41,47.87-1.28,68.41-12.94,11.13-6.32,28.37-18.51,32.1-21.17l.73-.51A1232.47,1232.47,0,0,1,643.3,833.26c-15.53-22.41-45.78-66-71.11-116.08A691.15,691.15,0,0,1,521,581.54c4.36,11.69,9.2,23.76,14.39,35.59C548.78,647.73,568.65,693,608.63,742c65.39,80,92.86,105,92.86,105,11.73,10.64,40.87,36.08,35,64.56-1.78,8.58-6.18,14.77-3,18.07,7.46,7.84,46.17-12.74,63.33-29,9.3-8.81,23.13-24.79,26.12-28.26l.58-.67A1229.69,1229.69,0,0,1,719.1,789.17c-20.43-18-60.22-53.14-96.76-95.64A690.06,690.06,0,0,1,540.22,574.1c7,10.31,14.61,20.88,22.47,31.12,20.34,26.49,50.46,65.72,100.95,103.63,82.6,62,115.22,79.64,115.22,79.64,13.93,7.53,48.3,25.23,49.38,54.3.32,8.75-2.47,15.82,1.36,18.27,9.12,5.82,41.79-23.44,54.57-43.33,6.93-10.79,16.54-29.61,18.62-33.7l.4-.8a1224.71,1224.71,0,0,1-121-55.05C758,715.58,711,691,665.38,658.53a688.78,688.78,0,0,1-108.23-96.25c9.28,8.33,19.16,16.76,29.24,24.81,26.07,20.85,64.68,51.71,122.75,76.41,95,40.41,130.89,49.68,130.89,49.68,15.32,4,52.92,12.91,60.9,40.88,2.41,8.42,1.38,16,5.69,17.41,10.24,3.47,35-32.78,42.64-55.16,4.15-12.14,9-32.72,10-37.19.09-.37.16-.68.2-.87a1223.88,1223.88,0,0,1-130.65-24.42c-26.45-6.45-78-19-130-39.61a688.09,688.09,0,0,1-128.07-67.49c11,5.86,22.61,11.68,34.32,17.08,30.29,14,75.14,34.69,137.43,44.74C844.4,625,881.44,625.39,881.44,625.39c15.83.17,54.46-.17,68.9,25.08,4.34,7.59,5.14,15.15,9.67,15.54,10.77.91,26.14-40.22,28.23-63.79,1.14-12.78.92-33.93.86-38.51,0-.39,0-.7,0-.9a1225.55,1225.55,0,0,1-132.68,7.64c-27.22.08-80.22.25-135.7-7.27a687.42,687.42,0,0,1-140.46-34.81c12.08,3,24.74,5.91,37.4,8.35C650.4,543,698.89,552.38,761.77,547.19Z" transform="translate(0 0)"/></g></svg>