<svg id="Layer_1" data-name="Layer 1" xmlns="http://www.w3.org/2000/svg" viewBox="0 0 373.52 76.23"><defs><style>.cls-1,.cls-2,.cls-4,.cls-5,.cls-6,.cls-7,.cls-8,.cls-9{fill:none;}.cls-1,.cls-2{stroke:#020302;}.cls-1,.cls-3,.cls-4,.cls-5,.cls-6,.cls-7,.cls-8{stroke-linecap:round;}.cls-1,.cls-2,.cls-3,.cls-4,.cls-5,.cls-6,.cls-7,.cls-8,.cls-9{stroke-linejoin:round;}.cls-1,.cls-2,.cls-4,.cls-7,.cls-8,.cls-9{stroke-width:2px;}.cls-3{fill:#fff;}.cls-3,.cls-5,.cls-6,.cls-7{stroke:#fff;}.cls-3,.cls-5{stroke-width:6px;}.cls-4{stroke:#222221;}.cls-6{stroke-width:4px;}.cls-8,.cls-9{stroke:#313130;}.cls-10{fill:#272525;}</style></defs><polyline class="cls-1" points="254.8 25.83 265.94 14.69 274.24 22.99"/><polyline class="cls-2" points="257.63 49.4 257.63 27.07 265.94 18.83 274.24 27.07 274.24 49.4"/><polyline class="cls-2" points="270.88 32.73 270.88 28.92 267.08 28.92"/><polyline class="cls-2" points="264.21 32.73 264.21 28.92 260.4 28.92"/><polyline class="cls-2" points="270.88 39.4 270.88 35.59 267.08 35.59"/><polyline class="cls-2" points="264.21 39.4 264.21 35.59 260.4 35.59"/><polyline class="cls-2" points="270.88 46.06 270.88 42.26 267.08 42.26"/><polyline class="cls-2" points="264.21 49.4 264.21 42.26 260.4 42.26"/><polyline class="cls-1" points="293.69 25.83 282.55 14.69 274.24 22.99"/><polyline class="cls-2" points="274.24 49.4 274.24 27.07 282.55 18.83 290.86 27.07 290.86 49.4"/><polyline class="cls-2" points="287.5 32.73 287.5 28.92 283.69 28.92"/><polyline class="cls-2" points="280.82 32.73 280.82 28.92 277.02 28.92"/><polyline class="cls-2" points="287.5 39.4 287.5 35.59 283.69 35.59"/><polyline class="cls-2" points="280.82 39.4 280.82 35.59 277.02 35.59"/><polyline class="cls-2" points="287.5 46.06 287.5 42.26 283.69 42.26"/><polyline class="cls-2" points="280.82 49.4 280.82 42.26 277.02 42.26"/><line class="cls-1" x1="293.64" y1="49.4" x2="254.85" y2="49.4"/><rect class="cls-1" x="232.6" y="28.23" width="11.18" height="21.17"/><line class="cls-1" x1="232.6" y1="32.86" x2="239.8" y2="32.86"/><line class="cls-1" x1="232.6" y1="37.01" x2="239.8" y2="37.01"/><line class="cls-1" x1="232.6" y1="41.17" x2="239.8" y2="41.17"/><line class="cls-1" x1="232.6" y1="45.32" x2="239.8" y2="45.32"/><path class="cls-3" d="M228.83,62.43Q227.42,48.75,226,35.08a111.76,111.76,0,0,1,23.13,0q-1.42,13.67-2.84,27.35" transform="translate(-13.4 -13.12)"/><path class="cls-1" d="M228.83,62.43Q227.42,48.75,226,35.08a111.76,111.76,0,0,1,23.13,0q-1.42,13.67-2.84,27.35" transform="translate(-13.4 -13.12)"/><path class="cls-1" d="M231.78,39.17a106.32,106.32,0,0,1,11.57,0" transform="translate(-13.4 -13.12)"/><path class="cls-1" d="M232,43.19a103.12,103.12,0,0,1,11.12,0" transform="translate(-13.4 -13.12)"/><path class="cls-1" d="M232.23,47.2a99.75,99.75,0,0,1,10.66,0" transform="translate(-13.4 -13.12)"/><path class="cls-1" d="M232.46,51.22a96.4,96.4,0,0,1,10.2,0" transform="translate(-13.4 -13.12)"/><path class="cls-1" d="M232.69,55.23a93.07,93.07,0,0,1,9.74,0" transform="translate(-13.4 -13.12)"/><line class="cls-1" x1="209.89" y1="49.4" x2="247.66" y2="49.4"/><polyline class="cls-1" points="221.97 49.4 221.97 45.44 226.36 45.44 226.36 49.4"/><circle class="cls-3" cx="224.16" cy="18.51" r="4.77"/><circle class="cls-1" cx="224.16" cy="18.51" r="4.77"/><line class="cls-1" x1="222.11" y1="18.51" x2="226.22" y2="18.51"/><line class="cls-1" x1="224.16" y1="20.56" x2="224.16" y2="16.46"/><line class="cls-4" x1="325.39" y1="18.84" x2="314.02" y2="27.61"/><line class="cls-4" x1="326.69" y1="28.33" x2="312.59" y2="38.06"/><line class="cls-4" x1="327.98" y1="37.81" x2="311.17" y2="48.5"/><line class="cls-4" x1="315.28" y1="18.87" x2="326.64" y2="27.6"/><line class="cls-4" x1="313.98" y1="28.34" x2="328.07" y2="38.05"/><line class="cls-4" x1="312.68" y1="37.81" x2="329.51" y2="48.51"/><line class="cls-4" x1="324.36" y1="10.82" x2="329.62" y2="49.4"/><line class="cls-4" x1="316.31" y1="10.82" x2="311.05" y2="49.4"/><line class="cls-5" x1="324.36" y1="10.82" x2="329.62" y2="49.4"/><line class="cls-5" x1="316.31" y1="10.82" x2="311.05" y2="49.4"/><line class="cls-4" x1="324.36" y1="10.82" x2="329.62" y2="49.4"/><line class="cls-4" x1="316.31" y1="10.82" x2="311.05" y2="49.4"/><line class="cls-4" x1="305.14" y1="17.39" x2="307.46" y2="17.39"/><line class="cls-4" x1="305.15" y1="20.38" x2="307.46" y2="20.38"/><line class="cls-4" x1="305.16" y1="23.38" x2="307.47" y2="23.38"/><line class="cls-4" x1="332.97" y1="17.39" x2="335.28" y2="17.39"/><line class="cls-4" x1="332.98" y1="20.38" x2="335.29" y2="20.38"/><line class="cls-4" x1="332.99" y1="23.38" x2="335.3" y2="23.38"/><polygon class="cls-6" points="305.14 17.39 313.83 10.82 326.83 10.82 335.32 17.39 305.14 17.39"/><polygon class="cls-4" points="305.14 17.39 313.83 10.82 326.83 10.82 335.32 17.39 305.14 17.39"/><line class="cls-5" x1="300.94" y1="49.4" x2="339.52" y2="49.4"/><line class="cls-4" x1="300.94" y1="49.4" x2="339.52" y2="49.4"/><polyline class="cls-2" points="128.37 47.86 128.37 26.07 138.54 26.07 138.54 47.86"/><line class="cls-1" x1="128.37" y1="30.43" x2="133.94" y2="30.43"/><line class="cls-1" x1="128.37" y1="34.79" x2="133.94" y2="34.79"/><line class="cls-1" x1="128.37" y1="39.14" x2="133.94" y2="39.14"/><line class="cls-1" x1="128.37" y1="43.5" x2="133.94" y2="43.5"/><line class="cls-7" x1="128.37" y1="17.36" x2="128.37" y2="47.86"/><polyline class="cls-2" points="108.01 47.86 108.01 17.36 128.37 17.36 128.37 47.86"/><polyline class="cls-2" points="122.78 15.69 122.78 12.17 113.6 12.17 113.6 15.69"/><line class="cls-1" x1="112.94" y1="21.71" x2="123.44" y2="21.71"/><line class="cls-1" x1="112.94" y1="26.07" x2="123.44" y2="26.07"/><line class="cls-1" x1="112.94" y1="30.43" x2="123.44" y2="30.43"/><line class="cls-1" x1="112.94" y1="34.79" x2="123.44" y2="34.79"/><line class="cls-1" x1="112.94" y1="39.14" x2="123.44" y2="39.14"/><polyline class="cls-2" points="120.65 47.86 120.65 43.5 115.73 43.5 115.73 47.86"/><line class="cls-1" x1="104.35" y1="49.52" x2="142.2" y2="49.52"/><line class="cls-8" x1="153.06" y1="46.72" x2="185.36" y2="46.72"/><line class="cls-8" x1="150.48" y1="49.34" x2="187.95" y2="49.34"/><line class="cls-8" x1="155.65" y1="44.1" x2="182.77" y2="44.1"/><line class="cls-9" x1="155.65" y1="27.89" x2="155.65" y2="44.1"/><line class="cls-9" x1="159.58" y1="27.89" x2="159.58" y2="44.1"/><line class="cls-9" x1="167.25" y1="27.89" x2="167.25" y2="44.1"/><line class="cls-9" x1="171.18" y1="27.89" x2="171.18" y2="44.1"/><line class="cls-9" x1="178.84" y1="27.89" x2="178.84" y2="44.1"/><line class="cls-9" x1="182.77" y1="27.89" x2="182.77" y2="44.1"/><path class="cls-8" d="M165.4,35.18l17.21-9.86,16.92,9.86a.67.67,0,0,1-.33,1.25H165.73A.67.67,0,0,1,165.4,35.18Z" transform="translate(-13.4 -13.12)"/><line class="cls-8" x1="154.08" y1="25.92" x2="161.15" y2="25.92"/><line class="cls-8" x1="165.68" y1="25.92" x2="172.75" y2="25.92"/><line class="cls-8" x1="177.27" y1="25.92" x2="184.35" y2="25.92"/><polyline class="cls-1" points="67.42 41.75 62 41.75 62 49.69"/><polyline class="cls-1" points="53.41 29.63 65.52 22.67 65.52 29.63 77.63 22.67 77.63 49.71"/><line class="cls-1" x1="45.06" y1="16.29" x2="43.7" y2="49.59"/><line class="cls-7" x1="50.06" y1="16.29" x2="51.43" y2="49.59"/><line class="cls-1" x1="50.06" y1="16.29" x2="51.43" y2="49.59"/><line class="cls-7" x1="41.55" y1="49.71" x2="79.78" y2="49.71"/><line class="cls-1" x1="41.55" y1="49.71" x2="79.78" y2="49.71"/><polyline class="cls-1" points="60.47 33.53 56.84 33.53 56.84 36.98"/><polyline class="cls-1" points="72.58 33.53 68.95 33.53 68.95 36.98"/><line class="cls-7" x1="50.96" y1="14.9" x2="44.17" y2="14.9"/><line class="cls-1" x1="51.58" y1="14.9" x2="43.55" y2="14.9"/><polygon class="cls-8" points="347.52 1 1 1 29.24 38.11 1 75.23 347.52 75.23 372.52 38.11 347.52 1"/><line class="cls-1" x1="93.01" y1="1" x2="93.01" y2="75.23"/><line class="cls-1" x1="198.04" y1="1" x2="198.04" y2="75.23"/><path class="cls-10" d="M52.56,79.48V70.75h1.31v7.59h4v1.14Z" transform="translate(-13.4 -13.12)"/><path class="cls-10" d="M61.13,79.62A2.55,2.55,0,0,1,60,79.39a1.88,1.88,0,0,1-.8-.67,2,2,0,0,1-.29-1.09,1.78,1.78,0,0,1,.21-.91,1.59,1.59,0,0,1,.58-.57,3.26,3.26,0,0,1,.81-.32,9.1,9.1,0,0,1,.91-.16l1-.11a1.35,1.35,0,0,0,.54-.15.36.36,0,0,0,.16-.33v0a1.13,1.13,0,0,0-.31-.86,1.26,1.26,0,0,0-.93-.31,1.6,1.6,0,0,0-1,.28,1.49,1.49,0,0,0-.51.63l-1.2-.27a2.35,2.35,0,0,1,.62-1,2.62,2.62,0,0,1,.95-.53,3.56,3.56,0,0,1,1.13-.17,4.12,4.12,0,0,1,.83.09,2.49,2.49,0,0,1,.83.33,1.86,1.86,0,0,1,.63.7,2.32,2.32,0,0,1,.25,1.16v4.35H63.12v-.9h0a2,2,0,0,1-.37.49,2.12,2.12,0,0,1-.64.4A2.59,2.59,0,0,1,61.13,79.62Zm.28-1a1.81,1.81,0,0,0,.9-.21,1.45,1.45,0,0,0,.78-1.27v-.85a.69.69,0,0,1-.26.13,3.83,3.83,0,0,1-.45.1l-.48.07-.39.05a3.13,3.13,0,0,0-.67.16,1.16,1.16,0,0,0-.49.32.81.81,0,0,0-.18.55.79.79,0,0,0,.35.71A1.53,1.53,0,0,0,61.41,78.6Z" transform="translate(-13.4 -13.12)"/><path class="cls-10" d="M70.2,76.76V72.93h1.28v6.55H70.23V78.34h-.07a2,2,0,0,1-.72.88,2.1,2.1,0,0,1-1.23.34,2.17,2.17,0,0,1-1.12-.28,2,2,0,0,1-.76-.82,3.08,3.08,0,0,1-.27-1.36V72.93h1.27v4A1.54,1.54,0,0,0,67.7,78a1.28,1.28,0,0,0,1,.39,1.72,1.72,0,0,0,.71-.17,1.48,1.48,0,0,0,.59-.55A1.54,1.54,0,0,0,70.2,76.76Z" transform="translate(-13.4 -13.12)"/><path class="cls-10" d="M74.47,75.59v3.89H73.19V72.93h1.22V74h.09a1.85,1.85,0,0,1,.7-.84,2.22,2.22,0,0,1,1.23-.31,2.36,2.36,0,0,1,1.17.28,1.9,1.9,0,0,1,.78.83,3.05,3.05,0,0,1,.27,1.36v4.16H77.38v-4A1.58,1.58,0,0,0,77,74.35a1.35,1.35,0,0,0-1-.4,1.71,1.71,0,0,0-.79.19,1.53,1.53,0,0,0-.54.56A1.91,1.91,0,0,0,74.47,75.59Z" transform="translate(-13.4 -13.12)"/><path class="cls-10" d="M83.12,79.61a3,3,0,0,1-1.64-.43,2.92,2.92,0,0,1-1-1.2,4,4,0,0,1-.37-1.74,4,4,0,0,1,.38-1.77,2.85,2.85,0,0,1,1.06-1.19,2.9,2.9,0,0,1,1.6-.43,3.13,3.13,0,0,1,1.33.27,2.49,2.49,0,0,1,.95.77,2.29,2.29,0,0,1,.42,1.16H84.56a1.49,1.49,0,0,0-.46-.8,1.42,1.42,0,0,0-1-.33,1.57,1.57,0,0,0-.93.28,1.91,1.91,0,0,0-.62.79,3.24,3.24,0,0,0-.22,1.22,3.11,3.11,0,0,0,.22,1.23,1.82,1.82,0,0,0,.61.81,1.58,1.58,0,0,0,.94.28,1.56,1.56,0,0,0,.66-.13,1.28,1.28,0,0,0,.5-.39,1.39,1.39,0,0,0,.28-.6H85.8a2.34,2.34,0,0,1-.41,1.13,2.53,2.53,0,0,1-.92.79A3,3,0,0,1,83.12,79.61Z" transform="translate(-13.4 -13.12)"/><path class="cls-10" d="M88.45,75.59v3.89H87.17V70.75h1.26V74h.08a1.91,1.91,0,0,1,.7-.84,2.21,2.21,0,0,1,1.24-.31,2.48,2.48,0,0,1,1.18.27,1.9,1.9,0,0,1,.78.83,2.93,2.93,0,0,1,.28,1.37v4.16H91.42v-4a1.62,1.62,0,0,0-.37-1.12,1.33,1.33,0,0,0-1-.4,1.72,1.72,0,0,0-.8.19,1.37,1.37,0,0,0-.56.56A1.8,1.8,0,0,0,88.45,75.59Z" transform="translate(-13.4 -13.12)"/><path class="cls-10" d="M130.77,79.3V70.58h5.47v1.13h-4.15v2.66H136V75.5h-3.87v2.67h4.21V79.3Z" transform="translate(-13.4 -13.12)"/><path class="cls-10" d="M138.91,72.76l1.45,2.55,1.45-2.55h1.4l-2,3.27,2.05,3.27h-1.39l-1.47-2.44-1.47,2.44h-1.4l2-3.27-2-3.27Z" transform="translate(-13.4 -13.12)"/><path class="cls-10" d="M144.52,81.76v-9h1.24v1.06h.11a3,3,0,0,1,.32-.47,1.73,1.73,0,0,1,.58-.47,2,2,0,0,1,1-.21,2.64,2.64,0,0,1,1.42.4,2.72,2.72,0,0,1,1,1.16A4.17,4.17,0,0,1,150.5,76a4.34,4.34,0,0,1-.35,1.82,2.77,2.77,0,0,1-1,1.17,2.5,2.5,0,0,1-1.41.4,2,2,0,0,1-1-.2,1.78,1.78,0,0,1-.59-.47,4.18,4.18,0,0,1-.33-.47h-.08v3.47ZM145.77,76a3.41,3.41,0,0,0,.2,1.21,1.77,1.77,0,0,0,.58.81,1.44,1.44,0,0,0,.93.3,1.48,1.48,0,0,0,1-.31,1.81,1.81,0,0,0,.58-.83,3.14,3.14,0,0,0,.2-1.18,3.25,3.25,0,0,0-.19-1.16,1.83,1.83,0,0,0-.58-.82,1.59,1.59,0,0,0-1-.29,1.54,1.54,0,0,0-.94.28,1.87,1.87,0,0,0-.58.8A3.34,3.34,0,0,0,145.77,76Z" transform="translate(-13.4 -13.12)"/><path class="cls-10" d="M153.83,79.45a2.7,2.7,0,0,1-1.12-.23,1.9,1.9,0,0,1-.8-.68,2,2,0,0,1-.29-1.08,1.82,1.82,0,0,1,.21-.92,1.56,1.56,0,0,1,.58-.56,2.92,2.92,0,0,1,.81-.32,9.1,9.1,0,0,1,.91-.16l1-.11a1.35,1.35,0,0,0,.54-.15.36.36,0,0,0,.16-.33v0a1.16,1.16,0,0,0-.31-.87,1.3,1.3,0,0,0-.93-.3,1.6,1.6,0,0,0-1,.28,1.49,1.49,0,0,0-.51.63l-1.2-.28a2.32,2.32,0,0,1,.62-1,2.64,2.64,0,0,1,.95-.54,3.86,3.86,0,0,1,1.13-.17,3.54,3.54,0,0,1,.83.1,2.49,2.49,0,0,1,.83.33,1.76,1.76,0,0,1,.63.69,2.36,2.36,0,0,1,.25,1.17V79.3h-1.24v-.89h0a2.25,2.25,0,0,1-.37.49,2.1,2.1,0,0,1-.64.39A2.38,2.38,0,0,1,153.83,79.45Zm.28-1a1.81,1.81,0,0,0,.9-.21,1.4,1.4,0,0,0,.58-.55,1.46,1.46,0,0,0,.2-.73V76.1a.67.67,0,0,1-.27.13,3.38,3.38,0,0,1-.44.09l-.48.08-.39,0a2.63,2.63,0,0,0-.67.16,1.15,1.15,0,0,0-.49.31.83.83,0,0,0-.18.55.8.8,0,0,0,.35.72A1.53,1.53,0,0,0,154.11,78.43Z" transform="translate(-13.4 -13.12)"/><path class="cls-10" d="M160,75.42V79.3h-1.27V72.76H160v1.06h.08a1.9,1.9,0,0,1,.71-.83,2.19,2.19,0,0,1,1.22-.32,2.41,2.41,0,0,1,1.17.28,1.9,1.9,0,0,1,.78.83,2.94,2.94,0,0,1,.28,1.36V79.3H163v-4a1.62,1.62,0,0,0-.37-1.11,1.32,1.32,0,0,0-1-.4,1.57,1.57,0,0,0-.79.19,1.33,1.33,0,0,0-.54.56A1.89,1.89,0,0,0,160,75.42Z" transform="translate(-13.4 -13.12)"/><path class="cls-10" d="M170.83,74.36l-1.16.2a1.21,1.21,0,0,0-.22-.42,1.4,1.4,0,0,0-.42-.33,1.8,1.8,0,0,0-1.57.11.72.72,0,0,0-.36.62.65.65,0,0,0,.24.53,1.89,1.89,0,0,0,.79.33l1,.24a2.75,2.75,0,0,1,1.34.64,1.51,1.51,0,0,1,.45,1.13,1.78,1.78,0,0,1-.34,1,2.39,2.39,0,0,1-.94.72,3.6,3.6,0,0,1-1.4.26,3.15,3.15,0,0,1-1.79-.47,1.94,1.94,0,0,1-.85-1.34l1.23-.19a1.16,1.16,0,0,0,.47.73,1.65,1.65,0,0,0,.93.24,1.74,1.74,0,0,0,1-.26.78.78,0,0,0,.38-.64.68.68,0,0,0-.23-.52,1.47,1.47,0,0,0-.7-.31l-1.1-.25a2.71,2.71,0,0,1-1.36-.66,1.77,1.77,0,0,1-.11-2.17,2.15,2.15,0,0,1,.9-.68,3.31,3.31,0,0,1,1.3-.25,2.74,2.74,0,0,1,1.67.46A2.17,2.17,0,0,1,170.83,74.36Z" transform="translate(-13.4 -13.12)"/><path class="cls-10" d="M173,71.75a.85.85,0,0,1-.57-.22.73.73,0,0,1,0-1.08.85.85,0,0,1,1.14,0,.75.75,0,0,1,0,1.08A.85.85,0,0,1,173,71.75Zm-.65,7.55V72.76h1.28V79.3Z" transform="translate(-13.4 -13.12)"/><path class="cls-10" d="M178.1,79.44a3,3,0,0,1-1.61-.43,2.83,2.83,0,0,1-1.06-1.18,3.79,3.79,0,0,1-.38-1.77,3.86,3.86,0,0,1,.38-1.78,2.83,2.83,0,0,1,1.06-1.18,3.23,3.23,0,0,1,3.22,0,2.83,2.83,0,0,1,1.06,1.18,4,4,0,0,1,.38,1.78,3.91,3.91,0,0,1-.38,1.77A2.83,2.83,0,0,1,179.71,79,3,3,0,0,1,178.1,79.44Zm0-1.07a1.53,1.53,0,0,0,1-.32,1.82,1.82,0,0,0,.58-.84,3.58,3.58,0,0,0,0-2.3,1.8,1.8,0,0,0-.58-.85,1.69,1.69,0,0,0-2,0,1.89,1.89,0,0,0-.59.85,3.76,3.76,0,0,0,0,2.3,1.91,1.91,0,0,0,.59.84A1.53,1.53,0,0,0,178.1,78.37Z" transform="translate(-13.4 -13.12)"/><path class="cls-10" d="M183.84,75.42V79.3h-1.27V72.76h1.22v1.06h.08a1.9,1.9,0,0,1,.71-.83,2.21,2.21,0,0,1,1.22-.32A2.48,2.48,0,0,1,187,73a2,2,0,0,1,.78.83,3.08,3.08,0,0,1,.27,1.36V79.3h-1.27v-4a1.62,1.62,0,0,0-.37-1.11,1.32,1.32,0,0,0-1-.4,1.57,1.57,0,0,0-.79.19,1.33,1.33,0,0,0-.54.56A1.89,1.89,0,0,0,183.84,75.42Z" transform="translate(-13.4 -13.12)"/><path class="cls-10" d="M271,70.4h1.32v5.74a3,3,0,0,1-.43,1.62,2.89,2.89,0,0,1-1.21,1.11,4.27,4.27,0,0,1-3.65,0,3,3,0,0,1-1.21-1.11,3,3,0,0,1-.43-1.62V70.4h1.32V76a2,2,0,0,0,.26,1,1.77,1.77,0,0,0,.74.72,2.65,2.65,0,0,0,2.29,0,1.77,1.77,0,0,0,.74-.72,2,2,0,0,0,.26-1Z" transform="translate(-13.4 -13.12)"/><path class="cls-10" d="M274.23,79.13V70.4h1.27v3.25h.08a3.06,3.06,0,0,1,.32-.48,1.86,1.86,0,0,1,.58-.47,2.1,2.1,0,0,1,1-.2,2.56,2.56,0,0,1,1.42.4,2.66,2.66,0,0,1,1,1.16,4.14,4.14,0,0,1,.36,1.81,4.38,4.38,0,0,1-.35,1.82,2.81,2.81,0,0,1-1,1.16,2.51,2.51,0,0,1-1.41.41,2.12,2.12,0,0,1-1-.2,1.91,1.91,0,0,1-.59-.47,4.2,4.2,0,0,1-.33-.48h-.11v1Zm1.25-3.27a3.23,3.23,0,0,0,.2,1.21,1.77,1.77,0,0,0,.58.81,1.44,1.44,0,0,0,.93.29,1.48,1.48,0,0,0,.95-.3,1.86,1.86,0,0,0,.58-.83,3.14,3.14,0,0,0,.2-1.18,3.34,3.34,0,0,0-.19-1.17,1.8,1.8,0,0,0-.58-.81,1.53,1.53,0,0,0-1-.3,1.55,1.55,0,0,0-.94.29,1.81,1.81,0,0,0-.58.8A3.3,3.3,0,0,0,275.48,75.86Z" transform="translate(-13.4 -13.12)"/><path class="cls-10" d="M282.28,71.58a.81.81,0,0,1-.57-.23.72.72,0,0,1,0-1.07.82.82,0,0,1,1.14,0,.74.74,0,0,1,0,1.07A.81.81,0,0,1,282.28,71.58Zm-.64,7.55V72.58h1.27v6.55Z" transform="translate(-13.4 -13.12)"/><path class="cls-10" d="M289,81.58V78.11H289a4.2,4.2,0,0,1-.33.48,1.92,1.92,0,0,1-1.57.67,2.51,2.51,0,0,1-1.41-.41,2.72,2.72,0,0,1-1-1.16,4.38,4.38,0,0,1-.35-1.82,4.3,4.3,0,0,1,.35-1.81,2.75,2.75,0,0,1,1-1.16,2.55,2.55,0,0,1,1.41-.4,2.07,2.07,0,0,1,1,.2,1.75,1.75,0,0,1,.58.47,4.2,4.2,0,0,1,.33.48h.1V72.58h1.25v9Zm-1.69-3.41a1.48,1.48,0,0,0,.94-.29,1.84,1.84,0,0,0,.58-.81,3.45,3.45,0,0,0,.19-1.21,3.3,3.3,0,0,0-.19-1.19,1.74,1.74,0,0,0-.58-.8,1.5,1.5,0,0,0-.94-.29,1.48,1.48,0,0,0-1,.3,1.8,1.8,0,0,0-.58.81,3.55,3.55,0,0,0,0,2.35,2,2,0,0,0,.58.83A1.52,1.52,0,0,0,287.35,78.17Z" transform="translate(-13.4 -13.12)"/><path class="cls-10" d="M296.18,76.42V72.58h1.27v6.55H296.2V78h-.07a2,2,0,0,1-.72.87,2.1,2.1,0,0,1-1.23.35,2.3,2.3,0,0,1-1.12-.28,2,2,0,0,1-.76-.83,3.08,3.08,0,0,1-.27-1.36V72.58h1.27v4a1.52,1.52,0,0,0,.37,1.06,1.29,1.29,0,0,0,1,.4,1.56,1.56,0,0,0,.71-.18,1.46,1.46,0,0,0,.59-.54A1.63,1.63,0,0,0,296.18,76.42Z" transform="translate(-13.4 -13.12)"/><path class="cls-10" d="M299.81,71.58a.79.79,0,0,1-.57-.23.72.72,0,0,1,0-1.07.79.79,0,0,1,.57-.23.81.81,0,0,1,.57.23.74.74,0,0,1,0,1.07A.81.81,0,0,1,299.81,71.58Zm-.65,7.55V72.58h1.28v6.55Z" transform="translate(-13.4 -13.12)"/><path class="cls-10" d="M305.21,72.58v1h-3.58v-1ZM302.59,71h1.27v6.19a1.11,1.11,0,0,0,.11.55.6.6,0,0,0,.29.26,1.23,1.23,0,0,0,.39.06,1.14,1.14,0,0,0,.27,0l.17,0,.24,1-.32.09a3.38,3.38,0,0,1-.51,0,2.42,2.42,0,0,1-.94-.18,1.65,1.65,0,0,1-.7-.58,1.7,1.7,0,0,1-.27-1Z" transform="translate(-13.4 -13.12)"/><path class="cls-10" d="M307.42,81.58a2.75,2.75,0,0,1-.52,0,1.25,1.25,0,0,1-.35-.1l.3-1a2.13,2.13,0,0,0,.63.08.74.74,0,0,0,.48-.2,1.54,1.54,0,0,0,.37-.63l.16-.43-2.39-6.64h1.36l1.66,5.09h.07l1.65-5.09h1.37L309.51,80a2.88,2.88,0,0,1-.47.87,2,2,0,0,1-.69.54A2.27,2.27,0,0,1,307.42,81.58Z" transform="translate(-13.4 -13.12)"/></svg>